%TF.GenerationSoftware,KiCad,Pcbnew,7.0.8*%
%TF.CreationDate,2024-03-02T19:00:57+02:00*%
%TF.ProjectId,mouse_hardware,6d6f7573-655f-4686-9172-64776172652e,rev?*%
%TF.SameCoordinates,Original*%
%TF.FileFunction,Soldermask,Top*%
%TF.FilePolarity,Negative*%
%FSLAX46Y46*%
G04 Gerber Fmt 4.6, Leading zero omitted, Abs format (unit mm)*
G04 Created by KiCad (PCBNEW 7.0.8) date 2024-03-02 19:00:57*
%MOMM*%
%LPD*%
G01*
G04 APERTURE LIST*
G04 Aperture macros list*
%AMRoundRect*
0 Rectangle with rounded corners*
0 $1 Rounding radius*
0 $2 $3 $4 $5 $6 $7 $8 $9 X,Y pos of 4 corners*
0 Add a 4 corners polygon primitive as box body*
4,1,4,$2,$3,$4,$5,$6,$7,$8,$9,$2,$3,0*
0 Add four circle primitives for the rounded corners*
1,1,$1+$1,$2,$3*
1,1,$1+$1,$4,$5*
1,1,$1+$1,$6,$7*
1,1,$1+$1,$8,$9*
0 Add four rect primitives between the rounded corners*
20,1,$1+$1,$2,$3,$4,$5,0*
20,1,$1+$1,$4,$5,$6,$7,0*
20,1,$1+$1,$6,$7,$8,$9,0*
20,1,$1+$1,$8,$9,$2,$3,0*%
G04 Aperture macros list end*
%ADD10C,1.800000*%
%ADD11R,1.700000X1.700000*%
%ADD12O,1.700000X1.700000*%
%ADD13R,1.200000X0.600000*%
%ADD14R,1.250000X0.600000*%
%ADD15RoundRect,0.250000X0.450000X-0.350000X0.450000X0.350000X-0.450000X0.350000X-0.450000X-0.350000X0*%
%ADD16RoundRect,0.250000X0.475000X-0.337500X0.475000X0.337500X-0.475000X0.337500X-0.475000X-0.337500X0*%
%ADD17RoundRect,0.250000X-0.475000X0.337500X-0.475000X-0.337500X0.475000X-0.337500X0.475000X0.337500X0*%
%ADD18R,2.000000X7.875000*%
%ADD19RoundRect,0.250000X0.337500X0.475000X-0.337500X0.475000X-0.337500X-0.475000X0.337500X-0.475000X0*%
%ADD20RoundRect,0.250000X0.350000X0.450000X-0.350000X0.450000X-0.350000X-0.450000X0.350000X-0.450000X0*%
%ADD21RoundRect,0.250000X-0.350000X-0.450000X0.350000X-0.450000X0.350000X0.450000X-0.350000X0.450000X0*%
%ADD22RoundRect,0.250000X-0.337500X-0.475000X0.337500X-0.475000X0.337500X0.475000X-0.337500X0.475000X0*%
%ADD23RoundRect,0.250000X-0.450000X0.350000X-0.450000X-0.350000X0.450000X-0.350000X0.450000X0.350000X0*%
%ADD24R,2.800000X2.200000*%
%ADD25C,1.504000*%
%ADD26RoundRect,0.250000X0.325000X0.450000X-0.325000X0.450000X-0.325000X-0.450000X0.325000X-0.450000X0*%
%ADD27RoundRect,0.075000X0.700000X0.075000X-0.700000X0.075000X-0.700000X-0.075000X0.700000X-0.075000X0*%
%ADD28RoundRect,0.075000X0.075000X0.700000X-0.075000X0.700000X-0.075000X-0.700000X0.075000X-0.700000X0*%
%ADD29RoundRect,0.250000X-0.325000X-0.450000X0.325000X-0.450000X0.325000X0.450000X-0.325000X0.450000X0*%
G04 APERTURE END LIST*
D10*
%TO.C,S3*%
X37149000Y-30480000D03*
X37149000Y-35560000D03*
X37149000Y-40640000D03*
%TD*%
%TO.C,S2*%
X57149000Y-30480000D03*
X57149000Y-35560000D03*
X57149000Y-40640000D03*
%TD*%
%TO.C,S1*%
X17149000Y-30480000D03*
X17149000Y-35560000D03*
X17149000Y-40640000D03*
%TD*%
D11*
%TO.C,J2*%
X23866000Y-82156000D03*
D12*
X23866000Y-79616000D03*
X23866000Y-77076000D03*
X23866000Y-74536000D03*
%TD*%
D11*
%TO.C,J1*%
X33424000Y-21129000D03*
D12*
X35964000Y-21129000D03*
X38504000Y-21129000D03*
X41044000Y-21129000D03*
%TD*%
D13*
%TO.C,IC2*%
X20554000Y-49188500D03*
X20554000Y-48238500D03*
X20554000Y-47288500D03*
X18054000Y-47288500D03*
X18054000Y-49188500D03*
%TD*%
D14*
%TO.C,IC1*%
X50529000Y-47618500D03*
X50529000Y-48568500D03*
X50529000Y-49518500D03*
X53029000Y-49518500D03*
X53029000Y-47618500D03*
%TD*%
D10*
%TO.C,H3*%
X17149000Y-25400000D03*
%TD*%
%TO.C,H2*%
X37149000Y-25400000D03*
%TD*%
%TO.C,H1*%
X57149000Y-25400000D03*
%TD*%
D15*
%TO.C,R1*%
X31903000Y-89650500D03*
X31903000Y-87650500D03*
%TD*%
D16*
%TO.C,C9*%
X47441000Y-50556000D03*
X47441000Y-48481000D03*
%TD*%
D17*
%TO.C,C16*%
X20517000Y-64207500D03*
X20517000Y-66282500D03*
%TD*%
D16*
%TO.C,C7*%
X29363000Y-82581500D03*
X29363000Y-80506500D03*
%TD*%
D18*
%TO.C,Y1*%
X51207000Y-84920000D03*
X51207000Y-73045000D03*
%TD*%
D19*
%TO.C,C14*%
X50313500Y-36068000D03*
X48238500Y-36068000D03*
%TD*%
D20*
%TO.C,R9*%
X52791000Y-21336000D03*
X50791000Y-21336000D03*
%TD*%
D15*
%TO.C,R8*%
X46736000Y-71104000D03*
X46736000Y-69104000D03*
%TD*%
D20*
%TO.C,R6*%
X45906500Y-31548000D03*
X43906500Y-31548000D03*
%TD*%
D21*
%TO.C,R11*%
X40148000Y-46228000D03*
X42148000Y-46228000D03*
%TD*%
D17*
%TO.C,C2*%
X46736000Y-77702500D03*
X46736000Y-79777500D03*
%TD*%
D16*
%TO.C,C11*%
X23876000Y-50800000D03*
X23876000Y-48725000D03*
%TD*%
D21*
%TO.C,R10*%
X18828000Y-21336000D03*
X20828000Y-21336000D03*
%TD*%
D17*
%TO.C,C8*%
X42063000Y-88083500D03*
X42063000Y-90158500D03*
%TD*%
D22*
%TO.C,C15*%
X43863500Y-36120000D03*
X45938500Y-36120000D03*
%TD*%
D16*
%TO.C,C10*%
X56077000Y-50534500D03*
X56077000Y-48459500D03*
%TD*%
D20*
%TO.C,R4*%
X25908000Y-32004000D03*
X23908000Y-32004000D03*
%TD*%
D23*
%TO.C,R3*%
X29363000Y-75972000D03*
X29363000Y-77972000D03*
%TD*%
D21*
%TO.C,R5*%
X48281500Y-31496000D03*
X50281500Y-31496000D03*
%TD*%
D24*
%TO.C,SW1*%
X51189000Y-56144000D03*
X55989000Y-56144000D03*
%TD*%
D25*
%TO.C,U2*%
X32517000Y-49889000D03*
X32517000Y-51669000D03*
X32517000Y-53449000D03*
X32517000Y-55229000D03*
X32517000Y-57009000D03*
X32517000Y-58789000D03*
X32517000Y-60569000D03*
X32517000Y-62349000D03*
X43217000Y-63239000D03*
X43217000Y-61459000D03*
X43217000Y-59679000D03*
X43217000Y-57899000D03*
X43217000Y-56119000D03*
X43217000Y-54339000D03*
X43217000Y-52559000D03*
X43217000Y-50779000D03*
%TD*%
D19*
%TO.C,C20*%
X29485500Y-56896000D03*
X27410500Y-56896000D03*
%TD*%
D17*
%TO.C,C3*%
X45619000Y-85565000D03*
X45619000Y-87640000D03*
%TD*%
D19*
%TO.C,C5*%
X33041500Y-72644000D03*
X30966500Y-72644000D03*
%TD*%
D15*
%TO.C,R7*%
X16961000Y-66266500D03*
X16961000Y-64266500D03*
%TD*%
D16*
%TO.C,C12*%
X14732000Y-50821500D03*
X14732000Y-48746500D03*
%TD*%
D17*
%TO.C,C4*%
X39015000Y-88591500D03*
X39015000Y-90666500D03*
%TD*%
D15*
%TO.C,R2*%
X35250000Y-69500000D03*
X35250000Y-67500000D03*
%TD*%
D19*
%TO.C,C19*%
X29485500Y-53340000D03*
X27410500Y-53340000D03*
%TD*%
%TO.C,C18*%
X50720500Y-66790500D03*
X48645500Y-66790500D03*
%TD*%
D16*
%TO.C,C6*%
X41555000Y-70876000D03*
X41555000Y-68801000D03*
%TD*%
%TO.C,C1*%
X46760000Y-73752500D03*
X46760000Y-75827500D03*
%TD*%
D24*
%TO.C,SW5*%
X20745000Y-56652000D03*
X15945000Y-56652000D03*
%TD*%
D22*
%TO.C,C13*%
X23833000Y-37084000D03*
X25908000Y-37084000D03*
%TD*%
D26*
%TO.C,D2*%
X15773000Y-21336000D03*
X13723000Y-21336000D03*
%TD*%
D27*
%TO.C,U1*%
X44182000Y-83240500D03*
X44182000Y-82740500D03*
X44182000Y-82240500D03*
X44182000Y-81740500D03*
X44182000Y-81240500D03*
X44182000Y-80740500D03*
X44182000Y-80240500D03*
X44182000Y-79740500D03*
X44182000Y-79240500D03*
X44182000Y-78740500D03*
X44182000Y-78240500D03*
X44182000Y-77740500D03*
X44182000Y-77240500D03*
X44182000Y-76740500D03*
X44182000Y-76240500D03*
X44182000Y-75740500D03*
D28*
X42257000Y-73815500D03*
X41757000Y-73815500D03*
X41257000Y-73815500D03*
X40757000Y-73815500D03*
X40257000Y-73815500D03*
X39757000Y-73815500D03*
X39257000Y-73815500D03*
X38757000Y-73815500D03*
X38257000Y-73815500D03*
X37757000Y-73815500D03*
X37257000Y-73815500D03*
X36757000Y-73815500D03*
X36257000Y-73815500D03*
X35757000Y-73815500D03*
X35257000Y-73815500D03*
X34757000Y-73815500D03*
D27*
X32832000Y-75740500D03*
X32832000Y-76240500D03*
X32832000Y-76740500D03*
X32832000Y-77240500D03*
X32832000Y-77740500D03*
X32832000Y-78240500D03*
X32832000Y-78740500D03*
X32832000Y-79240500D03*
X32832000Y-79740500D03*
X32832000Y-80240500D03*
X32832000Y-80740500D03*
X32832000Y-81240500D03*
X32832000Y-81740500D03*
X32832000Y-82240500D03*
X32832000Y-82740500D03*
X32832000Y-83240500D03*
D28*
X34757000Y-85165500D03*
X35257000Y-85165500D03*
X35757000Y-85165500D03*
X36257000Y-85165500D03*
X36757000Y-85165500D03*
X37257000Y-85165500D03*
X37757000Y-85165500D03*
X38257000Y-85165500D03*
X38757000Y-85165500D03*
X39257000Y-85165500D03*
X39757000Y-85165500D03*
X40257000Y-85165500D03*
X40757000Y-85165500D03*
X41257000Y-85165500D03*
X41757000Y-85165500D03*
X42257000Y-85165500D03*
%TD*%
D19*
%TO.C,C17*%
X50742000Y-91174500D03*
X48667000Y-91174500D03*
%TD*%
D29*
%TO.C,D1*%
X55862000Y-21336000D03*
X57912000Y-21336000D03*
%TD*%
M02*
