%TF.GenerationSoftware,KiCad,Pcbnew,7.0.8*%
%TF.CreationDate,2024-03-02T19:00:57+02:00*%
%TF.ProjectId,mouse_hardware,6d6f7573-655f-4686-9172-64776172652e,rev?*%
%TF.SameCoordinates,Original*%
%TF.FileFunction,Legend,Top*%
%TF.FilePolarity,Positive*%
%FSLAX46Y46*%
G04 Gerber Fmt 4.6, Leading zero omitted, Abs format (unit mm)*
G04 Created by KiCad (PCBNEW 7.0.8) date 2024-03-02 19:00:57*
%MOMM*%
%LPD*%
G01*
G04 APERTURE LIST*
%ADD10C,0.254000*%
%ADD11C,0.100000*%
%ADD12C,0.150000*%
%ADD13C,0.120000*%
%ADD14C,0.200000*%
G04 APERTURE END LIST*
D10*
X36222380Y-33843842D02*
X36403809Y-33904318D01*
X36403809Y-33904318D02*
X36706190Y-33904318D01*
X36706190Y-33904318D02*
X36827142Y-33843842D01*
X36827142Y-33843842D02*
X36887618Y-33783365D01*
X36887618Y-33783365D02*
X36948095Y-33662413D01*
X36948095Y-33662413D02*
X36948095Y-33541461D01*
X36948095Y-33541461D02*
X36887618Y-33420508D01*
X36887618Y-33420508D02*
X36827142Y-33360032D01*
X36827142Y-33360032D02*
X36706190Y-33299556D01*
X36706190Y-33299556D02*
X36464285Y-33239080D01*
X36464285Y-33239080D02*
X36343333Y-33178603D01*
X36343333Y-33178603D02*
X36282856Y-33118127D01*
X36282856Y-33118127D02*
X36222380Y-32997175D01*
X36222380Y-32997175D02*
X36222380Y-32876222D01*
X36222380Y-32876222D02*
X36282856Y-32755270D01*
X36282856Y-32755270D02*
X36343333Y-32694794D01*
X36343333Y-32694794D02*
X36464285Y-32634318D01*
X36464285Y-32634318D02*
X36766666Y-32634318D01*
X36766666Y-32634318D02*
X36948095Y-32694794D01*
X37371428Y-32634318D02*
X38157619Y-32634318D01*
X38157619Y-32634318D02*
X37734285Y-33118127D01*
X37734285Y-33118127D02*
X37915714Y-33118127D01*
X37915714Y-33118127D02*
X38036666Y-33178603D01*
X38036666Y-33178603D02*
X38097142Y-33239080D01*
X38097142Y-33239080D02*
X38157619Y-33360032D01*
X38157619Y-33360032D02*
X38157619Y-33662413D01*
X38157619Y-33662413D02*
X38097142Y-33783365D01*
X38097142Y-33783365D02*
X38036666Y-33843842D01*
X38036666Y-33843842D02*
X37915714Y-33904318D01*
X37915714Y-33904318D02*
X37552857Y-33904318D01*
X37552857Y-33904318D02*
X37431904Y-33843842D01*
X37431904Y-33843842D02*
X37371428Y-33783365D01*
X56142380Y-34103842D02*
X56323809Y-34164318D01*
X56323809Y-34164318D02*
X56626190Y-34164318D01*
X56626190Y-34164318D02*
X56747142Y-34103842D01*
X56747142Y-34103842D02*
X56807618Y-34043365D01*
X56807618Y-34043365D02*
X56868095Y-33922413D01*
X56868095Y-33922413D02*
X56868095Y-33801461D01*
X56868095Y-33801461D02*
X56807618Y-33680508D01*
X56807618Y-33680508D02*
X56747142Y-33620032D01*
X56747142Y-33620032D02*
X56626190Y-33559556D01*
X56626190Y-33559556D02*
X56384285Y-33499080D01*
X56384285Y-33499080D02*
X56263333Y-33438603D01*
X56263333Y-33438603D02*
X56202856Y-33378127D01*
X56202856Y-33378127D02*
X56142380Y-33257175D01*
X56142380Y-33257175D02*
X56142380Y-33136222D01*
X56142380Y-33136222D02*
X56202856Y-33015270D01*
X56202856Y-33015270D02*
X56263333Y-32954794D01*
X56263333Y-32954794D02*
X56384285Y-32894318D01*
X56384285Y-32894318D02*
X56686666Y-32894318D01*
X56686666Y-32894318D02*
X56868095Y-32954794D01*
X57351904Y-33015270D02*
X57412380Y-32954794D01*
X57412380Y-32954794D02*
X57533333Y-32894318D01*
X57533333Y-32894318D02*
X57835714Y-32894318D01*
X57835714Y-32894318D02*
X57956666Y-32954794D01*
X57956666Y-32954794D02*
X58017142Y-33015270D01*
X58017142Y-33015270D02*
X58077619Y-33136222D01*
X58077619Y-33136222D02*
X58077619Y-33257175D01*
X58077619Y-33257175D02*
X58017142Y-33438603D01*
X58017142Y-33438603D02*
X57291428Y-34164318D01*
X57291428Y-34164318D02*
X58077619Y-34164318D01*
X16242380Y-34053842D02*
X16423809Y-34114318D01*
X16423809Y-34114318D02*
X16726190Y-34114318D01*
X16726190Y-34114318D02*
X16847142Y-34053842D01*
X16847142Y-34053842D02*
X16907618Y-33993365D01*
X16907618Y-33993365D02*
X16968095Y-33872413D01*
X16968095Y-33872413D02*
X16968095Y-33751461D01*
X16968095Y-33751461D02*
X16907618Y-33630508D01*
X16907618Y-33630508D02*
X16847142Y-33570032D01*
X16847142Y-33570032D02*
X16726190Y-33509556D01*
X16726190Y-33509556D02*
X16484285Y-33449080D01*
X16484285Y-33449080D02*
X16363333Y-33388603D01*
X16363333Y-33388603D02*
X16302856Y-33328127D01*
X16302856Y-33328127D02*
X16242380Y-33207175D01*
X16242380Y-33207175D02*
X16242380Y-33086222D01*
X16242380Y-33086222D02*
X16302856Y-32965270D01*
X16302856Y-32965270D02*
X16363333Y-32904794D01*
X16363333Y-32904794D02*
X16484285Y-32844318D01*
X16484285Y-32844318D02*
X16786666Y-32844318D01*
X16786666Y-32844318D02*
X16968095Y-32904794D01*
X18177619Y-34114318D02*
X17451904Y-34114318D01*
X17814761Y-34114318D02*
X17814761Y-32844318D01*
X17814761Y-32844318D02*
X17693809Y-33025746D01*
X17693809Y-33025746D02*
X17572857Y-33146699D01*
X17572857Y-33146699D02*
X17451904Y-33207175D01*
D11*
X27088580Y-78142666D02*
X26374295Y-78142666D01*
X26374295Y-78142666D02*
X26231438Y-78095047D01*
X26231438Y-78095047D02*
X26136200Y-77999809D01*
X26136200Y-77999809D02*
X26088580Y-77856952D01*
X26088580Y-77856952D02*
X26088580Y-77761714D01*
X26993342Y-78571238D02*
X27040961Y-78618857D01*
X27040961Y-78618857D02*
X27088580Y-78714095D01*
X27088580Y-78714095D02*
X27088580Y-78952190D01*
X27088580Y-78952190D02*
X27040961Y-79047428D01*
X27040961Y-79047428D02*
X26993342Y-79095047D01*
X26993342Y-79095047D02*
X26898104Y-79142666D01*
X26898104Y-79142666D02*
X26802866Y-79142666D01*
X26802866Y-79142666D02*
X26660009Y-79095047D01*
X26660009Y-79095047D02*
X26088580Y-78523619D01*
X26088580Y-78523619D02*
X26088580Y-79142666D01*
X37437333Y-24351580D02*
X37437333Y-23637295D01*
X37437333Y-23637295D02*
X37484952Y-23494438D01*
X37484952Y-23494438D02*
X37580190Y-23399200D01*
X37580190Y-23399200D02*
X37723047Y-23351580D01*
X37723047Y-23351580D02*
X37818285Y-23351580D01*
X36437333Y-23351580D02*
X37008761Y-23351580D01*
X36723047Y-23351580D02*
X36723047Y-24351580D01*
X36723047Y-24351580D02*
X36818285Y-24208723D01*
X36818285Y-24208723D02*
X36913523Y-24113485D01*
X36913523Y-24113485D02*
X37008761Y-24065866D01*
D10*
X18064237Y-46084318D02*
X18064237Y-44814318D01*
X19394714Y-45963365D02*
X19334238Y-46023842D01*
X19334238Y-46023842D02*
X19152809Y-46084318D01*
X19152809Y-46084318D02*
X19031857Y-46084318D01*
X19031857Y-46084318D02*
X18850428Y-46023842D01*
X18850428Y-46023842D02*
X18729476Y-45902889D01*
X18729476Y-45902889D02*
X18668999Y-45781937D01*
X18668999Y-45781937D02*
X18608523Y-45540032D01*
X18608523Y-45540032D02*
X18608523Y-45358603D01*
X18608523Y-45358603D02*
X18668999Y-45116699D01*
X18668999Y-45116699D02*
X18729476Y-44995746D01*
X18729476Y-44995746D02*
X18850428Y-44874794D01*
X18850428Y-44874794D02*
X19031857Y-44814318D01*
X19031857Y-44814318D02*
X19152809Y-44814318D01*
X19152809Y-44814318D02*
X19334238Y-44874794D01*
X19334238Y-44874794D02*
X19394714Y-44935270D01*
X19878523Y-44935270D02*
X19938999Y-44874794D01*
X19938999Y-44874794D02*
X20059952Y-44814318D01*
X20059952Y-44814318D02*
X20362333Y-44814318D01*
X20362333Y-44814318D02*
X20483285Y-44874794D01*
X20483285Y-44874794D02*
X20543761Y-44935270D01*
X20543761Y-44935270D02*
X20604238Y-45056222D01*
X20604238Y-45056222D02*
X20604238Y-45177175D01*
X20604238Y-45177175D02*
X20543761Y-45358603D01*
X20543761Y-45358603D02*
X19818047Y-46084318D01*
X19818047Y-46084318D02*
X20604238Y-46084318D01*
X50570237Y-46584318D02*
X50570237Y-45314318D01*
X51900714Y-46463365D02*
X51840238Y-46523842D01*
X51840238Y-46523842D02*
X51658809Y-46584318D01*
X51658809Y-46584318D02*
X51537857Y-46584318D01*
X51537857Y-46584318D02*
X51356428Y-46523842D01*
X51356428Y-46523842D02*
X51235476Y-46402889D01*
X51235476Y-46402889D02*
X51174999Y-46281937D01*
X51174999Y-46281937D02*
X51114523Y-46040032D01*
X51114523Y-46040032D02*
X51114523Y-45858603D01*
X51114523Y-45858603D02*
X51174999Y-45616699D01*
X51174999Y-45616699D02*
X51235476Y-45495746D01*
X51235476Y-45495746D02*
X51356428Y-45374794D01*
X51356428Y-45374794D02*
X51537857Y-45314318D01*
X51537857Y-45314318D02*
X51658809Y-45314318D01*
X51658809Y-45314318D02*
X51840238Y-45374794D01*
X51840238Y-45374794D02*
X51900714Y-45435270D01*
X53110238Y-46584318D02*
X52384523Y-46584318D01*
X52747380Y-46584318D02*
X52747380Y-45314318D01*
X52747380Y-45314318D02*
X52626428Y-45495746D01*
X52626428Y-45495746D02*
X52505476Y-45616699D01*
X52505476Y-45616699D02*
X52384523Y-45677175D01*
D12*
X30707819Y-88817166D02*
X30231628Y-89150499D01*
X30707819Y-89388594D02*
X29707819Y-89388594D01*
X29707819Y-89388594D02*
X29707819Y-89007642D01*
X29707819Y-89007642D02*
X29755438Y-88912404D01*
X29755438Y-88912404D02*
X29803057Y-88864785D01*
X29803057Y-88864785D02*
X29898295Y-88817166D01*
X29898295Y-88817166D02*
X30041152Y-88817166D01*
X30041152Y-88817166D02*
X30136390Y-88864785D01*
X30136390Y-88864785D02*
X30184009Y-88912404D01*
X30184009Y-88912404D02*
X30231628Y-89007642D01*
X30231628Y-89007642D02*
X30231628Y-89388594D01*
X30707819Y-87864785D02*
X30707819Y-88436213D01*
X30707819Y-88150499D02*
X29707819Y-88150499D01*
X29707819Y-88150499D02*
X29850676Y-88245737D01*
X29850676Y-88245737D02*
X29945914Y-88340975D01*
X29945914Y-88340975D02*
X29993533Y-88436213D01*
X46120580Y-49685166D02*
X46168200Y-49732785D01*
X46168200Y-49732785D02*
X46215819Y-49875642D01*
X46215819Y-49875642D02*
X46215819Y-49970880D01*
X46215819Y-49970880D02*
X46168200Y-50113737D01*
X46168200Y-50113737D02*
X46072961Y-50208975D01*
X46072961Y-50208975D02*
X45977723Y-50256594D01*
X45977723Y-50256594D02*
X45787247Y-50304213D01*
X45787247Y-50304213D02*
X45644390Y-50304213D01*
X45644390Y-50304213D02*
X45453914Y-50256594D01*
X45453914Y-50256594D02*
X45358676Y-50208975D01*
X45358676Y-50208975D02*
X45263438Y-50113737D01*
X45263438Y-50113737D02*
X45215819Y-49970880D01*
X45215819Y-49970880D02*
X45215819Y-49875642D01*
X45215819Y-49875642D02*
X45263438Y-49732785D01*
X45263438Y-49732785D02*
X45311057Y-49685166D01*
X46215819Y-49208975D02*
X46215819Y-49018499D01*
X46215819Y-49018499D02*
X46168200Y-48923261D01*
X46168200Y-48923261D02*
X46120580Y-48875642D01*
X46120580Y-48875642D02*
X45977723Y-48780404D01*
X45977723Y-48780404D02*
X45787247Y-48732785D01*
X45787247Y-48732785D02*
X45406295Y-48732785D01*
X45406295Y-48732785D02*
X45311057Y-48780404D01*
X45311057Y-48780404D02*
X45263438Y-48828023D01*
X45263438Y-48828023D02*
X45215819Y-48923261D01*
X45215819Y-48923261D02*
X45215819Y-49113737D01*
X45215819Y-49113737D02*
X45263438Y-49208975D01*
X45263438Y-49208975D02*
X45311057Y-49256594D01*
X45311057Y-49256594D02*
X45406295Y-49304213D01*
X45406295Y-49304213D02*
X45644390Y-49304213D01*
X45644390Y-49304213D02*
X45739628Y-49256594D01*
X45739628Y-49256594D02*
X45787247Y-49208975D01*
X45787247Y-49208975D02*
X45834866Y-49113737D01*
X45834866Y-49113737D02*
X45834866Y-48923261D01*
X45834866Y-48923261D02*
X45787247Y-48828023D01*
X45787247Y-48828023D02*
X45739628Y-48780404D01*
X45739628Y-48780404D02*
X45644390Y-48732785D01*
X22556580Y-65887857D02*
X22604200Y-65935476D01*
X22604200Y-65935476D02*
X22651819Y-66078333D01*
X22651819Y-66078333D02*
X22651819Y-66173571D01*
X22651819Y-66173571D02*
X22604200Y-66316428D01*
X22604200Y-66316428D02*
X22508961Y-66411666D01*
X22508961Y-66411666D02*
X22413723Y-66459285D01*
X22413723Y-66459285D02*
X22223247Y-66506904D01*
X22223247Y-66506904D02*
X22080390Y-66506904D01*
X22080390Y-66506904D02*
X21889914Y-66459285D01*
X21889914Y-66459285D02*
X21794676Y-66411666D01*
X21794676Y-66411666D02*
X21699438Y-66316428D01*
X21699438Y-66316428D02*
X21651819Y-66173571D01*
X21651819Y-66173571D02*
X21651819Y-66078333D01*
X21651819Y-66078333D02*
X21699438Y-65935476D01*
X21699438Y-65935476D02*
X21747057Y-65887857D01*
X22651819Y-64935476D02*
X22651819Y-65506904D01*
X22651819Y-65221190D02*
X21651819Y-65221190D01*
X21651819Y-65221190D02*
X21794676Y-65316428D01*
X21794676Y-65316428D02*
X21889914Y-65411666D01*
X21889914Y-65411666D02*
X21937533Y-65506904D01*
X21651819Y-64078333D02*
X21651819Y-64268809D01*
X21651819Y-64268809D02*
X21699438Y-64364047D01*
X21699438Y-64364047D02*
X21747057Y-64411666D01*
X21747057Y-64411666D02*
X21889914Y-64506904D01*
X21889914Y-64506904D02*
X22080390Y-64554523D01*
X22080390Y-64554523D02*
X22461342Y-64554523D01*
X22461342Y-64554523D02*
X22556580Y-64506904D01*
X22556580Y-64506904D02*
X22604200Y-64459285D01*
X22604200Y-64459285D02*
X22651819Y-64364047D01*
X22651819Y-64364047D02*
X22651819Y-64173571D01*
X22651819Y-64173571D02*
X22604200Y-64078333D01*
X22604200Y-64078333D02*
X22556580Y-64030714D01*
X22556580Y-64030714D02*
X22461342Y-63983095D01*
X22461342Y-63983095D02*
X22223247Y-63983095D01*
X22223247Y-63983095D02*
X22128009Y-64030714D01*
X22128009Y-64030714D02*
X22080390Y-64078333D01*
X22080390Y-64078333D02*
X22032771Y-64173571D01*
X22032771Y-64173571D02*
X22032771Y-64364047D01*
X22032771Y-64364047D02*
X22080390Y-64459285D01*
X22080390Y-64459285D02*
X22128009Y-64506904D01*
X22128009Y-64506904D02*
X22223247Y-64554523D01*
X28042580Y-81710666D02*
X28090200Y-81758285D01*
X28090200Y-81758285D02*
X28137819Y-81901142D01*
X28137819Y-81901142D02*
X28137819Y-81996380D01*
X28137819Y-81996380D02*
X28090200Y-82139237D01*
X28090200Y-82139237D02*
X27994961Y-82234475D01*
X27994961Y-82234475D02*
X27899723Y-82282094D01*
X27899723Y-82282094D02*
X27709247Y-82329713D01*
X27709247Y-82329713D02*
X27566390Y-82329713D01*
X27566390Y-82329713D02*
X27375914Y-82282094D01*
X27375914Y-82282094D02*
X27280676Y-82234475D01*
X27280676Y-82234475D02*
X27185438Y-82139237D01*
X27185438Y-82139237D02*
X27137819Y-81996380D01*
X27137819Y-81996380D02*
X27137819Y-81901142D01*
X27137819Y-81901142D02*
X27185438Y-81758285D01*
X27185438Y-81758285D02*
X27233057Y-81710666D01*
X27137819Y-81377332D02*
X27137819Y-80710666D01*
X27137819Y-80710666D02*
X28137819Y-81139237D01*
X54741628Y-79458690D02*
X55217819Y-79458690D01*
X54217819Y-79792023D02*
X54741628Y-79458690D01*
X54741628Y-79458690D02*
X54217819Y-79125357D01*
X55217819Y-78268214D02*
X55217819Y-78839642D01*
X55217819Y-78553928D02*
X54217819Y-78553928D01*
X54217819Y-78553928D02*
X54360676Y-78649166D01*
X54360676Y-78649166D02*
X54455914Y-78744404D01*
X54455914Y-78744404D02*
X54503533Y-78839642D01*
X48633142Y-38107580D02*
X48585523Y-38155200D01*
X48585523Y-38155200D02*
X48442666Y-38202819D01*
X48442666Y-38202819D02*
X48347428Y-38202819D01*
X48347428Y-38202819D02*
X48204571Y-38155200D01*
X48204571Y-38155200D02*
X48109333Y-38059961D01*
X48109333Y-38059961D02*
X48061714Y-37964723D01*
X48061714Y-37964723D02*
X48014095Y-37774247D01*
X48014095Y-37774247D02*
X48014095Y-37631390D01*
X48014095Y-37631390D02*
X48061714Y-37440914D01*
X48061714Y-37440914D02*
X48109333Y-37345676D01*
X48109333Y-37345676D02*
X48204571Y-37250438D01*
X48204571Y-37250438D02*
X48347428Y-37202819D01*
X48347428Y-37202819D02*
X48442666Y-37202819D01*
X48442666Y-37202819D02*
X48585523Y-37250438D01*
X48585523Y-37250438D02*
X48633142Y-37298057D01*
X49585523Y-38202819D02*
X49014095Y-38202819D01*
X49299809Y-38202819D02*
X49299809Y-37202819D01*
X49299809Y-37202819D02*
X49204571Y-37345676D01*
X49204571Y-37345676D02*
X49109333Y-37440914D01*
X49109333Y-37440914D02*
X49014095Y-37488533D01*
X50442666Y-37536152D02*
X50442666Y-38202819D01*
X50204571Y-37155200D02*
X49966476Y-37869485D01*
X49966476Y-37869485D02*
X50585523Y-37869485D01*
X51624333Y-23440819D02*
X51291000Y-22964628D01*
X51052905Y-23440819D02*
X51052905Y-22440819D01*
X51052905Y-22440819D02*
X51433857Y-22440819D01*
X51433857Y-22440819D02*
X51529095Y-22488438D01*
X51529095Y-22488438D02*
X51576714Y-22536057D01*
X51576714Y-22536057D02*
X51624333Y-22631295D01*
X51624333Y-22631295D02*
X51624333Y-22774152D01*
X51624333Y-22774152D02*
X51576714Y-22869390D01*
X51576714Y-22869390D02*
X51529095Y-22917009D01*
X51529095Y-22917009D02*
X51433857Y-22964628D01*
X51433857Y-22964628D02*
X51052905Y-22964628D01*
X52100524Y-23440819D02*
X52291000Y-23440819D01*
X52291000Y-23440819D02*
X52386238Y-23393200D01*
X52386238Y-23393200D02*
X52433857Y-23345580D01*
X52433857Y-23345580D02*
X52529095Y-23202723D01*
X52529095Y-23202723D02*
X52576714Y-23012247D01*
X52576714Y-23012247D02*
X52576714Y-22631295D01*
X52576714Y-22631295D02*
X52529095Y-22536057D01*
X52529095Y-22536057D02*
X52481476Y-22488438D01*
X52481476Y-22488438D02*
X52386238Y-22440819D01*
X52386238Y-22440819D02*
X52195762Y-22440819D01*
X52195762Y-22440819D02*
X52100524Y-22488438D01*
X52100524Y-22488438D02*
X52052905Y-22536057D01*
X52052905Y-22536057D02*
X52005286Y-22631295D01*
X52005286Y-22631295D02*
X52005286Y-22869390D01*
X52005286Y-22869390D02*
X52052905Y-22964628D01*
X52052905Y-22964628D02*
X52100524Y-23012247D01*
X52100524Y-23012247D02*
X52195762Y-23059866D01*
X52195762Y-23059866D02*
X52386238Y-23059866D01*
X52386238Y-23059866D02*
X52481476Y-23012247D01*
X52481476Y-23012247D02*
X52529095Y-22964628D01*
X52529095Y-22964628D02*
X52576714Y-22869390D01*
X45540819Y-70270666D02*
X45064628Y-70603999D01*
X45540819Y-70842094D02*
X44540819Y-70842094D01*
X44540819Y-70842094D02*
X44540819Y-70461142D01*
X44540819Y-70461142D02*
X44588438Y-70365904D01*
X44588438Y-70365904D02*
X44636057Y-70318285D01*
X44636057Y-70318285D02*
X44731295Y-70270666D01*
X44731295Y-70270666D02*
X44874152Y-70270666D01*
X44874152Y-70270666D02*
X44969390Y-70318285D01*
X44969390Y-70318285D02*
X45017009Y-70365904D01*
X45017009Y-70365904D02*
X45064628Y-70461142D01*
X45064628Y-70461142D02*
X45064628Y-70842094D01*
X44969390Y-69699237D02*
X44921771Y-69794475D01*
X44921771Y-69794475D02*
X44874152Y-69842094D01*
X44874152Y-69842094D02*
X44778914Y-69889713D01*
X44778914Y-69889713D02*
X44731295Y-69889713D01*
X44731295Y-69889713D02*
X44636057Y-69842094D01*
X44636057Y-69842094D02*
X44588438Y-69794475D01*
X44588438Y-69794475D02*
X44540819Y-69699237D01*
X44540819Y-69699237D02*
X44540819Y-69508761D01*
X44540819Y-69508761D02*
X44588438Y-69413523D01*
X44588438Y-69413523D02*
X44636057Y-69365904D01*
X44636057Y-69365904D02*
X44731295Y-69318285D01*
X44731295Y-69318285D02*
X44778914Y-69318285D01*
X44778914Y-69318285D02*
X44874152Y-69365904D01*
X44874152Y-69365904D02*
X44921771Y-69413523D01*
X44921771Y-69413523D02*
X44969390Y-69508761D01*
X44969390Y-69508761D02*
X44969390Y-69699237D01*
X44969390Y-69699237D02*
X45017009Y-69794475D01*
X45017009Y-69794475D02*
X45064628Y-69842094D01*
X45064628Y-69842094D02*
X45159866Y-69889713D01*
X45159866Y-69889713D02*
X45350342Y-69889713D01*
X45350342Y-69889713D02*
X45445580Y-69842094D01*
X45445580Y-69842094D02*
X45493200Y-69794475D01*
X45493200Y-69794475D02*
X45540819Y-69699237D01*
X45540819Y-69699237D02*
X45540819Y-69508761D01*
X45540819Y-69508761D02*
X45493200Y-69413523D01*
X45493200Y-69413523D02*
X45445580Y-69365904D01*
X45445580Y-69365904D02*
X45350342Y-69318285D01*
X45350342Y-69318285D02*
X45159866Y-69318285D01*
X45159866Y-69318285D02*
X45064628Y-69365904D01*
X45064628Y-69365904D02*
X45017009Y-69413523D01*
X45017009Y-69413523D02*
X44969390Y-69508761D01*
X44708333Y-30329819D02*
X44375000Y-29853628D01*
X44136905Y-30329819D02*
X44136905Y-29329819D01*
X44136905Y-29329819D02*
X44517857Y-29329819D01*
X44517857Y-29329819D02*
X44613095Y-29377438D01*
X44613095Y-29377438D02*
X44660714Y-29425057D01*
X44660714Y-29425057D02*
X44708333Y-29520295D01*
X44708333Y-29520295D02*
X44708333Y-29663152D01*
X44708333Y-29663152D02*
X44660714Y-29758390D01*
X44660714Y-29758390D02*
X44613095Y-29806009D01*
X44613095Y-29806009D02*
X44517857Y-29853628D01*
X44517857Y-29853628D02*
X44136905Y-29853628D01*
X45565476Y-29329819D02*
X45375000Y-29329819D01*
X45375000Y-29329819D02*
X45279762Y-29377438D01*
X45279762Y-29377438D02*
X45232143Y-29425057D01*
X45232143Y-29425057D02*
X45136905Y-29567914D01*
X45136905Y-29567914D02*
X45089286Y-29758390D01*
X45089286Y-29758390D02*
X45089286Y-30139342D01*
X45089286Y-30139342D02*
X45136905Y-30234580D01*
X45136905Y-30234580D02*
X45184524Y-30282200D01*
X45184524Y-30282200D02*
X45279762Y-30329819D01*
X45279762Y-30329819D02*
X45470238Y-30329819D01*
X45470238Y-30329819D02*
X45565476Y-30282200D01*
X45565476Y-30282200D02*
X45613095Y-30234580D01*
X45613095Y-30234580D02*
X45660714Y-30139342D01*
X45660714Y-30139342D02*
X45660714Y-29901247D01*
X45660714Y-29901247D02*
X45613095Y-29806009D01*
X45613095Y-29806009D02*
X45565476Y-29758390D01*
X45565476Y-29758390D02*
X45470238Y-29710771D01*
X45470238Y-29710771D02*
X45279762Y-29710771D01*
X45279762Y-29710771D02*
X45184524Y-29758390D01*
X45184524Y-29758390D02*
X45136905Y-29806009D01*
X45136905Y-29806009D02*
X45089286Y-29901247D01*
X40505142Y-45032819D02*
X40171809Y-44556628D01*
X39933714Y-45032819D02*
X39933714Y-44032819D01*
X39933714Y-44032819D02*
X40314666Y-44032819D01*
X40314666Y-44032819D02*
X40409904Y-44080438D01*
X40409904Y-44080438D02*
X40457523Y-44128057D01*
X40457523Y-44128057D02*
X40505142Y-44223295D01*
X40505142Y-44223295D02*
X40505142Y-44366152D01*
X40505142Y-44366152D02*
X40457523Y-44461390D01*
X40457523Y-44461390D02*
X40409904Y-44509009D01*
X40409904Y-44509009D02*
X40314666Y-44556628D01*
X40314666Y-44556628D02*
X39933714Y-44556628D01*
X41457523Y-45032819D02*
X40886095Y-45032819D01*
X41171809Y-45032819D02*
X41171809Y-44032819D01*
X41171809Y-44032819D02*
X41076571Y-44175676D01*
X41076571Y-44175676D02*
X40981333Y-44270914D01*
X40981333Y-44270914D02*
X40886095Y-44318533D01*
X42409904Y-45032819D02*
X41838476Y-45032819D01*
X42124190Y-45032819D02*
X42124190Y-44032819D01*
X42124190Y-44032819D02*
X42028952Y-44175676D01*
X42028952Y-44175676D02*
X41933714Y-44270914D01*
X41933714Y-44270914D02*
X41838476Y-44318533D01*
X46569333Y-81661080D02*
X46521714Y-81708700D01*
X46521714Y-81708700D02*
X46378857Y-81756319D01*
X46378857Y-81756319D02*
X46283619Y-81756319D01*
X46283619Y-81756319D02*
X46140762Y-81708700D01*
X46140762Y-81708700D02*
X46045524Y-81613461D01*
X46045524Y-81613461D02*
X45997905Y-81518223D01*
X45997905Y-81518223D02*
X45950286Y-81327747D01*
X45950286Y-81327747D02*
X45950286Y-81184890D01*
X45950286Y-81184890D02*
X45997905Y-80994414D01*
X45997905Y-80994414D02*
X46045524Y-80899176D01*
X46045524Y-80899176D02*
X46140762Y-80803938D01*
X46140762Y-80803938D02*
X46283619Y-80756319D01*
X46283619Y-80756319D02*
X46378857Y-80756319D01*
X46378857Y-80756319D02*
X46521714Y-80803938D01*
X46521714Y-80803938D02*
X46569333Y-80851557D01*
X46950286Y-80851557D02*
X46997905Y-80803938D01*
X46997905Y-80803938D02*
X47093143Y-80756319D01*
X47093143Y-80756319D02*
X47331238Y-80756319D01*
X47331238Y-80756319D02*
X47426476Y-80803938D01*
X47426476Y-80803938D02*
X47474095Y-80851557D01*
X47474095Y-80851557D02*
X47521714Y-80946795D01*
X47521714Y-80946795D02*
X47521714Y-81042033D01*
X47521714Y-81042033D02*
X47474095Y-81184890D01*
X47474095Y-81184890D02*
X46902667Y-81756319D01*
X46902667Y-81756319D02*
X47521714Y-81756319D01*
X26267580Y-50405357D02*
X26315200Y-50452976D01*
X26315200Y-50452976D02*
X26362819Y-50595833D01*
X26362819Y-50595833D02*
X26362819Y-50691071D01*
X26362819Y-50691071D02*
X26315200Y-50833928D01*
X26315200Y-50833928D02*
X26219961Y-50929166D01*
X26219961Y-50929166D02*
X26124723Y-50976785D01*
X26124723Y-50976785D02*
X25934247Y-51024404D01*
X25934247Y-51024404D02*
X25791390Y-51024404D01*
X25791390Y-51024404D02*
X25600914Y-50976785D01*
X25600914Y-50976785D02*
X25505676Y-50929166D01*
X25505676Y-50929166D02*
X25410438Y-50833928D01*
X25410438Y-50833928D02*
X25362819Y-50691071D01*
X25362819Y-50691071D02*
X25362819Y-50595833D01*
X25362819Y-50595833D02*
X25410438Y-50452976D01*
X25410438Y-50452976D02*
X25458057Y-50405357D01*
X26362819Y-49452976D02*
X26362819Y-50024404D01*
X26362819Y-49738690D02*
X25362819Y-49738690D01*
X25362819Y-49738690D02*
X25505676Y-49833928D01*
X25505676Y-49833928D02*
X25600914Y-49929166D01*
X25600914Y-49929166D02*
X25648533Y-50024404D01*
X26362819Y-48500595D02*
X26362819Y-49072023D01*
X26362819Y-48786309D02*
X25362819Y-48786309D01*
X25362819Y-48786309D02*
X25505676Y-48881547D01*
X25505676Y-48881547D02*
X25600914Y-48976785D01*
X25600914Y-48976785D02*
X25648533Y-49072023D01*
X19185142Y-20140819D02*
X18851809Y-19664628D01*
X18613714Y-20140819D02*
X18613714Y-19140819D01*
X18613714Y-19140819D02*
X18994666Y-19140819D01*
X18994666Y-19140819D02*
X19089904Y-19188438D01*
X19089904Y-19188438D02*
X19137523Y-19236057D01*
X19137523Y-19236057D02*
X19185142Y-19331295D01*
X19185142Y-19331295D02*
X19185142Y-19474152D01*
X19185142Y-19474152D02*
X19137523Y-19569390D01*
X19137523Y-19569390D02*
X19089904Y-19617009D01*
X19089904Y-19617009D02*
X18994666Y-19664628D01*
X18994666Y-19664628D02*
X18613714Y-19664628D01*
X20137523Y-20140819D02*
X19566095Y-20140819D01*
X19851809Y-20140819D02*
X19851809Y-19140819D01*
X19851809Y-19140819D02*
X19756571Y-19283676D01*
X19756571Y-19283676D02*
X19661333Y-19378914D01*
X19661333Y-19378914D02*
X19566095Y-19426533D01*
X20756571Y-19140819D02*
X20851809Y-19140819D01*
X20851809Y-19140819D02*
X20947047Y-19188438D01*
X20947047Y-19188438D02*
X20994666Y-19236057D01*
X20994666Y-19236057D02*
X21042285Y-19331295D01*
X21042285Y-19331295D02*
X21089904Y-19521771D01*
X21089904Y-19521771D02*
X21089904Y-19759866D01*
X21089904Y-19759866D02*
X21042285Y-19950342D01*
X21042285Y-19950342D02*
X20994666Y-20045580D01*
X20994666Y-20045580D02*
X20947047Y-20093200D01*
X20947047Y-20093200D02*
X20851809Y-20140819D01*
X20851809Y-20140819D02*
X20756571Y-20140819D01*
X20756571Y-20140819D02*
X20661333Y-20093200D01*
X20661333Y-20093200D02*
X20613714Y-20045580D01*
X20613714Y-20045580D02*
X20566095Y-19950342D01*
X20566095Y-19950342D02*
X20518476Y-19759866D01*
X20518476Y-19759866D02*
X20518476Y-19521771D01*
X20518476Y-19521771D02*
X20566095Y-19331295D01*
X20566095Y-19331295D02*
X20613714Y-19236057D01*
X20613714Y-19236057D02*
X20661333Y-19188438D01*
X20661333Y-19188438D02*
X20756571Y-19140819D01*
X44102580Y-89287666D02*
X44150200Y-89335285D01*
X44150200Y-89335285D02*
X44197819Y-89478142D01*
X44197819Y-89478142D02*
X44197819Y-89573380D01*
X44197819Y-89573380D02*
X44150200Y-89716237D01*
X44150200Y-89716237D02*
X44054961Y-89811475D01*
X44054961Y-89811475D02*
X43959723Y-89859094D01*
X43959723Y-89859094D02*
X43769247Y-89906713D01*
X43769247Y-89906713D02*
X43626390Y-89906713D01*
X43626390Y-89906713D02*
X43435914Y-89859094D01*
X43435914Y-89859094D02*
X43340676Y-89811475D01*
X43340676Y-89811475D02*
X43245438Y-89716237D01*
X43245438Y-89716237D02*
X43197819Y-89573380D01*
X43197819Y-89573380D02*
X43197819Y-89478142D01*
X43197819Y-89478142D02*
X43245438Y-89335285D01*
X43245438Y-89335285D02*
X43293057Y-89287666D01*
X43626390Y-88716237D02*
X43578771Y-88811475D01*
X43578771Y-88811475D02*
X43531152Y-88859094D01*
X43531152Y-88859094D02*
X43435914Y-88906713D01*
X43435914Y-88906713D02*
X43388295Y-88906713D01*
X43388295Y-88906713D02*
X43293057Y-88859094D01*
X43293057Y-88859094D02*
X43245438Y-88811475D01*
X43245438Y-88811475D02*
X43197819Y-88716237D01*
X43197819Y-88716237D02*
X43197819Y-88525761D01*
X43197819Y-88525761D02*
X43245438Y-88430523D01*
X43245438Y-88430523D02*
X43293057Y-88382904D01*
X43293057Y-88382904D02*
X43388295Y-88335285D01*
X43388295Y-88335285D02*
X43435914Y-88335285D01*
X43435914Y-88335285D02*
X43531152Y-88382904D01*
X43531152Y-88382904D02*
X43578771Y-88430523D01*
X43578771Y-88430523D02*
X43626390Y-88525761D01*
X43626390Y-88525761D02*
X43626390Y-88716237D01*
X43626390Y-88716237D02*
X43674009Y-88811475D01*
X43674009Y-88811475D02*
X43721628Y-88859094D01*
X43721628Y-88859094D02*
X43816866Y-88906713D01*
X43816866Y-88906713D02*
X44007342Y-88906713D01*
X44007342Y-88906713D02*
X44102580Y-88859094D01*
X44102580Y-88859094D02*
X44150200Y-88811475D01*
X44150200Y-88811475D02*
X44197819Y-88716237D01*
X44197819Y-88716237D02*
X44197819Y-88525761D01*
X44197819Y-88525761D02*
X44150200Y-88430523D01*
X44150200Y-88430523D02*
X44102580Y-88382904D01*
X44102580Y-88382904D02*
X44007342Y-88335285D01*
X44007342Y-88335285D02*
X43816866Y-88335285D01*
X43816866Y-88335285D02*
X43721628Y-88382904D01*
X43721628Y-88382904D02*
X43674009Y-88430523D01*
X43674009Y-88430523D02*
X43626390Y-88525761D01*
X44432142Y-38334580D02*
X44384523Y-38382200D01*
X44384523Y-38382200D02*
X44241666Y-38429819D01*
X44241666Y-38429819D02*
X44146428Y-38429819D01*
X44146428Y-38429819D02*
X44003571Y-38382200D01*
X44003571Y-38382200D02*
X43908333Y-38286961D01*
X43908333Y-38286961D02*
X43860714Y-38191723D01*
X43860714Y-38191723D02*
X43813095Y-38001247D01*
X43813095Y-38001247D02*
X43813095Y-37858390D01*
X43813095Y-37858390D02*
X43860714Y-37667914D01*
X43860714Y-37667914D02*
X43908333Y-37572676D01*
X43908333Y-37572676D02*
X44003571Y-37477438D01*
X44003571Y-37477438D02*
X44146428Y-37429819D01*
X44146428Y-37429819D02*
X44241666Y-37429819D01*
X44241666Y-37429819D02*
X44384523Y-37477438D01*
X44384523Y-37477438D02*
X44432142Y-37525057D01*
X45384523Y-38429819D02*
X44813095Y-38429819D01*
X45098809Y-38429819D02*
X45098809Y-37429819D01*
X45098809Y-37429819D02*
X45003571Y-37572676D01*
X45003571Y-37572676D02*
X44908333Y-37667914D01*
X44908333Y-37667914D02*
X44813095Y-37715533D01*
X46289285Y-37429819D02*
X45813095Y-37429819D01*
X45813095Y-37429819D02*
X45765476Y-37906009D01*
X45765476Y-37906009D02*
X45813095Y-37858390D01*
X45813095Y-37858390D02*
X45908333Y-37810771D01*
X45908333Y-37810771D02*
X46146428Y-37810771D01*
X46146428Y-37810771D02*
X46241666Y-37858390D01*
X46241666Y-37858390D02*
X46289285Y-37906009D01*
X46289285Y-37906009D02*
X46336904Y-38001247D01*
X46336904Y-38001247D02*
X46336904Y-38239342D01*
X46336904Y-38239342D02*
X46289285Y-38334580D01*
X46289285Y-38334580D02*
X46241666Y-38382200D01*
X46241666Y-38382200D02*
X46146428Y-38429819D01*
X46146428Y-38429819D02*
X45908333Y-38429819D01*
X45908333Y-38429819D02*
X45813095Y-38382200D01*
X45813095Y-38382200D02*
X45765476Y-38334580D01*
X58468580Y-50161357D02*
X58516200Y-50208976D01*
X58516200Y-50208976D02*
X58563819Y-50351833D01*
X58563819Y-50351833D02*
X58563819Y-50447071D01*
X58563819Y-50447071D02*
X58516200Y-50589928D01*
X58516200Y-50589928D02*
X58420961Y-50685166D01*
X58420961Y-50685166D02*
X58325723Y-50732785D01*
X58325723Y-50732785D02*
X58135247Y-50780404D01*
X58135247Y-50780404D02*
X57992390Y-50780404D01*
X57992390Y-50780404D02*
X57801914Y-50732785D01*
X57801914Y-50732785D02*
X57706676Y-50685166D01*
X57706676Y-50685166D02*
X57611438Y-50589928D01*
X57611438Y-50589928D02*
X57563819Y-50447071D01*
X57563819Y-50447071D02*
X57563819Y-50351833D01*
X57563819Y-50351833D02*
X57611438Y-50208976D01*
X57611438Y-50208976D02*
X57659057Y-50161357D01*
X58563819Y-49208976D02*
X58563819Y-49780404D01*
X58563819Y-49494690D02*
X57563819Y-49494690D01*
X57563819Y-49494690D02*
X57706676Y-49589928D01*
X57706676Y-49589928D02*
X57801914Y-49685166D01*
X57801914Y-49685166D02*
X57849533Y-49780404D01*
X57563819Y-48589928D02*
X57563819Y-48494690D01*
X57563819Y-48494690D02*
X57611438Y-48399452D01*
X57611438Y-48399452D02*
X57659057Y-48351833D01*
X57659057Y-48351833D02*
X57754295Y-48304214D01*
X57754295Y-48304214D02*
X57944771Y-48256595D01*
X57944771Y-48256595D02*
X58182866Y-48256595D01*
X58182866Y-48256595D02*
X58373342Y-48304214D01*
X58373342Y-48304214D02*
X58468580Y-48351833D01*
X58468580Y-48351833D02*
X58516200Y-48399452D01*
X58516200Y-48399452D02*
X58563819Y-48494690D01*
X58563819Y-48494690D02*
X58563819Y-48589928D01*
X58563819Y-48589928D02*
X58516200Y-48685166D01*
X58516200Y-48685166D02*
X58468580Y-48732785D01*
X58468580Y-48732785D02*
X58373342Y-48780404D01*
X58373342Y-48780404D02*
X58182866Y-48828023D01*
X58182866Y-48828023D02*
X57944771Y-48828023D01*
X57944771Y-48828023D02*
X57754295Y-48780404D01*
X57754295Y-48780404D02*
X57659057Y-48732785D01*
X57659057Y-48732785D02*
X57611438Y-48685166D01*
X57611438Y-48685166D02*
X57563819Y-48589928D01*
X24741333Y-34108819D02*
X24408000Y-33632628D01*
X24169905Y-34108819D02*
X24169905Y-33108819D01*
X24169905Y-33108819D02*
X24550857Y-33108819D01*
X24550857Y-33108819D02*
X24646095Y-33156438D01*
X24646095Y-33156438D02*
X24693714Y-33204057D01*
X24693714Y-33204057D02*
X24741333Y-33299295D01*
X24741333Y-33299295D02*
X24741333Y-33442152D01*
X24741333Y-33442152D02*
X24693714Y-33537390D01*
X24693714Y-33537390D02*
X24646095Y-33585009D01*
X24646095Y-33585009D02*
X24550857Y-33632628D01*
X24550857Y-33632628D02*
X24169905Y-33632628D01*
X25598476Y-33442152D02*
X25598476Y-34108819D01*
X25360381Y-33061200D02*
X25122286Y-33775485D01*
X25122286Y-33775485D02*
X25741333Y-33775485D01*
X28293819Y-77138666D02*
X27817628Y-77471999D01*
X28293819Y-77710094D02*
X27293819Y-77710094D01*
X27293819Y-77710094D02*
X27293819Y-77329142D01*
X27293819Y-77329142D02*
X27341438Y-77233904D01*
X27341438Y-77233904D02*
X27389057Y-77186285D01*
X27389057Y-77186285D02*
X27484295Y-77138666D01*
X27484295Y-77138666D02*
X27627152Y-77138666D01*
X27627152Y-77138666D02*
X27722390Y-77186285D01*
X27722390Y-77186285D02*
X27770009Y-77233904D01*
X27770009Y-77233904D02*
X27817628Y-77329142D01*
X27817628Y-77329142D02*
X27817628Y-77710094D01*
X27293819Y-76805332D02*
X27293819Y-76186285D01*
X27293819Y-76186285D02*
X27674771Y-76519618D01*
X27674771Y-76519618D02*
X27674771Y-76376761D01*
X27674771Y-76376761D02*
X27722390Y-76281523D01*
X27722390Y-76281523D02*
X27770009Y-76233904D01*
X27770009Y-76233904D02*
X27865247Y-76186285D01*
X27865247Y-76186285D02*
X28103342Y-76186285D01*
X28103342Y-76186285D02*
X28198580Y-76233904D01*
X28198580Y-76233904D02*
X28246200Y-76281523D01*
X28246200Y-76281523D02*
X28293819Y-76376761D01*
X28293819Y-76376761D02*
X28293819Y-76662475D01*
X28293819Y-76662475D02*
X28246200Y-76757713D01*
X28246200Y-76757713D02*
X28198580Y-76805332D01*
X49114833Y-30300819D02*
X48781500Y-29824628D01*
X48543405Y-30300819D02*
X48543405Y-29300819D01*
X48543405Y-29300819D02*
X48924357Y-29300819D01*
X48924357Y-29300819D02*
X49019595Y-29348438D01*
X49019595Y-29348438D02*
X49067214Y-29396057D01*
X49067214Y-29396057D02*
X49114833Y-29491295D01*
X49114833Y-29491295D02*
X49114833Y-29634152D01*
X49114833Y-29634152D02*
X49067214Y-29729390D01*
X49067214Y-29729390D02*
X49019595Y-29777009D01*
X49019595Y-29777009D02*
X48924357Y-29824628D01*
X48924357Y-29824628D02*
X48543405Y-29824628D01*
X50019595Y-29300819D02*
X49543405Y-29300819D01*
X49543405Y-29300819D02*
X49495786Y-29777009D01*
X49495786Y-29777009D02*
X49543405Y-29729390D01*
X49543405Y-29729390D02*
X49638643Y-29681771D01*
X49638643Y-29681771D02*
X49876738Y-29681771D01*
X49876738Y-29681771D02*
X49971976Y-29729390D01*
X49971976Y-29729390D02*
X50019595Y-29777009D01*
X50019595Y-29777009D02*
X50067214Y-29872247D01*
X50067214Y-29872247D02*
X50067214Y-30110342D01*
X50067214Y-30110342D02*
X50019595Y-30205580D01*
X50019595Y-30205580D02*
X49971976Y-30253200D01*
X49971976Y-30253200D02*
X49876738Y-30300819D01*
X49876738Y-30300819D02*
X49638643Y-30300819D01*
X49638643Y-30300819D02*
X49543405Y-30253200D01*
X49543405Y-30253200D02*
X49495786Y-30205580D01*
D10*
X51781666Y-60613842D02*
X51963095Y-60674318D01*
X51963095Y-60674318D02*
X52265476Y-60674318D01*
X52265476Y-60674318D02*
X52386428Y-60613842D01*
X52386428Y-60613842D02*
X52446904Y-60553365D01*
X52446904Y-60553365D02*
X52507381Y-60432413D01*
X52507381Y-60432413D02*
X52507381Y-60311461D01*
X52507381Y-60311461D02*
X52446904Y-60190508D01*
X52446904Y-60190508D02*
X52386428Y-60130032D01*
X52386428Y-60130032D02*
X52265476Y-60069556D01*
X52265476Y-60069556D02*
X52023571Y-60009080D01*
X52023571Y-60009080D02*
X51902619Y-59948603D01*
X51902619Y-59948603D02*
X51842142Y-59888127D01*
X51842142Y-59888127D02*
X51781666Y-59767175D01*
X51781666Y-59767175D02*
X51781666Y-59646222D01*
X51781666Y-59646222D02*
X51842142Y-59525270D01*
X51842142Y-59525270D02*
X51902619Y-59464794D01*
X51902619Y-59464794D02*
X52023571Y-59404318D01*
X52023571Y-59404318D02*
X52325952Y-59404318D01*
X52325952Y-59404318D02*
X52507381Y-59464794D01*
X52930714Y-59404318D02*
X53233095Y-60674318D01*
X53233095Y-60674318D02*
X53475000Y-59767175D01*
X53475000Y-59767175D02*
X53716905Y-60674318D01*
X53716905Y-60674318D02*
X54019286Y-59404318D01*
X55168334Y-60674318D02*
X54442619Y-60674318D01*
X54805476Y-60674318D02*
X54805476Y-59404318D01*
X54805476Y-59404318D02*
X54684524Y-59585746D01*
X54684524Y-59585746D02*
X54563572Y-59706699D01*
X54563572Y-59706699D02*
X54442619Y-59767175D01*
D12*
X34844476Y-47147395D02*
X34844476Y-47795014D01*
X34844476Y-47795014D02*
X34882571Y-47871204D01*
X34882571Y-47871204D02*
X34920666Y-47909300D01*
X34920666Y-47909300D02*
X34996857Y-47947395D01*
X34996857Y-47947395D02*
X35149238Y-47947395D01*
X35149238Y-47947395D02*
X35225428Y-47909300D01*
X35225428Y-47909300D02*
X35263523Y-47871204D01*
X35263523Y-47871204D02*
X35301619Y-47795014D01*
X35301619Y-47795014D02*
X35301619Y-47147395D01*
X35644475Y-47223585D02*
X35682571Y-47185490D01*
X35682571Y-47185490D02*
X35758761Y-47147395D01*
X35758761Y-47147395D02*
X35949237Y-47147395D01*
X35949237Y-47147395D02*
X36025428Y-47185490D01*
X36025428Y-47185490D02*
X36063523Y-47223585D01*
X36063523Y-47223585D02*
X36101618Y-47299776D01*
X36101618Y-47299776D02*
X36101618Y-47375966D01*
X36101618Y-47375966D02*
X36063523Y-47490252D01*
X36063523Y-47490252D02*
X35606380Y-47947395D01*
X35606380Y-47947395D02*
X36101618Y-47947395D01*
X27805142Y-58935580D02*
X27757523Y-58983200D01*
X27757523Y-58983200D02*
X27614666Y-59030819D01*
X27614666Y-59030819D02*
X27519428Y-59030819D01*
X27519428Y-59030819D02*
X27376571Y-58983200D01*
X27376571Y-58983200D02*
X27281333Y-58887961D01*
X27281333Y-58887961D02*
X27233714Y-58792723D01*
X27233714Y-58792723D02*
X27186095Y-58602247D01*
X27186095Y-58602247D02*
X27186095Y-58459390D01*
X27186095Y-58459390D02*
X27233714Y-58268914D01*
X27233714Y-58268914D02*
X27281333Y-58173676D01*
X27281333Y-58173676D02*
X27376571Y-58078438D01*
X27376571Y-58078438D02*
X27519428Y-58030819D01*
X27519428Y-58030819D02*
X27614666Y-58030819D01*
X27614666Y-58030819D02*
X27757523Y-58078438D01*
X27757523Y-58078438D02*
X27805142Y-58126057D01*
X28186095Y-58126057D02*
X28233714Y-58078438D01*
X28233714Y-58078438D02*
X28328952Y-58030819D01*
X28328952Y-58030819D02*
X28567047Y-58030819D01*
X28567047Y-58030819D02*
X28662285Y-58078438D01*
X28662285Y-58078438D02*
X28709904Y-58126057D01*
X28709904Y-58126057D02*
X28757523Y-58221295D01*
X28757523Y-58221295D02*
X28757523Y-58316533D01*
X28757523Y-58316533D02*
X28709904Y-58459390D01*
X28709904Y-58459390D02*
X28138476Y-59030819D01*
X28138476Y-59030819D02*
X28757523Y-59030819D01*
X29376571Y-58030819D02*
X29471809Y-58030819D01*
X29471809Y-58030819D02*
X29567047Y-58078438D01*
X29567047Y-58078438D02*
X29614666Y-58126057D01*
X29614666Y-58126057D02*
X29662285Y-58221295D01*
X29662285Y-58221295D02*
X29709904Y-58411771D01*
X29709904Y-58411771D02*
X29709904Y-58649866D01*
X29709904Y-58649866D02*
X29662285Y-58840342D01*
X29662285Y-58840342D02*
X29614666Y-58935580D01*
X29614666Y-58935580D02*
X29567047Y-58983200D01*
X29567047Y-58983200D02*
X29471809Y-59030819D01*
X29471809Y-59030819D02*
X29376571Y-59030819D01*
X29376571Y-59030819D02*
X29281333Y-58983200D01*
X29281333Y-58983200D02*
X29233714Y-58935580D01*
X29233714Y-58935580D02*
X29186095Y-58840342D01*
X29186095Y-58840342D02*
X29138476Y-58649866D01*
X29138476Y-58649866D02*
X29138476Y-58411771D01*
X29138476Y-58411771D02*
X29186095Y-58221295D01*
X29186095Y-58221295D02*
X29233714Y-58126057D01*
X29233714Y-58126057D02*
X29281333Y-58078438D01*
X29281333Y-58078438D02*
X29376571Y-58030819D01*
X47658580Y-86769166D02*
X47706200Y-86816785D01*
X47706200Y-86816785D02*
X47753819Y-86959642D01*
X47753819Y-86959642D02*
X47753819Y-87054880D01*
X47753819Y-87054880D02*
X47706200Y-87197737D01*
X47706200Y-87197737D02*
X47610961Y-87292975D01*
X47610961Y-87292975D02*
X47515723Y-87340594D01*
X47515723Y-87340594D02*
X47325247Y-87388213D01*
X47325247Y-87388213D02*
X47182390Y-87388213D01*
X47182390Y-87388213D02*
X46991914Y-87340594D01*
X46991914Y-87340594D02*
X46896676Y-87292975D01*
X46896676Y-87292975D02*
X46801438Y-87197737D01*
X46801438Y-87197737D02*
X46753819Y-87054880D01*
X46753819Y-87054880D02*
X46753819Y-86959642D01*
X46753819Y-86959642D02*
X46801438Y-86816785D01*
X46801438Y-86816785D02*
X46849057Y-86769166D01*
X46753819Y-86435832D02*
X46753819Y-85816785D01*
X46753819Y-85816785D02*
X47134771Y-86150118D01*
X47134771Y-86150118D02*
X47134771Y-86007261D01*
X47134771Y-86007261D02*
X47182390Y-85912023D01*
X47182390Y-85912023D02*
X47230009Y-85864404D01*
X47230009Y-85864404D02*
X47325247Y-85816785D01*
X47325247Y-85816785D02*
X47563342Y-85816785D01*
X47563342Y-85816785D02*
X47658580Y-85864404D01*
X47658580Y-85864404D02*
X47706200Y-85912023D01*
X47706200Y-85912023D02*
X47753819Y-86007261D01*
X47753819Y-86007261D02*
X47753819Y-86292975D01*
X47753819Y-86292975D02*
X47706200Y-86388213D01*
X47706200Y-86388213D02*
X47658580Y-86435832D01*
X32102833Y-70870580D02*
X32055214Y-70918200D01*
X32055214Y-70918200D02*
X31912357Y-70965819D01*
X31912357Y-70965819D02*
X31817119Y-70965819D01*
X31817119Y-70965819D02*
X31674262Y-70918200D01*
X31674262Y-70918200D02*
X31579024Y-70822961D01*
X31579024Y-70822961D02*
X31531405Y-70727723D01*
X31531405Y-70727723D02*
X31483786Y-70537247D01*
X31483786Y-70537247D02*
X31483786Y-70394390D01*
X31483786Y-70394390D02*
X31531405Y-70203914D01*
X31531405Y-70203914D02*
X31579024Y-70108676D01*
X31579024Y-70108676D02*
X31674262Y-70013438D01*
X31674262Y-70013438D02*
X31817119Y-69965819D01*
X31817119Y-69965819D02*
X31912357Y-69965819D01*
X31912357Y-69965819D02*
X32055214Y-70013438D01*
X32055214Y-70013438D02*
X32102833Y-70061057D01*
X33007595Y-69965819D02*
X32531405Y-69965819D01*
X32531405Y-69965819D02*
X32483786Y-70442009D01*
X32483786Y-70442009D02*
X32531405Y-70394390D01*
X32531405Y-70394390D02*
X32626643Y-70346771D01*
X32626643Y-70346771D02*
X32864738Y-70346771D01*
X32864738Y-70346771D02*
X32959976Y-70394390D01*
X32959976Y-70394390D02*
X33007595Y-70442009D01*
X33007595Y-70442009D02*
X33055214Y-70537247D01*
X33055214Y-70537247D02*
X33055214Y-70775342D01*
X33055214Y-70775342D02*
X33007595Y-70870580D01*
X33007595Y-70870580D02*
X32959976Y-70918200D01*
X32959976Y-70918200D02*
X32864738Y-70965819D01*
X32864738Y-70965819D02*
X32626643Y-70965819D01*
X32626643Y-70965819D02*
X32531405Y-70918200D01*
X32531405Y-70918200D02*
X32483786Y-70870580D01*
X15765819Y-65433166D02*
X15289628Y-65766499D01*
X15765819Y-66004594D02*
X14765819Y-66004594D01*
X14765819Y-66004594D02*
X14765819Y-65623642D01*
X14765819Y-65623642D02*
X14813438Y-65528404D01*
X14813438Y-65528404D02*
X14861057Y-65480785D01*
X14861057Y-65480785D02*
X14956295Y-65433166D01*
X14956295Y-65433166D02*
X15099152Y-65433166D01*
X15099152Y-65433166D02*
X15194390Y-65480785D01*
X15194390Y-65480785D02*
X15242009Y-65528404D01*
X15242009Y-65528404D02*
X15289628Y-65623642D01*
X15289628Y-65623642D02*
X15289628Y-66004594D01*
X14765819Y-65099832D02*
X14765819Y-64433166D01*
X14765819Y-64433166D02*
X15765819Y-64861737D01*
X13411580Y-50426857D02*
X13459200Y-50474476D01*
X13459200Y-50474476D02*
X13506819Y-50617333D01*
X13506819Y-50617333D02*
X13506819Y-50712571D01*
X13506819Y-50712571D02*
X13459200Y-50855428D01*
X13459200Y-50855428D02*
X13363961Y-50950666D01*
X13363961Y-50950666D02*
X13268723Y-50998285D01*
X13268723Y-50998285D02*
X13078247Y-51045904D01*
X13078247Y-51045904D02*
X12935390Y-51045904D01*
X12935390Y-51045904D02*
X12744914Y-50998285D01*
X12744914Y-50998285D02*
X12649676Y-50950666D01*
X12649676Y-50950666D02*
X12554438Y-50855428D01*
X12554438Y-50855428D02*
X12506819Y-50712571D01*
X12506819Y-50712571D02*
X12506819Y-50617333D01*
X12506819Y-50617333D02*
X12554438Y-50474476D01*
X12554438Y-50474476D02*
X12602057Y-50426857D01*
X13506819Y-49474476D02*
X13506819Y-50045904D01*
X13506819Y-49760190D02*
X12506819Y-49760190D01*
X12506819Y-49760190D02*
X12649676Y-49855428D01*
X12649676Y-49855428D02*
X12744914Y-49950666D01*
X12744914Y-49950666D02*
X12792533Y-50045904D01*
X12602057Y-49093523D02*
X12554438Y-49045904D01*
X12554438Y-49045904D02*
X12506819Y-48950666D01*
X12506819Y-48950666D02*
X12506819Y-48712571D01*
X12506819Y-48712571D02*
X12554438Y-48617333D01*
X12554438Y-48617333D02*
X12602057Y-48569714D01*
X12602057Y-48569714D02*
X12697295Y-48522095D01*
X12697295Y-48522095D02*
X12792533Y-48522095D01*
X12792533Y-48522095D02*
X12935390Y-48569714D01*
X12935390Y-48569714D02*
X13506819Y-49141142D01*
X13506819Y-49141142D02*
X13506819Y-48522095D01*
X37684580Y-90016666D02*
X37732200Y-90064285D01*
X37732200Y-90064285D02*
X37779819Y-90207142D01*
X37779819Y-90207142D02*
X37779819Y-90302380D01*
X37779819Y-90302380D02*
X37732200Y-90445237D01*
X37732200Y-90445237D02*
X37636961Y-90540475D01*
X37636961Y-90540475D02*
X37541723Y-90588094D01*
X37541723Y-90588094D02*
X37351247Y-90635713D01*
X37351247Y-90635713D02*
X37208390Y-90635713D01*
X37208390Y-90635713D02*
X37017914Y-90588094D01*
X37017914Y-90588094D02*
X36922676Y-90540475D01*
X36922676Y-90540475D02*
X36827438Y-90445237D01*
X36827438Y-90445237D02*
X36779819Y-90302380D01*
X36779819Y-90302380D02*
X36779819Y-90207142D01*
X36779819Y-90207142D02*
X36827438Y-90064285D01*
X36827438Y-90064285D02*
X36875057Y-90016666D01*
X37113152Y-89159523D02*
X37779819Y-89159523D01*
X36732200Y-89397618D02*
X37446485Y-89635713D01*
X37446485Y-89635713D02*
X37446485Y-89016666D01*
X34054819Y-68666666D02*
X33578628Y-68999999D01*
X34054819Y-69238094D02*
X33054819Y-69238094D01*
X33054819Y-69238094D02*
X33054819Y-68857142D01*
X33054819Y-68857142D02*
X33102438Y-68761904D01*
X33102438Y-68761904D02*
X33150057Y-68714285D01*
X33150057Y-68714285D02*
X33245295Y-68666666D01*
X33245295Y-68666666D02*
X33388152Y-68666666D01*
X33388152Y-68666666D02*
X33483390Y-68714285D01*
X33483390Y-68714285D02*
X33531009Y-68761904D01*
X33531009Y-68761904D02*
X33578628Y-68857142D01*
X33578628Y-68857142D02*
X33578628Y-69238094D01*
X33150057Y-68285713D02*
X33102438Y-68238094D01*
X33102438Y-68238094D02*
X33054819Y-68142856D01*
X33054819Y-68142856D02*
X33054819Y-67904761D01*
X33054819Y-67904761D02*
X33102438Y-67809523D01*
X33102438Y-67809523D02*
X33150057Y-67761904D01*
X33150057Y-67761904D02*
X33245295Y-67714285D01*
X33245295Y-67714285D02*
X33340533Y-67714285D01*
X33340533Y-67714285D02*
X33483390Y-67761904D01*
X33483390Y-67761904D02*
X34054819Y-68333332D01*
X34054819Y-68333332D02*
X34054819Y-67714285D01*
X27805142Y-55379580D02*
X27757523Y-55427200D01*
X27757523Y-55427200D02*
X27614666Y-55474819D01*
X27614666Y-55474819D02*
X27519428Y-55474819D01*
X27519428Y-55474819D02*
X27376571Y-55427200D01*
X27376571Y-55427200D02*
X27281333Y-55331961D01*
X27281333Y-55331961D02*
X27233714Y-55236723D01*
X27233714Y-55236723D02*
X27186095Y-55046247D01*
X27186095Y-55046247D02*
X27186095Y-54903390D01*
X27186095Y-54903390D02*
X27233714Y-54712914D01*
X27233714Y-54712914D02*
X27281333Y-54617676D01*
X27281333Y-54617676D02*
X27376571Y-54522438D01*
X27376571Y-54522438D02*
X27519428Y-54474819D01*
X27519428Y-54474819D02*
X27614666Y-54474819D01*
X27614666Y-54474819D02*
X27757523Y-54522438D01*
X27757523Y-54522438D02*
X27805142Y-54570057D01*
X28757523Y-55474819D02*
X28186095Y-55474819D01*
X28471809Y-55474819D02*
X28471809Y-54474819D01*
X28471809Y-54474819D02*
X28376571Y-54617676D01*
X28376571Y-54617676D02*
X28281333Y-54712914D01*
X28281333Y-54712914D02*
X28186095Y-54760533D01*
X29233714Y-55474819D02*
X29424190Y-55474819D01*
X29424190Y-55474819D02*
X29519428Y-55427200D01*
X29519428Y-55427200D02*
X29567047Y-55379580D01*
X29567047Y-55379580D02*
X29662285Y-55236723D01*
X29662285Y-55236723D02*
X29709904Y-55046247D01*
X29709904Y-55046247D02*
X29709904Y-54665295D01*
X29709904Y-54665295D02*
X29662285Y-54570057D01*
X29662285Y-54570057D02*
X29614666Y-54522438D01*
X29614666Y-54522438D02*
X29519428Y-54474819D01*
X29519428Y-54474819D02*
X29328952Y-54474819D01*
X29328952Y-54474819D02*
X29233714Y-54522438D01*
X29233714Y-54522438D02*
X29186095Y-54570057D01*
X29186095Y-54570057D02*
X29138476Y-54665295D01*
X29138476Y-54665295D02*
X29138476Y-54903390D01*
X29138476Y-54903390D02*
X29186095Y-54998628D01*
X29186095Y-54998628D02*
X29233714Y-55046247D01*
X29233714Y-55046247D02*
X29328952Y-55093866D01*
X29328952Y-55093866D02*
X29519428Y-55093866D01*
X29519428Y-55093866D02*
X29614666Y-55046247D01*
X29614666Y-55046247D02*
X29662285Y-54998628D01*
X29662285Y-54998628D02*
X29709904Y-54903390D01*
X49040142Y-65118080D02*
X48992523Y-65165700D01*
X48992523Y-65165700D02*
X48849666Y-65213319D01*
X48849666Y-65213319D02*
X48754428Y-65213319D01*
X48754428Y-65213319D02*
X48611571Y-65165700D01*
X48611571Y-65165700D02*
X48516333Y-65070461D01*
X48516333Y-65070461D02*
X48468714Y-64975223D01*
X48468714Y-64975223D02*
X48421095Y-64784747D01*
X48421095Y-64784747D02*
X48421095Y-64641890D01*
X48421095Y-64641890D02*
X48468714Y-64451414D01*
X48468714Y-64451414D02*
X48516333Y-64356176D01*
X48516333Y-64356176D02*
X48611571Y-64260938D01*
X48611571Y-64260938D02*
X48754428Y-64213319D01*
X48754428Y-64213319D02*
X48849666Y-64213319D01*
X48849666Y-64213319D02*
X48992523Y-64260938D01*
X48992523Y-64260938D02*
X49040142Y-64308557D01*
X49992523Y-65213319D02*
X49421095Y-65213319D01*
X49706809Y-65213319D02*
X49706809Y-64213319D01*
X49706809Y-64213319D02*
X49611571Y-64356176D01*
X49611571Y-64356176D02*
X49516333Y-64451414D01*
X49516333Y-64451414D02*
X49421095Y-64499033D01*
X50563952Y-64641890D02*
X50468714Y-64594271D01*
X50468714Y-64594271D02*
X50421095Y-64546652D01*
X50421095Y-64546652D02*
X50373476Y-64451414D01*
X50373476Y-64451414D02*
X50373476Y-64403795D01*
X50373476Y-64403795D02*
X50421095Y-64308557D01*
X50421095Y-64308557D02*
X50468714Y-64260938D01*
X50468714Y-64260938D02*
X50563952Y-64213319D01*
X50563952Y-64213319D02*
X50754428Y-64213319D01*
X50754428Y-64213319D02*
X50849666Y-64260938D01*
X50849666Y-64260938D02*
X50897285Y-64308557D01*
X50897285Y-64308557D02*
X50944904Y-64403795D01*
X50944904Y-64403795D02*
X50944904Y-64451414D01*
X50944904Y-64451414D02*
X50897285Y-64546652D01*
X50897285Y-64546652D02*
X50849666Y-64594271D01*
X50849666Y-64594271D02*
X50754428Y-64641890D01*
X50754428Y-64641890D02*
X50563952Y-64641890D01*
X50563952Y-64641890D02*
X50468714Y-64689509D01*
X50468714Y-64689509D02*
X50421095Y-64737128D01*
X50421095Y-64737128D02*
X50373476Y-64832366D01*
X50373476Y-64832366D02*
X50373476Y-65022842D01*
X50373476Y-65022842D02*
X50421095Y-65118080D01*
X50421095Y-65118080D02*
X50468714Y-65165700D01*
X50468714Y-65165700D02*
X50563952Y-65213319D01*
X50563952Y-65213319D02*
X50754428Y-65213319D01*
X50754428Y-65213319D02*
X50849666Y-65165700D01*
X50849666Y-65165700D02*
X50897285Y-65118080D01*
X50897285Y-65118080D02*
X50944904Y-65022842D01*
X50944904Y-65022842D02*
X50944904Y-64832366D01*
X50944904Y-64832366D02*
X50897285Y-64737128D01*
X50897285Y-64737128D02*
X50849666Y-64689509D01*
X50849666Y-64689509D02*
X50754428Y-64641890D01*
X40234580Y-70005166D02*
X40282200Y-70052785D01*
X40282200Y-70052785D02*
X40329819Y-70195642D01*
X40329819Y-70195642D02*
X40329819Y-70290880D01*
X40329819Y-70290880D02*
X40282200Y-70433737D01*
X40282200Y-70433737D02*
X40186961Y-70528975D01*
X40186961Y-70528975D02*
X40091723Y-70576594D01*
X40091723Y-70576594D02*
X39901247Y-70624213D01*
X39901247Y-70624213D02*
X39758390Y-70624213D01*
X39758390Y-70624213D02*
X39567914Y-70576594D01*
X39567914Y-70576594D02*
X39472676Y-70528975D01*
X39472676Y-70528975D02*
X39377438Y-70433737D01*
X39377438Y-70433737D02*
X39329819Y-70290880D01*
X39329819Y-70290880D02*
X39329819Y-70195642D01*
X39329819Y-70195642D02*
X39377438Y-70052785D01*
X39377438Y-70052785D02*
X39425057Y-70005166D01*
X39329819Y-69148023D02*
X39329819Y-69338499D01*
X39329819Y-69338499D02*
X39377438Y-69433737D01*
X39377438Y-69433737D02*
X39425057Y-69481356D01*
X39425057Y-69481356D02*
X39567914Y-69576594D01*
X39567914Y-69576594D02*
X39758390Y-69624213D01*
X39758390Y-69624213D02*
X40139342Y-69624213D01*
X40139342Y-69624213D02*
X40234580Y-69576594D01*
X40234580Y-69576594D02*
X40282200Y-69528975D01*
X40282200Y-69528975D02*
X40329819Y-69433737D01*
X40329819Y-69433737D02*
X40329819Y-69243261D01*
X40329819Y-69243261D02*
X40282200Y-69148023D01*
X40282200Y-69148023D02*
X40234580Y-69100404D01*
X40234580Y-69100404D02*
X40139342Y-69052785D01*
X40139342Y-69052785D02*
X39901247Y-69052785D01*
X39901247Y-69052785D02*
X39806009Y-69100404D01*
X39806009Y-69100404D02*
X39758390Y-69148023D01*
X39758390Y-69148023D02*
X39710771Y-69243261D01*
X39710771Y-69243261D02*
X39710771Y-69433737D01*
X39710771Y-69433737D02*
X39758390Y-69528975D01*
X39758390Y-69528975D02*
X39806009Y-69576594D01*
X39806009Y-69576594D02*
X39901247Y-69624213D01*
X45029580Y-74406666D02*
X45077200Y-74454285D01*
X45077200Y-74454285D02*
X45124819Y-74597142D01*
X45124819Y-74597142D02*
X45124819Y-74692380D01*
X45124819Y-74692380D02*
X45077200Y-74835237D01*
X45077200Y-74835237D02*
X44981961Y-74930475D01*
X44981961Y-74930475D02*
X44886723Y-74978094D01*
X44886723Y-74978094D02*
X44696247Y-75025713D01*
X44696247Y-75025713D02*
X44553390Y-75025713D01*
X44553390Y-75025713D02*
X44362914Y-74978094D01*
X44362914Y-74978094D02*
X44267676Y-74930475D01*
X44267676Y-74930475D02*
X44172438Y-74835237D01*
X44172438Y-74835237D02*
X44124819Y-74692380D01*
X44124819Y-74692380D02*
X44124819Y-74597142D01*
X44124819Y-74597142D02*
X44172438Y-74454285D01*
X44172438Y-74454285D02*
X44220057Y-74406666D01*
X45124819Y-73454285D02*
X45124819Y-74025713D01*
X45124819Y-73739999D02*
X44124819Y-73739999D01*
X44124819Y-73739999D02*
X44267676Y-73835237D01*
X44267676Y-73835237D02*
X44362914Y-73930475D01*
X44362914Y-73930475D02*
X44410533Y-74025713D01*
D10*
X16606666Y-61013842D02*
X16788095Y-61074318D01*
X16788095Y-61074318D02*
X17090476Y-61074318D01*
X17090476Y-61074318D02*
X17211428Y-61013842D01*
X17211428Y-61013842D02*
X17271904Y-60953365D01*
X17271904Y-60953365D02*
X17332381Y-60832413D01*
X17332381Y-60832413D02*
X17332381Y-60711461D01*
X17332381Y-60711461D02*
X17271904Y-60590508D01*
X17271904Y-60590508D02*
X17211428Y-60530032D01*
X17211428Y-60530032D02*
X17090476Y-60469556D01*
X17090476Y-60469556D02*
X16848571Y-60409080D01*
X16848571Y-60409080D02*
X16727619Y-60348603D01*
X16727619Y-60348603D02*
X16667142Y-60288127D01*
X16667142Y-60288127D02*
X16606666Y-60167175D01*
X16606666Y-60167175D02*
X16606666Y-60046222D01*
X16606666Y-60046222D02*
X16667142Y-59925270D01*
X16667142Y-59925270D02*
X16727619Y-59864794D01*
X16727619Y-59864794D02*
X16848571Y-59804318D01*
X16848571Y-59804318D02*
X17150952Y-59804318D01*
X17150952Y-59804318D02*
X17332381Y-59864794D01*
X17755714Y-59804318D02*
X18058095Y-61074318D01*
X18058095Y-61074318D02*
X18300000Y-60167175D01*
X18300000Y-60167175D02*
X18541905Y-61074318D01*
X18541905Y-61074318D02*
X18844286Y-59804318D01*
X19932857Y-59804318D02*
X19328095Y-59804318D01*
X19328095Y-59804318D02*
X19267619Y-60409080D01*
X19267619Y-60409080D02*
X19328095Y-60348603D01*
X19328095Y-60348603D02*
X19449048Y-60288127D01*
X19449048Y-60288127D02*
X19751429Y-60288127D01*
X19751429Y-60288127D02*
X19872381Y-60348603D01*
X19872381Y-60348603D02*
X19932857Y-60409080D01*
X19932857Y-60409080D02*
X19993334Y-60530032D01*
X19993334Y-60530032D02*
X19993334Y-60832413D01*
X19993334Y-60832413D02*
X19932857Y-60953365D01*
X19932857Y-60953365D02*
X19872381Y-61013842D01*
X19872381Y-61013842D02*
X19751429Y-61074318D01*
X19751429Y-61074318D02*
X19449048Y-61074318D01*
X19449048Y-61074318D02*
X19328095Y-61013842D01*
X19328095Y-61013842D02*
X19267619Y-60953365D01*
D12*
X24227642Y-35763580D02*
X24180023Y-35811200D01*
X24180023Y-35811200D02*
X24037166Y-35858819D01*
X24037166Y-35858819D02*
X23941928Y-35858819D01*
X23941928Y-35858819D02*
X23799071Y-35811200D01*
X23799071Y-35811200D02*
X23703833Y-35715961D01*
X23703833Y-35715961D02*
X23656214Y-35620723D01*
X23656214Y-35620723D02*
X23608595Y-35430247D01*
X23608595Y-35430247D02*
X23608595Y-35287390D01*
X23608595Y-35287390D02*
X23656214Y-35096914D01*
X23656214Y-35096914D02*
X23703833Y-35001676D01*
X23703833Y-35001676D02*
X23799071Y-34906438D01*
X23799071Y-34906438D02*
X23941928Y-34858819D01*
X23941928Y-34858819D02*
X24037166Y-34858819D01*
X24037166Y-34858819D02*
X24180023Y-34906438D01*
X24180023Y-34906438D02*
X24227642Y-34954057D01*
X25180023Y-35858819D02*
X24608595Y-35858819D01*
X24894309Y-35858819D02*
X24894309Y-34858819D01*
X24894309Y-34858819D02*
X24799071Y-35001676D01*
X24799071Y-35001676D02*
X24703833Y-35096914D01*
X24703833Y-35096914D02*
X24608595Y-35144533D01*
X25513357Y-34858819D02*
X26132404Y-34858819D01*
X26132404Y-34858819D02*
X25799071Y-35239771D01*
X25799071Y-35239771D02*
X25941928Y-35239771D01*
X25941928Y-35239771D02*
X26037166Y-35287390D01*
X26037166Y-35287390D02*
X26084785Y-35335009D01*
X26084785Y-35335009D02*
X26132404Y-35430247D01*
X26132404Y-35430247D02*
X26132404Y-35668342D01*
X26132404Y-35668342D02*
X26084785Y-35763580D01*
X26084785Y-35763580D02*
X26037166Y-35811200D01*
X26037166Y-35811200D02*
X25941928Y-35858819D01*
X25941928Y-35858819D02*
X25656214Y-35858819D01*
X25656214Y-35858819D02*
X25560976Y-35811200D01*
X25560976Y-35811200D02*
X25513357Y-35763580D01*
X13986905Y-23729819D02*
X13986905Y-22729819D01*
X13986905Y-22729819D02*
X14225000Y-22729819D01*
X14225000Y-22729819D02*
X14367857Y-22777438D01*
X14367857Y-22777438D02*
X14463095Y-22872676D01*
X14463095Y-22872676D02*
X14510714Y-22967914D01*
X14510714Y-22967914D02*
X14558333Y-23158390D01*
X14558333Y-23158390D02*
X14558333Y-23301247D01*
X14558333Y-23301247D02*
X14510714Y-23491723D01*
X14510714Y-23491723D02*
X14463095Y-23586961D01*
X14463095Y-23586961D02*
X14367857Y-23682200D01*
X14367857Y-23682200D02*
X14225000Y-23729819D01*
X14225000Y-23729819D02*
X13986905Y-23729819D01*
X14939286Y-22825057D02*
X14986905Y-22777438D01*
X14986905Y-22777438D02*
X15082143Y-22729819D01*
X15082143Y-22729819D02*
X15320238Y-22729819D01*
X15320238Y-22729819D02*
X15415476Y-22777438D01*
X15415476Y-22777438D02*
X15463095Y-22825057D01*
X15463095Y-22825057D02*
X15510714Y-22920295D01*
X15510714Y-22920295D02*
X15510714Y-23015533D01*
X15510714Y-23015533D02*
X15463095Y-23158390D01*
X15463095Y-23158390D02*
X14891667Y-23729819D01*
X14891667Y-23729819D02*
X15510714Y-23729819D01*
X37745095Y-86345319D02*
X37745095Y-87154842D01*
X37745095Y-87154842D02*
X37792714Y-87250080D01*
X37792714Y-87250080D02*
X37840333Y-87297700D01*
X37840333Y-87297700D02*
X37935571Y-87345319D01*
X37935571Y-87345319D02*
X38126047Y-87345319D01*
X38126047Y-87345319D02*
X38221285Y-87297700D01*
X38221285Y-87297700D02*
X38268904Y-87250080D01*
X38268904Y-87250080D02*
X38316523Y-87154842D01*
X38316523Y-87154842D02*
X38316523Y-86345319D01*
X39316523Y-87345319D02*
X38745095Y-87345319D01*
X39030809Y-87345319D02*
X39030809Y-86345319D01*
X39030809Y-86345319D02*
X38935571Y-86488176D01*
X38935571Y-86488176D02*
X38840333Y-86583414D01*
X38840333Y-86583414D02*
X38745095Y-86631033D01*
X49061642Y-93214080D02*
X49014023Y-93261700D01*
X49014023Y-93261700D02*
X48871166Y-93309319D01*
X48871166Y-93309319D02*
X48775928Y-93309319D01*
X48775928Y-93309319D02*
X48633071Y-93261700D01*
X48633071Y-93261700D02*
X48537833Y-93166461D01*
X48537833Y-93166461D02*
X48490214Y-93071223D01*
X48490214Y-93071223D02*
X48442595Y-92880747D01*
X48442595Y-92880747D02*
X48442595Y-92737890D01*
X48442595Y-92737890D02*
X48490214Y-92547414D01*
X48490214Y-92547414D02*
X48537833Y-92452176D01*
X48537833Y-92452176D02*
X48633071Y-92356938D01*
X48633071Y-92356938D02*
X48775928Y-92309319D01*
X48775928Y-92309319D02*
X48871166Y-92309319D01*
X48871166Y-92309319D02*
X49014023Y-92356938D01*
X49014023Y-92356938D02*
X49061642Y-92404557D01*
X50014023Y-93309319D02*
X49442595Y-93309319D01*
X49728309Y-93309319D02*
X49728309Y-92309319D01*
X49728309Y-92309319D02*
X49633071Y-92452176D01*
X49633071Y-92452176D02*
X49537833Y-92547414D01*
X49537833Y-92547414D02*
X49442595Y-92595033D01*
X50347357Y-92309319D02*
X51014023Y-92309319D01*
X51014023Y-92309319D02*
X50585452Y-93309319D01*
X56148905Y-19979819D02*
X56148905Y-18979819D01*
X56148905Y-18979819D02*
X56387000Y-18979819D01*
X56387000Y-18979819D02*
X56529857Y-19027438D01*
X56529857Y-19027438D02*
X56625095Y-19122676D01*
X56625095Y-19122676D02*
X56672714Y-19217914D01*
X56672714Y-19217914D02*
X56720333Y-19408390D01*
X56720333Y-19408390D02*
X56720333Y-19551247D01*
X56720333Y-19551247D02*
X56672714Y-19741723D01*
X56672714Y-19741723D02*
X56625095Y-19836961D01*
X56625095Y-19836961D02*
X56529857Y-19932200D01*
X56529857Y-19932200D02*
X56387000Y-19979819D01*
X56387000Y-19979819D02*
X56148905Y-19979819D01*
X57672714Y-19979819D02*
X57101286Y-19979819D01*
X57387000Y-19979819D02*
X57387000Y-18979819D01*
X57387000Y-18979819D02*
X57291762Y-19122676D01*
X57291762Y-19122676D02*
X57196524Y-19217914D01*
X57196524Y-19217914D02*
X57101286Y-19265533D01*
D11*
%TO.C,S3*%
X40049000Y-29160000D02*
X40049000Y-41960000D01*
X40049000Y-41960000D02*
X34249000Y-41960000D01*
X34249000Y-41960000D02*
X34249000Y-29160000D01*
X34249000Y-29160000D02*
X40049000Y-29160000D01*
%TO.C,S2*%
X60049000Y-29160000D02*
X60049000Y-41960000D01*
X60049000Y-41960000D02*
X54249000Y-41960000D01*
X54249000Y-41960000D02*
X54249000Y-29160000D01*
X54249000Y-29160000D02*
X60049000Y-29160000D01*
%TO.C,S1*%
X20049000Y-29160000D02*
X20049000Y-41960000D01*
X20049000Y-41960000D02*
X14249000Y-41960000D01*
X14249000Y-41960000D02*
X14249000Y-29160000D01*
X14249000Y-29160000D02*
X20049000Y-29160000D01*
D13*
%TO.C,J2*%
X25136000Y-83426000D02*
X23866000Y-83426000D01*
X25136000Y-82156000D02*
X25136000Y-83426000D01*
X22823071Y-79996000D02*
X22426000Y-79996000D01*
X22823071Y-79236000D02*
X22426000Y-79236000D01*
X22823071Y-77456000D02*
X22426000Y-77456000D01*
X22823071Y-76696000D02*
X22426000Y-76696000D01*
X22823071Y-74916000D02*
X22426000Y-74916000D01*
X22823071Y-74156000D02*
X22426000Y-74156000D01*
X22756000Y-82536000D02*
X22426000Y-82536000D01*
X22756000Y-81776000D02*
X22426000Y-81776000D01*
X22426000Y-83486000D02*
X22426000Y-73206000D01*
X22426000Y-80886000D02*
X19766000Y-80886000D01*
X22426000Y-78346000D02*
X19766000Y-78346000D01*
X22426000Y-75806000D02*
X19766000Y-75806000D01*
X22426000Y-73206000D02*
X19766000Y-73206000D01*
X19766000Y-83486000D02*
X22426000Y-83486000D01*
X19766000Y-73206000D02*
X19766000Y-83486000D01*
%TO.C,J1*%
X32154000Y-22399000D02*
X32154000Y-21129000D01*
X33424000Y-22399000D02*
X32154000Y-22399000D01*
X35584000Y-20086071D02*
X35584000Y-19689000D01*
X36344000Y-20086071D02*
X36344000Y-19689000D01*
X38124000Y-20086071D02*
X38124000Y-19689000D01*
X38884000Y-20086071D02*
X38884000Y-19689000D01*
X40664000Y-20086071D02*
X40664000Y-19689000D01*
X41424000Y-20086071D02*
X41424000Y-19689000D01*
X33044000Y-20019000D02*
X33044000Y-19689000D01*
X33804000Y-20019000D02*
X33804000Y-19689000D01*
X32094000Y-19689000D02*
X42374000Y-19689000D01*
X34694000Y-19689000D02*
X34694000Y-17029000D01*
X37234000Y-19689000D02*
X37234000Y-17029000D01*
X39774000Y-19689000D02*
X39774000Y-17029000D01*
X42374000Y-19689000D02*
X42374000Y-17029000D01*
X32094000Y-17029000D02*
X32094000Y-19689000D01*
X42374000Y-17029000D02*
X32094000Y-17029000D01*
D14*
%TO.C,IC2*%
X19604000Y-49718500D02*
X19004000Y-49718500D01*
X19004000Y-49718500D02*
X19004000Y-46758500D01*
X19004000Y-46758500D02*
X19604000Y-46758500D01*
X19604000Y-46758500D02*
X19604000Y-49718500D01*
X21154000Y-49738500D02*
X19954000Y-49738500D01*
%TO.C,IC1*%
X51504000Y-47118500D02*
X52054000Y-47118500D01*
X52054000Y-47118500D02*
X52054000Y-50018500D01*
X52054000Y-50018500D02*
X51504000Y-50018500D01*
X51504000Y-50018500D02*
X51504000Y-47118500D01*
X49904000Y-47068500D02*
X51154000Y-47068500D01*
D13*
%TO.C,R1*%
X31168000Y-88877564D02*
X31168000Y-88423436D01*
X32638000Y-88877564D02*
X32638000Y-88423436D01*
%TO.C,C9*%
X46706000Y-49779752D02*
X46706000Y-49257248D01*
X48176000Y-49779752D02*
X48176000Y-49257248D01*
%TO.C,C16*%
X21252000Y-64983748D02*
X21252000Y-65506252D01*
X19782000Y-64983748D02*
X19782000Y-65506252D01*
%TO.C,C7*%
X28628000Y-81805252D02*
X28628000Y-81282748D01*
X30098000Y-81805252D02*
X30098000Y-81282748D01*
%TO.C,Y1*%
X53757000Y-89057500D02*
X53757000Y-73082500D01*
X48657000Y-73082500D02*
X48657000Y-89057500D01*
X48657000Y-89057500D02*
X53757000Y-89057500D01*
%TO.C,C14*%
X49537252Y-36803000D02*
X49014748Y-36803000D01*
X49537252Y-35333000D02*
X49014748Y-35333000D01*
%TO.C,R9*%
X52018064Y-22071000D02*
X51563936Y-22071000D01*
X52018064Y-20601000D02*
X51563936Y-20601000D01*
%TO.C,R8*%
X46001000Y-70331064D02*
X46001000Y-69876936D01*
X47471000Y-70331064D02*
X47471000Y-69876936D01*
%TO.C,R6*%
X45133564Y-32283000D02*
X44679436Y-32283000D01*
X45133564Y-30813000D02*
X44679436Y-30813000D01*
%TO.C,R11*%
X40920936Y-45493000D02*
X41375064Y-45493000D01*
X40920936Y-46963000D02*
X41375064Y-46963000D01*
%TO.C,C2*%
X47471000Y-78478748D02*
X47471000Y-79001252D01*
X46001000Y-78478748D02*
X46001000Y-79001252D01*
%TO.C,C11*%
X23141000Y-50023752D02*
X23141000Y-49501248D01*
X24611000Y-50023752D02*
X24611000Y-49501248D01*
%TO.C,R10*%
X19600936Y-20601000D02*
X20055064Y-20601000D01*
X19600936Y-22071000D02*
X20055064Y-22071000D01*
%TO.C,C8*%
X42798000Y-88859748D02*
X42798000Y-89382252D01*
X41328000Y-88859748D02*
X41328000Y-89382252D01*
%TO.C,C15*%
X44639748Y-35385000D02*
X45162252Y-35385000D01*
X44639748Y-36855000D02*
X45162252Y-36855000D01*
%TO.C,C10*%
X55342000Y-49758252D02*
X55342000Y-49235748D01*
X56812000Y-49758252D02*
X56812000Y-49235748D01*
%TO.C,R4*%
X25135064Y-32739000D02*
X24680936Y-32739000D01*
X25135064Y-31269000D02*
X24680936Y-31269000D01*
%TO.C,R3*%
X30098000Y-76744936D02*
X30098000Y-77199064D01*
X28628000Y-76744936D02*
X28628000Y-77199064D01*
%TO.C,R5*%
X49054436Y-30761000D02*
X49508564Y-30761000D01*
X49054436Y-32231000D02*
X49508564Y-32231000D01*
D11*
%TO.C,SW1*%
X50589000Y-54394000D02*
X56589000Y-54394000D01*
X50589000Y-57894000D02*
X56589000Y-57894000D01*
D14*
X49189000Y-55944000D02*
X49189000Y-55944000D01*
X49189000Y-56144000D02*
X49189000Y-56144000D01*
X49189000Y-56144000D02*
G75*
G03*
X49189000Y-55944000I0J100000D01*
G01*
X49189000Y-55944000D02*
G75*
G03*
X49189000Y-56144000I0J-100000D01*
G01*
D13*
%TO.C,C20*%
X28709252Y-57631000D02*
X28186748Y-57631000D01*
X28709252Y-56161000D02*
X28186748Y-56161000D01*
%TO.C,C3*%
X46354000Y-86341248D02*
X46354000Y-86863752D01*
X44884000Y-86341248D02*
X44884000Y-86863752D01*
%TO.C,C5*%
X32265252Y-73379000D02*
X31742748Y-73379000D01*
X32265252Y-71909000D02*
X31742748Y-71909000D01*
%TO.C,R7*%
X16226000Y-65493564D02*
X16226000Y-65039436D01*
X17696000Y-65493564D02*
X17696000Y-65039436D01*
%TO.C,C12*%
X13997000Y-50045252D02*
X13997000Y-49522748D01*
X15467000Y-50045252D02*
X15467000Y-49522748D01*
%TO.C,C4*%
X39750000Y-89367748D02*
X39750000Y-89890252D01*
X38280000Y-89367748D02*
X38280000Y-89890252D01*
%TO.C,R2*%
X34515000Y-68727064D02*
X34515000Y-68272936D01*
X35985000Y-68727064D02*
X35985000Y-68272936D01*
%TO.C,C19*%
X28709252Y-54075000D02*
X28186748Y-54075000D01*
X28709252Y-52605000D02*
X28186748Y-52605000D01*
%TO.C,C18*%
X49944252Y-67525500D02*
X49421748Y-67525500D01*
X49944252Y-66055500D02*
X49421748Y-66055500D01*
%TO.C,C6*%
X40820000Y-70099752D02*
X40820000Y-69577248D01*
X42290000Y-70099752D02*
X42290000Y-69577248D01*
%TO.C,C1*%
X47495000Y-75051252D02*
X47495000Y-74528748D01*
X46025000Y-75051252D02*
X46025000Y-74528748D01*
D11*
%TO.C,SW5*%
X21345000Y-58402000D02*
X15345000Y-58402000D01*
X21345000Y-54902000D02*
X15345000Y-54902000D01*
D14*
X22745000Y-56852000D02*
X22745000Y-56852000D01*
X22745000Y-56652000D02*
X22745000Y-56652000D01*
X22745000Y-56652000D02*
G75*
G03*
X22745000Y-56852000I0J-100000D01*
G01*
X22745000Y-56852000D02*
G75*
G03*
X22745000Y-56652000I0J100000D01*
G01*
D13*
%TO.C,C13*%
X24609248Y-36349000D02*
X25131752Y-36349000D01*
X24609248Y-37819000D02*
X25131752Y-37819000D01*
%TO.C,D2*%
X16608000Y-20376000D02*
X13748000Y-20376000D01*
X13748000Y-22296000D02*
X16608000Y-22296000D01*
X16608000Y-22296000D02*
X16608000Y-20376000D01*
%TO.C,U1*%
X42667000Y-84600500D02*
X43617000Y-84600500D01*
X34347000Y-84600500D02*
X33397000Y-84600500D01*
X33397000Y-74380500D02*
X33397000Y-75330500D01*
X34347000Y-74380500D02*
X33397000Y-74380500D01*
X42667000Y-74380500D02*
X43617000Y-74380500D01*
X43617000Y-84600500D02*
X43617000Y-83650500D01*
X33397000Y-84600500D02*
X33397000Y-83650500D01*
X43617000Y-74380500D02*
X43617000Y-75330500D01*
X43617000Y-83650500D02*
X44957000Y-83650500D01*
%TO.C,C17*%
X49965752Y-91909500D02*
X49443248Y-91909500D01*
X49965752Y-90439500D02*
X49443248Y-90439500D01*
%TO.C,D1*%
X55027000Y-22296000D02*
X57887000Y-22296000D01*
X57887000Y-20376000D02*
X55027000Y-20376000D01*
X55027000Y-20376000D02*
X55027000Y-22296000D01*
%TD*%
M02*
