%TF.GenerationSoftware,KiCad,Pcbnew,7.0.8*%
%TF.CreationDate,2024-03-13T16:31:13+02:00*%
%TF.ProjectId,mouse_hardware,6d6f7573-655f-4686-9172-64776172652e,rev?*%
%TF.SameCoordinates,Original*%
%TF.FileFunction,Copper,L2,Inr*%
%TF.FilePolarity,Positive*%
%FSLAX46Y46*%
G04 Gerber Fmt 4.6, Leading zero omitted, Abs format (unit mm)*
G04 Created by KiCad (PCBNEW 7.0.8) date 2024-03-13 16:31:13*
%MOMM*%
%LPD*%
G01*
G04 APERTURE LIST*
%TA.AperFunction,ComponentPad*%
%ADD10C,1.800000*%
%TD*%
%TA.AperFunction,ComponentPad*%
%ADD11R,1.700000X1.700000*%
%TD*%
%TA.AperFunction,ComponentPad*%
%ADD12O,1.700000X1.700000*%
%TD*%
%TA.AperFunction,ComponentPad*%
%ADD13C,1.300000*%
%TD*%
%TA.AperFunction,ViaPad*%
%ADD14C,1.000000*%
%TD*%
%TA.AperFunction,Conductor*%
%ADD15C,0.300000*%
%TD*%
%TA.AperFunction,Conductor*%
%ADD16C,0.500000*%
%TD*%
G04 APERTURE END LIST*
D10*
%TO.N,unconnected-(H2-Pad1)*%
%TO.C,H2*%
X37149000Y-25400000D03*
%TD*%
%TO.N,GND*%
%TO.C,S3*%
X37149000Y-30480000D03*
%TO.N,MIDDLE_CLICK*%
X37149000Y-35560000D03*
%TO.N,unconnected-(S3-NC-Pad3)*%
X37149000Y-40640000D03*
%TD*%
%TO.N,GND*%
%TO.C,S2*%
X57149000Y-30480000D03*
%TO.N,RIGHT_CLICK*%
X57149000Y-35560000D03*
%TO.N,unconnected-(S2-NC-Pad3)*%
X57149000Y-40640000D03*
%TD*%
D11*
%TO.N,+5V*%
%TO.C,J1*%
X33424000Y-21129000D03*
D12*
%TO.N,USBDP*%
X35964000Y-21129000D03*
%TO.N,USBDM*%
X38504000Y-21129000D03*
%TO.N,GND*%
X41044000Y-21129000D03*
%TD*%
D13*
%TO.N,N/C*%
%TO.C,U2*%
X32517000Y-49889000D03*
X32517000Y-51669000D03*
%TO.N,Net-(U2-VDDPIX)*%
X32517000Y-53449000D03*
%TO.N,+2V*%
X32517000Y-55229000D03*
%TO.N,+3V3*%
X32517000Y-57009000D03*
%TO.N,N/C*%
X32517000Y-58789000D03*
%TO.N,NRST*%
X32517000Y-60569000D03*
%TO.N,GND*%
X32517000Y-62349000D03*
%TO.N,MOTION*%
X43217000Y-63239000D03*
%TO.N,SCK*%
X43217000Y-61459000D03*
%TO.N,MOSI*%
X43217000Y-59679000D03*
%TO.N,MISO*%
X43217000Y-57899000D03*
%TO.N,NCS*%
X43217000Y-56119000D03*
%TO.N,N/C*%
X43217000Y-54339000D03*
%TO.N,Net-(U2-LED_P)*%
X43217000Y-52559000D03*
%TO.N,N/C*%
X43217000Y-50779000D03*
%TD*%
D10*
%TO.N,unconnected-(H1-Pad1)*%
%TO.C,H1*%
X57149000Y-25400000D03*
%TD*%
D11*
%TO.N,+5V*%
%TO.C,J2*%
X23866000Y-82156000D03*
D12*
%TO.N,SWDIO*%
X23866000Y-79616000D03*
%TO.N,SWCLK*%
X23866000Y-77076000D03*
%TO.N,GND*%
X23866000Y-74536000D03*
%TD*%
D10*
%TO.N,GND*%
%TO.C,S1*%
X17149000Y-30480000D03*
%TO.N,LEFT_CLICK*%
X17149000Y-35560000D03*
%TO.N,unconnected-(S1-NC-Pad3)*%
X17149000Y-40640000D03*
%TD*%
%TO.N,unconnected-(H3-Pad1)*%
%TO.C,H3*%
X17149000Y-25400000D03*
%TD*%
D14*
%TO.N,+3V3*%
X28956000Y-47752000D03*
X30263041Y-69550000D03*
X13250000Y-18750000D03*
X43750000Y-87000000D03*
X27350000Y-83750000D03*
X43169062Y-71550500D03*
X45350000Y-67925000D03*
X47500000Y-84000000D03*
X27432000Y-48260000D03*
X30450000Y-70925000D03*
X28575000Y-84400000D03*
X46250000Y-83250000D03*
X43110000Y-70480000D03*
X47250000Y-29500000D03*
X27000000Y-29500000D03*
X16600000Y-68375000D03*
X27575000Y-78475000D03*
X15025000Y-46875000D03*
X31100000Y-78025000D03*
X16400000Y-46175000D03*
X44175000Y-69075000D03*
X27750000Y-30750000D03*
X47500000Y-27750000D03*
X18425000Y-68100000D03*
X43500000Y-85750000D03*
X15250000Y-18750000D03*
%TO.N,STATUS_LED*%
X53576000Y-17000000D03*
X43500000Y-73250000D03*
X52750000Y-18500000D03*
X44750000Y-73000000D03*
%TO.N,USBDP*%
X41148000Y-25400000D03*
X40132000Y-25400000D03*
X29464000Y-61468000D03*
X27432000Y-61468000D03*
%TO.N,USBDM*%
X29464000Y-63500000D03*
X28281500Y-64516000D03*
X42672000Y-24892000D03*
X44196000Y-24892000D03*
%TO.N,NRST*%
X40800000Y-82125000D03*
X45720000Y-53848000D03*
X27825000Y-74300000D03*
X47244000Y-52832000D03*
X42550000Y-82500000D03*
X27525000Y-75650000D03*
%TO.N,MISO*%
X51800000Y-62625000D03*
X50375000Y-63100000D03*
X38875000Y-81525000D03*
X39850000Y-80550000D03*
%TO.N,NCS*%
X45750000Y-65325000D03*
X44444188Y-65469188D03*
%TO.N,SCK*%
X41656000Y-77216000D03*
X41148000Y-76200000D03*
%TO.N,MOSI*%
X48675000Y-63400000D03*
X38000000Y-78525000D03*
X47575000Y-64050000D03*
X38125000Y-79850000D03*
%TO.N,+2V*%
X29525000Y-45475000D03*
X31250000Y-44725000D03*
%TD*%
D15*
%TO.N,+3V3*%
X27432000Y-49784000D02*
X28956000Y-48260000D01*
X28956000Y-48260000D02*
X28956000Y-47752000D01*
X27432000Y-49784000D02*
X27432000Y-48260000D01*
X32517000Y-57009000D02*
X27432000Y-51924000D01*
X27432000Y-51924000D02*
X27432000Y-49784000D01*
D16*
%TO.N,STATUS_LED*%
X50250000Y-17000000D02*
X53576000Y-17000000D01*
X44750000Y-72750000D02*
X44750000Y-73000000D01*
X25250000Y-35389811D02*
X36589811Y-24050000D01*
X36460881Y-68000000D02*
X30421997Y-68000000D01*
X41105441Y-72644559D02*
X41250000Y-72500000D01*
X30421997Y-68000000D02*
X25250000Y-62828003D01*
X44500000Y-72500000D02*
X44750000Y-72750000D01*
X47365273Y-17000000D02*
X50250000Y-17000000D01*
X50250000Y-17000000D02*
X51750000Y-18500000D01*
X51750000Y-18500000D02*
X52750000Y-18500000D01*
X41105441Y-72644559D02*
X36460881Y-68000000D01*
X41710881Y-73250000D02*
X41105441Y-72644559D01*
X36589811Y-24050000D02*
X40315273Y-24050000D01*
X25250000Y-62828003D02*
X25250000Y-35389811D01*
X43500000Y-73250000D02*
X41710881Y-73250000D01*
X40315273Y-24050000D02*
X47365273Y-17000000D01*
X41250000Y-72500000D02*
X44500000Y-72500000D01*
%TO.N,+2V*%
X31250000Y-46500000D02*
X30550000Y-46500000D01*
X30550000Y-46500000D02*
X29525000Y-45475000D01*
X31250000Y-46500000D02*
X31250000Y-53962000D01*
X31250000Y-53962000D02*
X32517000Y-55229000D01*
X31250000Y-44725000D02*
X31250000Y-46500000D01*
%TD*%
%TA.AperFunction,Conductor*%
%TO.N,+3V3*%
G36*
X62742539Y-12220185D02*
G01*
X62788294Y-12272989D01*
X62799500Y-12324500D01*
X62799500Y-93675500D01*
X62779815Y-93742539D01*
X62727011Y-93788294D01*
X62675500Y-93799500D01*
X12324500Y-93799500D01*
X12257461Y-93779815D01*
X12211706Y-93727011D01*
X12200500Y-93675500D01*
X12200500Y-79616000D01*
X22510341Y-79616000D01*
X22530936Y-79851403D01*
X22530938Y-79851413D01*
X22592094Y-80079655D01*
X22592096Y-80079659D01*
X22592097Y-80079663D01*
X22632018Y-80165273D01*
X22691965Y-80293830D01*
X22691967Y-80293834D01*
X22734004Y-80353868D01*
X22827501Y-80487396D01*
X22827506Y-80487402D01*
X22949430Y-80609326D01*
X22982915Y-80670649D01*
X22977931Y-80740341D01*
X22936059Y-80796274D01*
X22905083Y-80813189D01*
X22773669Y-80862203D01*
X22773664Y-80862206D01*
X22658455Y-80948452D01*
X22658452Y-80948455D01*
X22572206Y-81063664D01*
X22572202Y-81063671D01*
X22521908Y-81198517D01*
X22515501Y-81258116D01*
X22515501Y-81258123D01*
X22515500Y-81258135D01*
X22515500Y-83053870D01*
X22515501Y-83053876D01*
X22521908Y-83113483D01*
X22572202Y-83248328D01*
X22572206Y-83248335D01*
X22658452Y-83363544D01*
X22658455Y-83363547D01*
X22773664Y-83449793D01*
X22773671Y-83449797D01*
X22908517Y-83500091D01*
X22908516Y-83500091D01*
X22915444Y-83500835D01*
X22968127Y-83506500D01*
X24763872Y-83506499D01*
X24823483Y-83500091D01*
X24958331Y-83449796D01*
X25073546Y-83363546D01*
X25159796Y-83248331D01*
X25210091Y-83113483D01*
X25216500Y-83053873D01*
X25216499Y-81258128D01*
X25210091Y-81198517D01*
X25209222Y-81196188D01*
X25159797Y-81063671D01*
X25159793Y-81063664D01*
X25073547Y-80948455D01*
X25073544Y-80948452D01*
X24958335Y-80862206D01*
X24958328Y-80862202D01*
X24826917Y-80813189D01*
X24770983Y-80771318D01*
X24746566Y-80705853D01*
X24761418Y-80637580D01*
X24782563Y-80609332D01*
X24904495Y-80487401D01*
X25040035Y-80293830D01*
X25139903Y-80079663D01*
X25201063Y-79851408D01*
X25221659Y-79616000D01*
X25201063Y-79380592D01*
X25139903Y-79152337D01*
X25040035Y-78938171D01*
X25020121Y-78909730D01*
X24904494Y-78744597D01*
X24737402Y-78577506D01*
X24737396Y-78577501D01*
X24662417Y-78525000D01*
X36994659Y-78525000D01*
X37013975Y-78721129D01*
X37071188Y-78909733D01*
X37164086Y-79083532D01*
X37164090Y-79083539D01*
X37220552Y-79152337D01*
X37244290Y-79181262D01*
X37254528Y-79193736D01*
X37281841Y-79258045D01*
X37270050Y-79326913D01*
X37268034Y-79330854D01*
X37196187Y-79465271D01*
X37138975Y-79653870D01*
X37119659Y-79850000D01*
X37138975Y-80046129D01*
X37196188Y-80234733D01*
X37289086Y-80408532D01*
X37289090Y-80408539D01*
X37414116Y-80560883D01*
X37566460Y-80685909D01*
X37566467Y-80685913D01*
X37740266Y-80778811D01*
X37740269Y-80778811D01*
X37740273Y-80778814D01*
X37928868Y-80836024D01*
X37928870Y-80836024D01*
X37934698Y-80837792D01*
X37934248Y-80839272D01*
X37989442Y-80868141D01*
X38024019Y-80928856D01*
X38020281Y-80998625D01*
X38012702Y-81015828D01*
X37946188Y-81140268D01*
X37888975Y-81328870D01*
X37869659Y-81525000D01*
X37888975Y-81721129D01*
X37946188Y-81909733D01*
X38039086Y-82083532D01*
X38039090Y-82083539D01*
X38164116Y-82235883D01*
X38316460Y-82360909D01*
X38316467Y-82360913D01*
X38490266Y-82453811D01*
X38490269Y-82453811D01*
X38490273Y-82453814D01*
X38678868Y-82511024D01*
X38875000Y-82530341D01*
X39071132Y-82511024D01*
X39259727Y-82453814D01*
X39433538Y-82360910D01*
X39585883Y-82235883D01*
X39592123Y-82228278D01*
X39649867Y-82188944D01*
X39719711Y-82187071D01*
X39779481Y-82223257D01*
X39810199Y-82286011D01*
X39811381Y-82294787D01*
X39813975Y-82321129D01*
X39871188Y-82509733D01*
X39964086Y-82683532D01*
X39964090Y-82683539D01*
X40089116Y-82835883D01*
X40241460Y-82960909D01*
X40241467Y-82960913D01*
X40415266Y-83053811D01*
X40415269Y-83053811D01*
X40415273Y-83053814D01*
X40603868Y-83111024D01*
X40800000Y-83130341D01*
X40996132Y-83111024D01*
X41184727Y-83053814D01*
X41358538Y-82960910D01*
X41452609Y-82883706D01*
X41516917Y-82856394D01*
X41585784Y-82868184D01*
X41637345Y-82915336D01*
X41640631Y-82921107D01*
X41714086Y-83058532D01*
X41714090Y-83058539D01*
X41839116Y-83210883D01*
X41991460Y-83335909D01*
X41991467Y-83335913D01*
X42165266Y-83428811D01*
X42165269Y-83428811D01*
X42165273Y-83428814D01*
X42353868Y-83486024D01*
X42550000Y-83505341D01*
X42746132Y-83486024D01*
X42934727Y-83428814D01*
X43108538Y-83335910D01*
X43260883Y-83210883D01*
X43385910Y-83058538D01*
X43438094Y-82960908D01*
X43478811Y-82884733D01*
X43478811Y-82884732D01*
X43478814Y-82884727D01*
X43536024Y-82696132D01*
X43555341Y-82500000D01*
X43536024Y-82303868D01*
X43478814Y-82115273D01*
X43478811Y-82115269D01*
X43478811Y-82115266D01*
X43385913Y-81941467D01*
X43385909Y-81941460D01*
X43260883Y-81789116D01*
X43108539Y-81664090D01*
X43108532Y-81664086D01*
X42934733Y-81571188D01*
X42934727Y-81571186D01*
X42746132Y-81513976D01*
X42746129Y-81513975D01*
X42550000Y-81494659D01*
X42353870Y-81513975D01*
X42165266Y-81571188D01*
X41991467Y-81664086D01*
X41991461Y-81664090D01*
X41897390Y-81741292D01*
X41833080Y-81768604D01*
X41764213Y-81756813D01*
X41712653Y-81709660D01*
X41709368Y-81703891D01*
X41635913Y-81566467D01*
X41635909Y-81566460D01*
X41510883Y-81414116D01*
X41358539Y-81289090D01*
X41358532Y-81289086D01*
X41184733Y-81196188D01*
X41184727Y-81196186D01*
X40996132Y-81138976D01*
X40996129Y-81138975D01*
X40870653Y-81126617D01*
X40805866Y-81100456D01*
X40765508Y-81043421D01*
X40762391Y-80973621D01*
X40773454Y-80944754D01*
X40778811Y-80934732D01*
X40778814Y-80934727D01*
X40836024Y-80746132D01*
X40855341Y-80550000D01*
X40836024Y-80353868D01*
X40778814Y-80165273D01*
X40778811Y-80165269D01*
X40778811Y-80165266D01*
X40685913Y-79991467D01*
X40685909Y-79991460D01*
X40560883Y-79839116D01*
X40408539Y-79714090D01*
X40408532Y-79714086D01*
X40234733Y-79621188D01*
X40234727Y-79621186D01*
X40046132Y-79563976D01*
X40046129Y-79563975D01*
X39850000Y-79544659D01*
X39653870Y-79563975D01*
X39465266Y-79621188D01*
X39286089Y-79716961D01*
X39284870Y-79714681D01*
X39228897Y-79732176D01*
X39161527Y-79713656D01*
X39114864Y-79661653D01*
X39108089Y-79644191D01*
X39053813Y-79465271D01*
X38960913Y-79291467D01*
X38960909Y-79291460D01*
X38870471Y-79181262D01*
X38843158Y-79116952D01*
X38854949Y-79048085D01*
X38856941Y-79044190D01*
X38928814Y-78909727D01*
X38986024Y-78721132D01*
X39005341Y-78525000D01*
X38986024Y-78328868D01*
X38928814Y-78140273D01*
X38928811Y-78140269D01*
X38928811Y-78140266D01*
X38835913Y-77966467D01*
X38835909Y-77966460D01*
X38710883Y-77814116D01*
X38558539Y-77689090D01*
X38558532Y-77689086D01*
X38384733Y-77596188D01*
X38384727Y-77596186D01*
X38198397Y-77539663D01*
X38196129Y-77538975D01*
X38000000Y-77519659D01*
X37803870Y-77538975D01*
X37615266Y-77596188D01*
X37441467Y-77689086D01*
X37441460Y-77689090D01*
X37289116Y-77814116D01*
X37164090Y-77966460D01*
X37164086Y-77966467D01*
X37071188Y-78140266D01*
X37013975Y-78328870D01*
X36994659Y-78525000D01*
X24662417Y-78525000D01*
X24551842Y-78447575D01*
X24508217Y-78392998D01*
X24501023Y-78323500D01*
X24532546Y-78261145D01*
X24551842Y-78244425D01*
X24612397Y-78202024D01*
X24737401Y-78114495D01*
X24904495Y-77947401D01*
X25040035Y-77753830D01*
X25139903Y-77539663D01*
X25201063Y-77311408D01*
X25221659Y-77076000D01*
X25218151Y-77035910D01*
X25201063Y-76840596D01*
X25201063Y-76840592D01*
X25151426Y-76655341D01*
X25139905Y-76612344D01*
X25139904Y-76612343D01*
X25139903Y-76612337D01*
X25040035Y-76398171D01*
X25038608Y-76396132D01*
X24904494Y-76204597D01*
X24737402Y-76037506D01*
X24737396Y-76037501D01*
X24551842Y-75907575D01*
X24508217Y-75852998D01*
X24501023Y-75783500D01*
X24532546Y-75721145D01*
X24551842Y-75704425D01*
X24629569Y-75650000D01*
X26519659Y-75650000D01*
X26538975Y-75846129D01*
X26596188Y-76034733D01*
X26689086Y-76208532D01*
X26689090Y-76208539D01*
X26814116Y-76360883D01*
X26966460Y-76485909D01*
X26966467Y-76485913D01*
X27140266Y-76578811D01*
X27140269Y-76578811D01*
X27140273Y-76578814D01*
X27328868Y-76636024D01*
X27525000Y-76655341D01*
X27721132Y-76636024D01*
X27909727Y-76578814D01*
X28083538Y-76485910D01*
X28235883Y-76360883D01*
X28360910Y-76208538D01*
X28365474Y-76200000D01*
X40142659Y-76200000D01*
X40161975Y-76396129D01*
X40181046Y-76458997D01*
X40217391Y-76578811D01*
X40219188Y-76584733D01*
X40312086Y-76758532D01*
X40312090Y-76758539D01*
X40437116Y-76910883D01*
X40589460Y-77035909D01*
X40589466Y-77035913D01*
X40591371Y-77036931D01*
X40592182Y-77037728D01*
X40594529Y-77039296D01*
X40594231Y-77039740D01*
X40641218Y-77085890D01*
X40656683Y-77154027D01*
X40656327Y-77158445D01*
X40650659Y-77215999D01*
X40669975Y-77412129D01*
X40669976Y-77412132D01*
X40725808Y-77596186D01*
X40727188Y-77600733D01*
X40820086Y-77774532D01*
X40820090Y-77774539D01*
X40945116Y-77926883D01*
X41097460Y-78051909D01*
X41097467Y-78051913D01*
X41271266Y-78144811D01*
X41271269Y-78144811D01*
X41271273Y-78144814D01*
X41459868Y-78202024D01*
X41656000Y-78221341D01*
X41852132Y-78202024D01*
X42040727Y-78144814D01*
X42214538Y-78051910D01*
X42366883Y-77926883D01*
X42491910Y-77774538D01*
X42584814Y-77600727D01*
X42642024Y-77412132D01*
X42661341Y-77216000D01*
X42642024Y-77019868D01*
X42584814Y-76831273D01*
X42584811Y-76831269D01*
X42584811Y-76831266D01*
X42491913Y-76657467D01*
X42491909Y-76657460D01*
X42366883Y-76505116D01*
X42214538Y-76380089D01*
X42214534Y-76380087D01*
X42212611Y-76379059D01*
X42211794Y-76378256D01*
X42209478Y-76376709D01*
X42209771Y-76376269D01*
X42162771Y-76330092D01*
X42147318Y-76261953D01*
X42147672Y-76257552D01*
X42153341Y-76200000D01*
X42134024Y-76003868D01*
X42076814Y-75815273D01*
X42076811Y-75815269D01*
X42076811Y-75815266D01*
X41983913Y-75641467D01*
X41983909Y-75641460D01*
X41858883Y-75489116D01*
X41706539Y-75364090D01*
X41706532Y-75364086D01*
X41532733Y-75271188D01*
X41532727Y-75271186D01*
X41344132Y-75213976D01*
X41344129Y-75213975D01*
X41148000Y-75194659D01*
X40951870Y-75213975D01*
X40763266Y-75271188D01*
X40589467Y-75364086D01*
X40589460Y-75364090D01*
X40437116Y-75489116D01*
X40312090Y-75641460D01*
X40312086Y-75641467D01*
X40219188Y-75815266D01*
X40161975Y-76003870D01*
X40142659Y-76200000D01*
X28365474Y-76200000D01*
X28453814Y-76034727D01*
X28511024Y-75846132D01*
X28530341Y-75650000D01*
X28511024Y-75453868D01*
X28453814Y-75265273D01*
X28432293Y-75225011D01*
X28418052Y-75156611D01*
X28443051Y-75091367D01*
X28462986Y-75070707D01*
X28535883Y-75010883D01*
X28660910Y-74858538D01*
X28753814Y-74684727D01*
X28811024Y-74496132D01*
X28830341Y-74300000D01*
X28811024Y-74103868D01*
X28753814Y-73915273D01*
X28753811Y-73915269D01*
X28753811Y-73915266D01*
X28660913Y-73741467D01*
X28660909Y-73741460D01*
X28535883Y-73589116D01*
X28383539Y-73464090D01*
X28383532Y-73464086D01*
X28209733Y-73371188D01*
X28209727Y-73371186D01*
X28021132Y-73313976D01*
X28021129Y-73313975D01*
X27825000Y-73294659D01*
X27628870Y-73313975D01*
X27440266Y-73371188D01*
X27266467Y-73464086D01*
X27266460Y-73464090D01*
X27114116Y-73589116D01*
X26989090Y-73741460D01*
X26989086Y-73741467D01*
X26896188Y-73915266D01*
X26838975Y-74103870D01*
X26819659Y-74300000D01*
X26838975Y-74496129D01*
X26838976Y-74496132D01*
X26896186Y-74684727D01*
X26896187Y-74684730D01*
X26896188Y-74684731D01*
X26917705Y-74724988D01*
X26931946Y-74793391D01*
X26906945Y-74858635D01*
X26887012Y-74879292D01*
X26814114Y-74939118D01*
X26689090Y-75091460D01*
X26689086Y-75091467D01*
X26596188Y-75265266D01*
X26538975Y-75453870D01*
X26519659Y-75650000D01*
X24629569Y-75650000D01*
X24641765Y-75641460D01*
X24737401Y-75574495D01*
X24904495Y-75407401D01*
X25040035Y-75213830D01*
X25139903Y-74999663D01*
X25201063Y-74771408D01*
X25221659Y-74536000D01*
X25201063Y-74300592D01*
X25139903Y-74072337D01*
X25040035Y-73858171D01*
X25021659Y-73831926D01*
X24904494Y-73664597D01*
X24737402Y-73497506D01*
X24737395Y-73497501D01*
X24543834Y-73361967D01*
X24543830Y-73361965D01*
X24543828Y-73361964D01*
X24329663Y-73262097D01*
X24329659Y-73262096D01*
X24329655Y-73262094D01*
X24101413Y-73200938D01*
X24101403Y-73200936D01*
X23866001Y-73180341D01*
X23865999Y-73180341D01*
X23630596Y-73200936D01*
X23630586Y-73200938D01*
X23402344Y-73262094D01*
X23402335Y-73262098D01*
X23188171Y-73361964D01*
X23188169Y-73361965D01*
X22994597Y-73497505D01*
X22827505Y-73664597D01*
X22691965Y-73858169D01*
X22691964Y-73858171D01*
X22592098Y-74072335D01*
X22592094Y-74072344D01*
X22530938Y-74300586D01*
X22530936Y-74300596D01*
X22510341Y-74535999D01*
X22510341Y-74536000D01*
X22530936Y-74771403D01*
X22530938Y-74771413D01*
X22592094Y-74999655D01*
X22592096Y-74999659D01*
X22592097Y-74999663D01*
X22665283Y-75156611D01*
X22691965Y-75213830D01*
X22691967Y-75213834D01*
X22827501Y-75407395D01*
X22827506Y-75407402D01*
X22994597Y-75574493D01*
X22994603Y-75574498D01*
X23180158Y-75704425D01*
X23223783Y-75759002D01*
X23230977Y-75828500D01*
X23199454Y-75890855D01*
X23180158Y-75907575D01*
X22994597Y-76037505D01*
X22827505Y-76204597D01*
X22691965Y-76398169D01*
X22691964Y-76398171D01*
X22592098Y-76612335D01*
X22592094Y-76612344D01*
X22530938Y-76840586D01*
X22530936Y-76840596D01*
X22510341Y-77075999D01*
X22510341Y-77076000D01*
X22530936Y-77311403D01*
X22530938Y-77311413D01*
X22592094Y-77539655D01*
X22592096Y-77539659D01*
X22592097Y-77539663D01*
X22661774Y-77689086D01*
X22691965Y-77753830D01*
X22691967Y-77753834D01*
X22827501Y-77947395D01*
X22827506Y-77947402D01*
X22994597Y-78114493D01*
X22994603Y-78114498D01*
X23180158Y-78244425D01*
X23223783Y-78299002D01*
X23230977Y-78368500D01*
X23199454Y-78430855D01*
X23180158Y-78447575D01*
X22994597Y-78577505D01*
X22827505Y-78744597D01*
X22691965Y-78938169D01*
X22691964Y-78938171D01*
X22592098Y-79152335D01*
X22592094Y-79152344D01*
X22530938Y-79380586D01*
X22530936Y-79380596D01*
X22510341Y-79615999D01*
X22510341Y-79616000D01*
X12200500Y-79616000D01*
X12200500Y-62806028D01*
X24494710Y-62806028D01*
X24499264Y-62858067D01*
X24499500Y-62863473D01*
X24499500Y-62871712D01*
X24503306Y-62904277D01*
X24510000Y-62980794D01*
X24511461Y-62987870D01*
X24511403Y-62987881D01*
X24513034Y-62995240D01*
X24513092Y-62995227D01*
X24514757Y-63002253D01*
X24541025Y-63074427D01*
X24565185Y-63147334D01*
X24568236Y-63153877D01*
X24568182Y-63153901D01*
X24571470Y-63160691D01*
X24571521Y-63160666D01*
X24574761Y-63167116D01*
X24574762Y-63167117D01*
X24574763Y-63167120D01*
X24585562Y-63183539D01*
X24616965Y-63231286D01*
X24657287Y-63296658D01*
X24661766Y-63302322D01*
X24661719Y-63302359D01*
X24666482Y-63308205D01*
X24666528Y-63308167D01*
X24671173Y-63313703D01*
X24727018Y-63366389D01*
X29846264Y-68485634D01*
X29858045Y-68499266D01*
X29872387Y-68518530D01*
X29912417Y-68552119D01*
X29916389Y-68555759D01*
X29922220Y-68561590D01*
X29922219Y-68561590D01*
X29947941Y-68581927D01*
X30006783Y-68631302D01*
X30006791Y-68631306D01*
X30012821Y-68635273D01*
X30012787Y-68635323D01*
X30019134Y-68639366D01*
X30019166Y-68639316D01*
X30025315Y-68643108D01*
X30025317Y-68643109D01*
X30025320Y-68643111D01*
X30094927Y-68675569D01*
X30163564Y-68710040D01*
X30163573Y-68710042D01*
X30170352Y-68712510D01*
X30170331Y-68712567D01*
X30177448Y-68715040D01*
X30177467Y-68714984D01*
X30184327Y-68717257D01*
X30259529Y-68732784D01*
X30334276Y-68750500D01*
X30334285Y-68750500D01*
X30341449Y-68751338D01*
X30341442Y-68751397D01*
X30348943Y-68752163D01*
X30348949Y-68752104D01*
X30356137Y-68752733D01*
X30356140Y-68752732D01*
X30356141Y-68752733D01*
X30432895Y-68750500D01*
X36098651Y-68750500D01*
X36165690Y-68770185D01*
X36186332Y-68786819D01*
X40558037Y-73158523D01*
X40560512Y-73161146D01*
X40595923Y-73200937D01*
X40603115Y-73209018D01*
X40612300Y-73215449D01*
X40628858Y-73229343D01*
X41135148Y-73735634D01*
X41146929Y-73749266D01*
X41161271Y-73768530D01*
X41201301Y-73802119D01*
X41205273Y-73805759D01*
X41211104Y-73811590D01*
X41236823Y-73831926D01*
X41295664Y-73881300D01*
X41301706Y-73885274D01*
X41301672Y-73885324D01*
X41308028Y-73889373D01*
X41308061Y-73889321D01*
X41314206Y-73893112D01*
X41361716Y-73915266D01*
X41383802Y-73925565D01*
X41452448Y-73960040D01*
X41452450Y-73960040D01*
X41459238Y-73962511D01*
X41459217Y-73962568D01*
X41466332Y-73965040D01*
X41466351Y-73964984D01*
X41473211Y-73967257D01*
X41548413Y-73982784D01*
X41623160Y-74000500D01*
X41623169Y-74000500D01*
X41630333Y-74001338D01*
X41630326Y-74001397D01*
X41637827Y-74002163D01*
X41637833Y-74002104D01*
X41645021Y-74002733D01*
X41645024Y-74002732D01*
X41645025Y-74002733D01*
X41721779Y-74000500D01*
X42793022Y-74000500D01*
X42860061Y-74020185D01*
X42871687Y-74028647D01*
X42941460Y-74085909D01*
X42941467Y-74085913D01*
X43115266Y-74178811D01*
X43115269Y-74178811D01*
X43115273Y-74178814D01*
X43303868Y-74236024D01*
X43500000Y-74255341D01*
X43696132Y-74236024D01*
X43884727Y-74178814D01*
X44058538Y-74085910D01*
X44210883Y-73960883D01*
X44211690Y-73959899D01*
X44212243Y-73959522D01*
X44215191Y-73956575D01*
X44215749Y-73957133D01*
X44269431Y-73920563D01*
X44339276Y-73918688D01*
X44359562Y-73926670D01*
X44359641Y-73926482D01*
X44365260Y-73928809D01*
X44365268Y-73928811D01*
X44365273Y-73928814D01*
X44553868Y-73986024D01*
X44750000Y-74005341D01*
X44946132Y-73986024D01*
X45134727Y-73928814D01*
X45134737Y-73928809D01*
X45223748Y-73881231D01*
X45308538Y-73835910D01*
X45460883Y-73710883D01*
X45585910Y-73558538D01*
X45678814Y-73384727D01*
X45736024Y-73196132D01*
X45755341Y-73000000D01*
X45736024Y-72803868D01*
X45678814Y-72615273D01*
X45678811Y-72615269D01*
X45678811Y-72615266D01*
X45585913Y-72441467D01*
X45585909Y-72441460D01*
X45460883Y-72289116D01*
X45308539Y-72164090D01*
X45308532Y-72164086D01*
X45146282Y-72077362D01*
X45117055Y-72055686D01*
X45075729Y-72014361D01*
X45063945Y-72000726D01*
X45049611Y-71981472D01*
X45049610Y-71981470D01*
X45009593Y-71947892D01*
X45005605Y-71944238D01*
X44999781Y-71938413D01*
X44999780Y-71938412D01*
X44999777Y-71938409D01*
X44991539Y-71931895D01*
X44974041Y-71918059D01*
X44949777Y-71897700D01*
X44915214Y-71868698D01*
X44915210Y-71868696D01*
X44915209Y-71868695D01*
X44909180Y-71864729D01*
X44909212Y-71864680D01*
X44902853Y-71860628D01*
X44902822Y-71860679D01*
X44896680Y-71856891D01*
X44896678Y-71856890D01*
X44896677Y-71856889D01*
X44857474Y-71838608D01*
X44827058Y-71824424D01*
X44792894Y-71807267D01*
X44758433Y-71789960D01*
X44758431Y-71789959D01*
X44758430Y-71789959D01*
X44751645Y-71787489D01*
X44751665Y-71787433D01*
X44744549Y-71784959D01*
X44744531Y-71785015D01*
X44737671Y-71782742D01*
X44709841Y-71776996D01*
X44662434Y-71767207D01*
X44613472Y-71755603D01*
X44587719Y-71749499D01*
X44580547Y-71748661D01*
X44580553Y-71748601D01*
X44573055Y-71747835D01*
X44573050Y-71747895D01*
X44565860Y-71747265D01*
X44489083Y-71749500D01*
X41323112Y-71749500D01*
X41256073Y-71729815D01*
X41235431Y-71713181D01*
X37036610Y-67514361D01*
X37024830Y-67500730D01*
X37017363Y-67490701D01*
X37010493Y-67481472D01*
X37010491Y-67481470D01*
X36970468Y-67447886D01*
X36966493Y-67444244D01*
X36963571Y-67441322D01*
X36960661Y-67438411D01*
X36934921Y-67418059D01*
X36876090Y-67368694D01*
X36870061Y-67364729D01*
X36870093Y-67364680D01*
X36863734Y-67360628D01*
X36863703Y-67360679D01*
X36857561Y-67356891D01*
X36857559Y-67356890D01*
X36857558Y-67356889D01*
X36818355Y-67338608D01*
X36787939Y-67324424D01*
X36753775Y-67307267D01*
X36719314Y-67289960D01*
X36719312Y-67289959D01*
X36719311Y-67289959D01*
X36712526Y-67287489D01*
X36712546Y-67287433D01*
X36705430Y-67284959D01*
X36705412Y-67285015D01*
X36698552Y-67282742D01*
X36670722Y-67276996D01*
X36623315Y-67267207D01*
X36574353Y-67255603D01*
X36548600Y-67249499D01*
X36541428Y-67248661D01*
X36541434Y-67248601D01*
X36533936Y-67247835D01*
X36533931Y-67247895D01*
X36526741Y-67247265D01*
X36449964Y-67249500D01*
X30784227Y-67249500D01*
X30717188Y-67229815D01*
X30696546Y-67213181D01*
X28952553Y-65469188D01*
X43438847Y-65469188D01*
X43458163Y-65665317D01*
X43515376Y-65853921D01*
X43608274Y-66027720D01*
X43608278Y-66027727D01*
X43733304Y-66180071D01*
X43885648Y-66305097D01*
X43885655Y-66305101D01*
X44059454Y-66397999D01*
X44059457Y-66397999D01*
X44059461Y-66398002D01*
X44248056Y-66455212D01*
X44444188Y-66474529D01*
X44640320Y-66455212D01*
X44828915Y-66398002D01*
X45002726Y-66305098D01*
X45119516Y-66209249D01*
X45183824Y-66181937D01*
X45252692Y-66193728D01*
X45256633Y-66195745D01*
X45365267Y-66253811D01*
X45365273Y-66253814D01*
X45553868Y-66311024D01*
X45750000Y-66330341D01*
X45946132Y-66311024D01*
X46134727Y-66253814D01*
X46308538Y-66160910D01*
X46460883Y-66035883D01*
X46585910Y-65883538D01*
X46678814Y-65709727D01*
X46736024Y-65521132D01*
X46755341Y-65325000D01*
X46736024Y-65128868D01*
X46678814Y-64940273D01*
X46651202Y-64888616D01*
X46636961Y-64820214D01*
X46661961Y-64754970D01*
X46718265Y-64713599D01*
X46787999Y-64709237D01*
X46849021Y-64743267D01*
X46856413Y-64751497D01*
X46864115Y-64760882D01*
X47016460Y-64885909D01*
X47016467Y-64885913D01*
X47190266Y-64978811D01*
X47190269Y-64978811D01*
X47190273Y-64978814D01*
X47378868Y-65036024D01*
X47575000Y-65055341D01*
X47771132Y-65036024D01*
X47959727Y-64978814D01*
X48133538Y-64885910D01*
X48285883Y-64760883D01*
X48410910Y-64608538D01*
X48488241Y-64463861D01*
X48537200Y-64414020D01*
X48605338Y-64398559D01*
X48609721Y-64398911D01*
X48675000Y-64405341D01*
X48871132Y-64386024D01*
X49059727Y-64328814D01*
X49233538Y-64235910D01*
X49385883Y-64110883D01*
X49510910Y-63958538D01*
X49541256Y-63901763D01*
X49590217Y-63851919D01*
X49658355Y-63836457D01*
X49724035Y-63860287D01*
X49729280Y-63864362D01*
X49816460Y-63935909D01*
X49816467Y-63935913D01*
X49990266Y-64028811D01*
X49990269Y-64028811D01*
X49990273Y-64028814D01*
X50178868Y-64086024D01*
X50375000Y-64105341D01*
X50571132Y-64086024D01*
X50759727Y-64028814D01*
X50933538Y-63935910D01*
X51085883Y-63810883D01*
X51210910Y-63658538D01*
X51241406Y-63601482D01*
X51290366Y-63551639D01*
X51358504Y-63536177D01*
X51409219Y-63550578D01*
X51415273Y-63553814D01*
X51603868Y-63611024D01*
X51800000Y-63630341D01*
X51996132Y-63611024D01*
X52184727Y-63553814D01*
X52188797Y-63551639D01*
X52358532Y-63460913D01*
X52358538Y-63460910D01*
X52510883Y-63335883D01*
X52635910Y-63183538D01*
X52706708Y-63051085D01*
X52728811Y-63009733D01*
X52728811Y-63009732D01*
X52728814Y-63009727D01*
X52786024Y-62821132D01*
X52805341Y-62625000D01*
X52786024Y-62428868D01*
X52728814Y-62240273D01*
X52728811Y-62240269D01*
X52728811Y-62240266D01*
X52635913Y-62066467D01*
X52635909Y-62066460D01*
X52510883Y-61914116D01*
X52358539Y-61789090D01*
X52358532Y-61789086D01*
X52184733Y-61696188D01*
X52184727Y-61696186D01*
X51996132Y-61638976D01*
X51996129Y-61638975D01*
X51800000Y-61619659D01*
X51603870Y-61638975D01*
X51415266Y-61696188D01*
X51241467Y-61789086D01*
X51241460Y-61789090D01*
X51089116Y-61914116D01*
X50964092Y-62066458D01*
X50933593Y-62123518D01*
X50884630Y-62173362D01*
X50816492Y-62188822D01*
X50765781Y-62174422D01*
X50759730Y-62171187D01*
X50571129Y-62113975D01*
X50375000Y-62094659D01*
X50178870Y-62113975D01*
X49990266Y-62171188D01*
X49816467Y-62264086D01*
X49816460Y-62264090D01*
X49664116Y-62389116D01*
X49539090Y-62541460D01*
X49539085Y-62541467D01*
X49508742Y-62598237D01*
X49459780Y-62648082D01*
X49391642Y-62663542D01*
X49325962Y-62639710D01*
X49320719Y-62635637D01*
X49233539Y-62564091D01*
X49233532Y-62564086D01*
X49059733Y-62471188D01*
X49059727Y-62471186D01*
X48871132Y-62413976D01*
X48871129Y-62413975D01*
X48675000Y-62394659D01*
X48478870Y-62413975D01*
X48290266Y-62471188D01*
X48116467Y-62564086D01*
X48116460Y-62564090D01*
X47964116Y-62689116D01*
X47839090Y-62841460D01*
X47839088Y-62841463D01*
X47761759Y-62986136D01*
X47712796Y-63035980D01*
X47644659Y-63051440D01*
X47640248Y-63051085D01*
X47575000Y-63044659D01*
X47378870Y-63063975D01*
X47190266Y-63121188D01*
X47016467Y-63214086D01*
X47016460Y-63214090D01*
X46864116Y-63339116D01*
X46739090Y-63491460D01*
X46739086Y-63491467D01*
X46646188Y-63665266D01*
X46588975Y-63853870D01*
X46569659Y-64050000D01*
X46588975Y-64246129D01*
X46588976Y-64246132D01*
X46644391Y-64428811D01*
X46646188Y-64434733D01*
X46673796Y-64486383D01*
X46688038Y-64554786D01*
X46663038Y-64620030D01*
X46606733Y-64661400D01*
X46536999Y-64665762D01*
X46475978Y-64631731D01*
X46468585Y-64623501D01*
X46460883Y-64614116D01*
X46308539Y-64489090D01*
X46308532Y-64489086D01*
X46134733Y-64396188D01*
X46134727Y-64396186D01*
X45946132Y-64338976D01*
X45946129Y-64338975D01*
X45750000Y-64319659D01*
X45553870Y-64338975D01*
X45365266Y-64396188D01*
X45191467Y-64489086D01*
X45191460Y-64489090D01*
X45074672Y-64584937D01*
X45010362Y-64612250D01*
X44941494Y-64600459D01*
X44937554Y-64598442D01*
X44828921Y-64540376D01*
X44828915Y-64540374D01*
X44659842Y-64489086D01*
X44640317Y-64483163D01*
X44444188Y-64463847D01*
X44248058Y-64483163D01*
X44059454Y-64540376D01*
X43885655Y-64633274D01*
X43885648Y-64633278D01*
X43733304Y-64758304D01*
X43608278Y-64910648D01*
X43608274Y-64910655D01*
X43515376Y-65084454D01*
X43458163Y-65273058D01*
X43438847Y-65469188D01*
X28952553Y-65469188D01*
X28934163Y-65450798D01*
X28900678Y-65389475D01*
X28905662Y-65319783D01*
X28943180Y-65267263D01*
X28992383Y-65226883D01*
X29117410Y-65074538D01*
X29189178Y-64940269D01*
X29210311Y-64900733D01*
X29210311Y-64900732D01*
X29210314Y-64900727D01*
X29267524Y-64712132D01*
X29277428Y-64611563D01*
X29303588Y-64546779D01*
X29360622Y-64506419D01*
X29412983Y-64500316D01*
X29464000Y-64505341D01*
X29660132Y-64486024D01*
X29848727Y-64428814D01*
X30022538Y-64335910D01*
X30174883Y-64210883D01*
X30299910Y-64058538D01*
X30353936Y-63957462D01*
X30392811Y-63884733D01*
X30392811Y-63884732D01*
X30392814Y-63884727D01*
X30450024Y-63696132D01*
X30469341Y-63500000D01*
X30450024Y-63303868D01*
X30392814Y-63115273D01*
X30392811Y-63115269D01*
X30392811Y-63115266D01*
X30299913Y-62941467D01*
X30299909Y-62941460D01*
X30174883Y-62789116D01*
X30022539Y-62664090D01*
X30022532Y-62664086D01*
X29890209Y-62593358D01*
X29840365Y-62544396D01*
X29824904Y-62476258D01*
X29848736Y-62410579D01*
X29890209Y-62374642D01*
X29989047Y-62321811D01*
X30022538Y-62303910D01*
X30174883Y-62178883D01*
X30299910Y-62026538D01*
X30380165Y-61876392D01*
X30392811Y-61852733D01*
X30392811Y-61852732D01*
X30392814Y-61852727D01*
X30450024Y-61664132D01*
X30469341Y-61468000D01*
X30450024Y-61271868D01*
X30392814Y-61083273D01*
X30392811Y-61083269D01*
X30392811Y-61083266D01*
X30299913Y-60909467D01*
X30299909Y-60909460D01*
X30174883Y-60757116D01*
X30022539Y-60632090D01*
X30022532Y-60632086D01*
X29848733Y-60539188D01*
X29848727Y-60539186D01*
X29660132Y-60481976D01*
X29660129Y-60481975D01*
X29464000Y-60462659D01*
X29267870Y-60481975D01*
X29079266Y-60539188D01*
X28905467Y-60632086D01*
X28905460Y-60632090D01*
X28753116Y-60757116D01*
X28628090Y-60909460D01*
X28628085Y-60909467D01*
X28557358Y-61041790D01*
X28508396Y-61091635D01*
X28440258Y-61107095D01*
X28374578Y-61083263D01*
X28338642Y-61041790D01*
X28267914Y-60909467D01*
X28267909Y-60909460D01*
X28142883Y-60757116D01*
X27990539Y-60632090D01*
X27990532Y-60632086D01*
X27816733Y-60539188D01*
X27816727Y-60539186D01*
X27628132Y-60481976D01*
X27628129Y-60481975D01*
X27432000Y-60462659D01*
X27235870Y-60481975D01*
X27047266Y-60539188D01*
X26873467Y-60632086D01*
X26873460Y-60632090D01*
X26721116Y-60757116D01*
X26596090Y-60909460D01*
X26596086Y-60909467D01*
X26503188Y-61083266D01*
X26445975Y-61271870D01*
X26426659Y-61468000D01*
X26445975Y-61664129D01*
X26455700Y-61696188D01*
X26500649Y-61844365D01*
X26503188Y-61852733D01*
X26596086Y-62026532D01*
X26596090Y-62026539D01*
X26721116Y-62178883D01*
X26873460Y-62303909D01*
X26873467Y-62303913D01*
X27047266Y-62396811D01*
X27047269Y-62396811D01*
X27047273Y-62396814D01*
X27235868Y-62454024D01*
X27432000Y-62473341D01*
X27628132Y-62454024D01*
X27816727Y-62396814D01*
X27846452Y-62380926D01*
X27906182Y-62348999D01*
X27990538Y-62303910D01*
X28142883Y-62178883D01*
X28267910Y-62026538D01*
X28318653Y-61931605D01*
X28338642Y-61894209D01*
X28387604Y-61844365D01*
X28455742Y-61828904D01*
X28521421Y-61852736D01*
X28557358Y-61894209D01*
X28628086Y-62026532D01*
X28628090Y-62026539D01*
X28753116Y-62178883D01*
X28905460Y-62303909D01*
X28905467Y-62303914D01*
X29037790Y-62374642D01*
X29087635Y-62423604D01*
X29103095Y-62491742D01*
X29079263Y-62557422D01*
X29037790Y-62593358D01*
X28905467Y-62664085D01*
X28905460Y-62664090D01*
X28753116Y-62789116D01*
X28628090Y-62941460D01*
X28628086Y-62941467D01*
X28535188Y-63115266D01*
X28477975Y-63303870D01*
X28468071Y-63404434D01*
X28441910Y-63469221D01*
X28384876Y-63509580D01*
X28332515Y-63515683D01*
X28281500Y-63510659D01*
X28085370Y-63529975D01*
X27896766Y-63587188D01*
X27722967Y-63680086D01*
X27722960Y-63680090D01*
X27570615Y-63805117D01*
X27530234Y-63854321D01*
X27472487Y-63893655D01*
X27402643Y-63895524D01*
X27346701Y-63863336D01*
X26036819Y-62553454D01*
X26003334Y-62492131D01*
X26000500Y-62465773D01*
X26000500Y-57009000D01*
X31362073Y-57009000D01*
X31381737Y-57221216D01*
X31381738Y-57221219D01*
X31440058Y-57426196D01*
X31440066Y-57426216D01*
X31535060Y-57616990D01*
X31543834Y-57628609D01*
X31543835Y-57628609D01*
X32163446Y-57009000D01*
X31543835Y-56389389D01*
X31535056Y-56401015D01*
X31440066Y-56591783D01*
X31440058Y-56591803D01*
X31381738Y-56796780D01*
X31381737Y-56796783D01*
X31362073Y-57008999D01*
X31362073Y-57009000D01*
X26000500Y-57009000D01*
X26000500Y-45475000D01*
X28519659Y-45475000D01*
X28538975Y-45671129D01*
X28596188Y-45859733D01*
X28689086Y-46033532D01*
X28689090Y-46033539D01*
X28814116Y-46185883D01*
X28966460Y-46310909D01*
X28966467Y-46310913D01*
X29140266Y-46403811D01*
X29140269Y-46403811D01*
X29140273Y-46403814D01*
X29328868Y-46461024D01*
X29418697Y-46469871D01*
X29483485Y-46496031D01*
X29494225Y-46505593D01*
X29974270Y-46985638D01*
X29986051Y-46999270D01*
X30000388Y-47018528D01*
X30040409Y-47052111D01*
X30044397Y-47055766D01*
X30050216Y-47061585D01*
X30050220Y-47061588D01*
X30050223Y-47061591D01*
X30075959Y-47081940D01*
X30134786Y-47131302D01*
X30134787Y-47131302D01*
X30134789Y-47131304D01*
X30140818Y-47135270D01*
X30140785Y-47135319D01*
X30147147Y-47139372D01*
X30147179Y-47139321D01*
X30153319Y-47143108D01*
X30153323Y-47143111D01*
X30188132Y-47159343D01*
X30222941Y-47175575D01*
X30291565Y-47210039D01*
X30291567Y-47210040D01*
X30291569Y-47210040D01*
X30298357Y-47212511D01*
X30298336Y-47212567D01*
X30305457Y-47215043D01*
X30305476Y-47214986D01*
X30312319Y-47217253D01*
X30312327Y-47217257D01*
X30312334Y-47217258D01*
X30312336Y-47217259D01*
X30387561Y-47232792D01*
X30399531Y-47235628D01*
X30404090Y-47236708D01*
X30464784Y-47271318D01*
X30497132Y-47333249D01*
X30499500Y-47357367D01*
X30499500Y-53898294D01*
X30498191Y-53916263D01*
X30494710Y-53940025D01*
X30499264Y-53992064D01*
X30499500Y-53997470D01*
X30499500Y-54005709D01*
X30501211Y-54020353D01*
X30503306Y-54038274D01*
X30510000Y-54114791D01*
X30511461Y-54121867D01*
X30511403Y-54121878D01*
X30513034Y-54129237D01*
X30513092Y-54129224D01*
X30514757Y-54136250D01*
X30541025Y-54208424D01*
X30565185Y-54281331D01*
X30568236Y-54287874D01*
X30568182Y-54287898D01*
X30571470Y-54294688D01*
X30571521Y-54294663D01*
X30574761Y-54301113D01*
X30574762Y-54301114D01*
X30574763Y-54301117D01*
X30599678Y-54338999D01*
X30616965Y-54365283D01*
X30657287Y-54430655D01*
X30661766Y-54436319D01*
X30661719Y-54436356D01*
X30666482Y-54442202D01*
X30666528Y-54442164D01*
X30671173Y-54447700D01*
X30727018Y-54500386D01*
X31328386Y-55101754D01*
X31361871Y-55163077D01*
X31364176Y-55200872D01*
X31361571Y-55228994D01*
X31361571Y-55229000D01*
X31381244Y-55441310D01*
X31439596Y-55646392D01*
X31439596Y-55646394D01*
X31534632Y-55837253D01*
X31587069Y-55906690D01*
X31663128Y-56007407D01*
X31820698Y-56151052D01*
X32001981Y-56263298D01*
X32178163Y-56331550D01*
X32221049Y-56359496D01*
X32520553Y-56659000D01*
X32487995Y-56659000D01*
X32401784Y-56673386D01*
X32299053Y-56728981D01*
X32219940Y-56814921D01*
X32173018Y-56921892D01*
X32163372Y-57038302D01*
X32192047Y-57151538D01*
X32255936Y-57249327D01*
X32348115Y-57321072D01*
X32458595Y-57359000D01*
X32520553Y-57359000D01*
X32221048Y-57658504D01*
X32178161Y-57686450D01*
X32001982Y-57754701D01*
X32001980Y-57754702D01*
X31820699Y-57866947D01*
X31663127Y-58010593D01*
X31534632Y-58180746D01*
X31439596Y-58371605D01*
X31439596Y-58371607D01*
X31381244Y-58576689D01*
X31361571Y-58788999D01*
X31361571Y-58789000D01*
X31381244Y-59001310D01*
X31439596Y-59206392D01*
X31439596Y-59206394D01*
X31534632Y-59397253D01*
X31663130Y-59567409D01*
X31663130Y-59567410D01*
X31685019Y-59587365D01*
X31721299Y-59647077D01*
X31719537Y-59716924D01*
X31685019Y-59770635D01*
X31663130Y-59790589D01*
X31663130Y-59790590D01*
X31534632Y-59960746D01*
X31439596Y-60151605D01*
X31439596Y-60151607D01*
X31439595Y-60151611D01*
X31381244Y-60356690D01*
X31361571Y-60569000D01*
X31381244Y-60781310D01*
X31417708Y-60909467D01*
X31439596Y-60986392D01*
X31439596Y-60986394D01*
X31534632Y-61177253D01*
X31663130Y-61347409D01*
X31663130Y-61347410D01*
X31685019Y-61367365D01*
X31721299Y-61427077D01*
X31719537Y-61496924D01*
X31685019Y-61550635D01*
X31663130Y-61570589D01*
X31663130Y-61570590D01*
X31534632Y-61740746D01*
X31439596Y-61931605D01*
X31439596Y-61931607D01*
X31381244Y-62136689D01*
X31361571Y-62348999D01*
X31361571Y-62349000D01*
X31381244Y-62561310D01*
X31439596Y-62766392D01*
X31439596Y-62766394D01*
X31534632Y-62957253D01*
X31663127Y-63127406D01*
X31663128Y-63127407D01*
X31820698Y-63271052D01*
X32001981Y-63383298D01*
X32200802Y-63460321D01*
X32410390Y-63499500D01*
X32410392Y-63499500D01*
X32623608Y-63499500D01*
X32623610Y-63499500D01*
X32833198Y-63460321D01*
X33032019Y-63383298D01*
X33032212Y-63383178D01*
X33032315Y-63383150D01*
X33037149Y-63380743D01*
X33037619Y-63381688D01*
X33099568Y-63364615D01*
X33166270Y-63385415D01*
X33211138Y-63438975D01*
X33221500Y-63488598D01*
X33221500Y-64455737D01*
X33221500Y-64547263D01*
X33225493Y-64555554D01*
X33234660Y-64581753D01*
X33236710Y-64590731D01*
X33236711Y-64590733D01*
X33236712Y-64590734D01*
X33242449Y-64597928D01*
X33257218Y-64621431D01*
X33261211Y-64629723D01*
X33261212Y-64629724D01*
X33268406Y-64635461D01*
X33288038Y-64655093D01*
X33293776Y-64662288D01*
X33302065Y-64666279D01*
X33325570Y-64681049D01*
X33332769Y-64686790D01*
X33341743Y-64688838D01*
X33367944Y-64698006D01*
X33376237Y-64702000D01*
X42357762Y-64702000D01*
X42357763Y-64702000D01*
X42366049Y-64698008D01*
X42392262Y-64688837D01*
X42394446Y-64688338D01*
X42401231Y-64686790D01*
X42408422Y-64681054D01*
X42431933Y-64666280D01*
X42440224Y-64662288D01*
X42445955Y-64655100D01*
X42465601Y-64635455D01*
X42470271Y-64631731D01*
X42472788Y-64629724D01*
X42476782Y-64621431D01*
X42491556Y-64597920D01*
X42497290Y-64590731D01*
X42499337Y-64581762D01*
X42508510Y-64555547D01*
X42512500Y-64547263D01*
X42512500Y-64455737D01*
X42512500Y-64378598D01*
X42532185Y-64311559D01*
X42584989Y-64265804D01*
X42654147Y-64255860D01*
X42696580Y-64271285D01*
X42696851Y-64270743D01*
X42701615Y-64273115D01*
X42701787Y-64273177D01*
X42701981Y-64273298D01*
X42900802Y-64350321D01*
X43110390Y-64389500D01*
X43110392Y-64389500D01*
X43323608Y-64389500D01*
X43323610Y-64389500D01*
X43533198Y-64350321D01*
X43732019Y-64273298D01*
X43913302Y-64161052D01*
X44070872Y-64017407D01*
X44199366Y-63847255D01*
X44274617Y-63696129D01*
X44294403Y-63656394D01*
X44294403Y-63656393D01*
X44294405Y-63656389D01*
X44352756Y-63451310D01*
X44372429Y-63239000D01*
X44352756Y-63026690D01*
X44294405Y-62821611D01*
X44294403Y-62821606D01*
X44294403Y-62821605D01*
X44199367Y-62630746D01*
X44070870Y-62460590D01*
X44048982Y-62440637D01*
X44012700Y-62380926D01*
X44014461Y-62311078D01*
X44048982Y-62257363D01*
X44070870Y-62237409D01*
X44107562Y-62188822D01*
X44199366Y-62067255D01*
X44219640Y-62026539D01*
X44294403Y-61876394D01*
X44294403Y-61876393D01*
X44294405Y-61876389D01*
X44352756Y-61671310D01*
X44372429Y-61459000D01*
X44352756Y-61246690D01*
X44294405Y-61041611D01*
X44294403Y-61041606D01*
X44294403Y-61041605D01*
X44199367Y-60850746D01*
X44070870Y-60680590D01*
X44048982Y-60660637D01*
X44012700Y-60600926D01*
X44014461Y-60531078D01*
X44048982Y-60477363D01*
X44070870Y-60457409D01*
X44070872Y-60457407D01*
X44199366Y-60287255D01*
X44294405Y-60096389D01*
X44352756Y-59891310D01*
X44372429Y-59679000D01*
X44352756Y-59466690D01*
X44294405Y-59261611D01*
X44294403Y-59261606D01*
X44294403Y-59261605D01*
X44199367Y-59070746D01*
X44070870Y-58900590D01*
X44048982Y-58880637D01*
X44012700Y-58820926D01*
X44014461Y-58751078D01*
X44048982Y-58697363D01*
X44070870Y-58677409D01*
X44070872Y-58677407D01*
X44199366Y-58507255D01*
X44294405Y-58316389D01*
X44352756Y-58111310D01*
X44372429Y-57899000D01*
X44352756Y-57686690D01*
X44294405Y-57481611D01*
X44294403Y-57481606D01*
X44294403Y-57481605D01*
X44199367Y-57290746D01*
X44070870Y-57120590D01*
X44048982Y-57100637D01*
X44012700Y-57040926D01*
X44014461Y-56971078D01*
X44048982Y-56917363D01*
X44070870Y-56897409D01*
X44070872Y-56897407D01*
X44199366Y-56727255D01*
X44233353Y-56659000D01*
X44294403Y-56536394D01*
X44294403Y-56536393D01*
X44294405Y-56536389D01*
X44352756Y-56331310D01*
X44372429Y-56119000D01*
X44352756Y-55906690D01*
X44294405Y-55701611D01*
X44294403Y-55701606D01*
X44294403Y-55701605D01*
X44199367Y-55510746D01*
X44070870Y-55340590D01*
X44048982Y-55320637D01*
X44012700Y-55260926D01*
X44014461Y-55191078D01*
X44048982Y-55137363D01*
X44070870Y-55117409D01*
X44070872Y-55117407D01*
X44199366Y-54947255D01*
X44284235Y-54776814D01*
X44294403Y-54756394D01*
X44294403Y-54756393D01*
X44294405Y-54756389D01*
X44352756Y-54551310D01*
X44372429Y-54339000D01*
X44352756Y-54126690D01*
X44294405Y-53921611D01*
X44294403Y-53921606D01*
X44294403Y-53921605D01*
X44257752Y-53848000D01*
X44714659Y-53848000D01*
X44733975Y-54044129D01*
X44733976Y-54044132D01*
X44783813Y-54208423D01*
X44791188Y-54232733D01*
X44884086Y-54406532D01*
X44884090Y-54406539D01*
X45009116Y-54558883D01*
X45161460Y-54683909D01*
X45161467Y-54683913D01*
X45335266Y-54776811D01*
X45335269Y-54776811D01*
X45335273Y-54776814D01*
X45523868Y-54834024D01*
X45720000Y-54853341D01*
X45916132Y-54834024D01*
X46104727Y-54776814D01*
X46142940Y-54756389D01*
X46278532Y-54683913D01*
X46278538Y-54683910D01*
X46430883Y-54558883D01*
X46555910Y-54406538D01*
X46615695Y-54294688D01*
X46648811Y-54232733D01*
X46648811Y-54232732D01*
X46648814Y-54232727D01*
X46706024Y-54044132D01*
X46722754Y-53874259D01*
X46748915Y-53809474D01*
X46805949Y-53769115D01*
X46875749Y-53765998D01*
X46882131Y-53767748D01*
X47047868Y-53818024D01*
X47244000Y-53837341D01*
X47440132Y-53818024D01*
X47628727Y-53760814D01*
X47802538Y-53667910D01*
X47954883Y-53542883D01*
X48079910Y-53390538D01*
X48172814Y-53216727D01*
X48230024Y-53028132D01*
X48249341Y-52832000D01*
X48230024Y-52635868D01*
X48172814Y-52447273D01*
X48172811Y-52447269D01*
X48172811Y-52447266D01*
X48079913Y-52273467D01*
X48079909Y-52273460D01*
X47954883Y-52121116D01*
X47802539Y-51996090D01*
X47802532Y-51996086D01*
X47628733Y-51903188D01*
X47628727Y-51903186D01*
X47440132Y-51845976D01*
X47440129Y-51845975D01*
X47244000Y-51826659D01*
X47047870Y-51845975D01*
X46859266Y-51903188D01*
X46685467Y-51996086D01*
X46685460Y-51996090D01*
X46533116Y-52121116D01*
X46408090Y-52273460D01*
X46408086Y-52273467D01*
X46315188Y-52447266D01*
X46257975Y-52635870D01*
X46241245Y-52805738D01*
X46215084Y-52870525D01*
X46158049Y-52910884D01*
X46088249Y-52914001D01*
X46081847Y-52912245D01*
X45916130Y-52861975D01*
X45720000Y-52842659D01*
X45523870Y-52861975D01*
X45335266Y-52919188D01*
X45161467Y-53012086D01*
X45161460Y-53012090D01*
X45009116Y-53137116D01*
X44884090Y-53289460D01*
X44884086Y-53289467D01*
X44791188Y-53463266D01*
X44733975Y-53651870D01*
X44714659Y-53848000D01*
X44257752Y-53848000D01*
X44199367Y-53730746D01*
X44070870Y-53560590D01*
X44048982Y-53540637D01*
X44012700Y-53480926D01*
X44014461Y-53411078D01*
X44048982Y-53357363D01*
X44070870Y-53337409D01*
X44070872Y-53337407D01*
X44199366Y-53167255D01*
X44217741Y-53130353D01*
X44294403Y-52976394D01*
X44294403Y-52976393D01*
X44294405Y-52976389D01*
X44352756Y-52771310D01*
X44372429Y-52559000D01*
X44352756Y-52346690D01*
X44294405Y-52141611D01*
X44294403Y-52141606D01*
X44294403Y-52141605D01*
X44199367Y-51950746D01*
X44070870Y-51780590D01*
X44048982Y-51760637D01*
X44012700Y-51700926D01*
X44014461Y-51631078D01*
X44048982Y-51577363D01*
X44070870Y-51557409D01*
X44070872Y-51557407D01*
X44199366Y-51387255D01*
X44294405Y-51196389D01*
X44352756Y-50991310D01*
X44372429Y-50779000D01*
X44352756Y-50566690D01*
X44294405Y-50361611D01*
X44294403Y-50361606D01*
X44294403Y-50361605D01*
X44199367Y-50170746D01*
X44070872Y-50000593D01*
X43913302Y-49856948D01*
X43732019Y-49744702D01*
X43732017Y-49744701D01*
X43556458Y-49676690D01*
X43533198Y-49667679D01*
X43323610Y-49628500D01*
X43110390Y-49628500D01*
X42900802Y-49667679D01*
X42900799Y-49667679D01*
X42900799Y-49667680D01*
X42701982Y-49744701D01*
X42701972Y-49744706D01*
X42701775Y-49744829D01*
X42701667Y-49744858D01*
X42696851Y-49747257D01*
X42696381Y-49746314D01*
X42634414Y-49763383D01*
X42567715Y-49742574D01*
X42522855Y-49689008D01*
X42512500Y-49639401D01*
X42512500Y-48580737D01*
X42508507Y-48572446D01*
X42499338Y-48546243D01*
X42497290Y-48537269D01*
X42491546Y-48530066D01*
X42476779Y-48506565D01*
X42472788Y-48498276D01*
X42465593Y-48492538D01*
X42445959Y-48472904D01*
X42440223Y-48465711D01*
X42431931Y-48461718D01*
X42408428Y-48446949D01*
X42401234Y-48441212D01*
X42401233Y-48441211D01*
X42401231Y-48441210D01*
X42392253Y-48439160D01*
X42366057Y-48429994D01*
X42357763Y-48426000D01*
X42334590Y-48426000D01*
X33467763Y-48426000D01*
X33376237Y-48426000D01*
X33376235Y-48426000D01*
X33376233Y-48426001D01*
X33367939Y-48429995D01*
X33341745Y-48439160D01*
X33332769Y-48441209D01*
X33325566Y-48446953D01*
X33302070Y-48461717D01*
X33293776Y-48465711D01*
X33293775Y-48465713D01*
X33288036Y-48472909D01*
X33268409Y-48492536D01*
X33261213Y-48498275D01*
X33261211Y-48498276D01*
X33257217Y-48506570D01*
X33242453Y-48530066D01*
X33236709Y-48537269D01*
X33234660Y-48546245D01*
X33225495Y-48572439D01*
X33221501Y-48580733D01*
X33221500Y-48580738D01*
X33221500Y-48749401D01*
X33201815Y-48816440D01*
X33149011Y-48862195D01*
X33079853Y-48872139D01*
X33037418Y-48856716D01*
X33037149Y-48857257D01*
X33032402Y-48854893D01*
X33032225Y-48854829D01*
X33032027Y-48854706D01*
X33032017Y-48854701D01*
X32879837Y-48795747D01*
X32833198Y-48777679D01*
X32623610Y-48738500D01*
X32410390Y-48738500D01*
X32279135Y-48763036D01*
X32200796Y-48777680D01*
X32169293Y-48789885D01*
X32099670Y-48795747D01*
X32037930Y-48763036D01*
X32003675Y-48702140D01*
X32000500Y-48674258D01*
X32000500Y-46523640D01*
X32000605Y-46520034D01*
X32002003Y-46496031D01*
X32004331Y-46456065D01*
X32002384Y-46445021D01*
X32000500Y-46423490D01*
X32000500Y-45431976D01*
X32020185Y-45364937D01*
X32028632Y-45353329D01*
X32085910Y-45283538D01*
X32178814Y-45109727D01*
X32236024Y-44921132D01*
X32255341Y-44725000D01*
X32236024Y-44528868D01*
X32178814Y-44340273D01*
X32178811Y-44340269D01*
X32178811Y-44340266D01*
X32085913Y-44166467D01*
X32085909Y-44166460D01*
X31960883Y-44014116D01*
X31808539Y-43889090D01*
X31808532Y-43889086D01*
X31634733Y-43796188D01*
X31634727Y-43796186D01*
X31446132Y-43738976D01*
X31446129Y-43738975D01*
X31250000Y-43719659D01*
X31053870Y-43738975D01*
X30865266Y-43796188D01*
X30691467Y-43889086D01*
X30691460Y-43889090D01*
X30539116Y-44014116D01*
X30414090Y-44166460D01*
X30414086Y-44166467D01*
X30321188Y-44340266D01*
X30263974Y-44528874D01*
X30262827Y-44540520D01*
X30236663Y-44605306D01*
X30179627Y-44645662D01*
X30109826Y-44648776D01*
X30080972Y-44637718D01*
X29909732Y-44546188D01*
X29909729Y-44546187D01*
X29909727Y-44546186D01*
X29721132Y-44488976D01*
X29721129Y-44488975D01*
X29525000Y-44469659D01*
X29328870Y-44488975D01*
X29140266Y-44546188D01*
X28966467Y-44639086D01*
X28966460Y-44639090D01*
X28814116Y-44764116D01*
X28689090Y-44916460D01*
X28689086Y-44916467D01*
X28596188Y-45090266D01*
X28538975Y-45278870D01*
X28519659Y-45475000D01*
X26000500Y-45475000D01*
X26000500Y-40640006D01*
X35743700Y-40640006D01*
X35762864Y-40871297D01*
X35762866Y-40871308D01*
X35819842Y-41096300D01*
X35913075Y-41308848D01*
X36040016Y-41503147D01*
X36040019Y-41503151D01*
X36040021Y-41503153D01*
X36197216Y-41673913D01*
X36197219Y-41673915D01*
X36197222Y-41673918D01*
X36380365Y-41816464D01*
X36380371Y-41816468D01*
X36380374Y-41816470D01*
X36584497Y-41926936D01*
X36698487Y-41966068D01*
X36804015Y-42002297D01*
X36804017Y-42002297D01*
X36804019Y-42002298D01*
X37032951Y-42040500D01*
X37032952Y-42040500D01*
X37265048Y-42040500D01*
X37265049Y-42040500D01*
X37493981Y-42002298D01*
X37713503Y-41926936D01*
X37917626Y-41816470D01*
X38100784Y-41673913D01*
X38257979Y-41503153D01*
X38384924Y-41308849D01*
X38478157Y-41096300D01*
X38535134Y-40871305D01*
X38554300Y-40640006D01*
X55743700Y-40640006D01*
X55762864Y-40871297D01*
X55762866Y-40871308D01*
X55819842Y-41096300D01*
X55913075Y-41308848D01*
X56040016Y-41503147D01*
X56040019Y-41503151D01*
X56040021Y-41503153D01*
X56197216Y-41673913D01*
X56197219Y-41673915D01*
X56197222Y-41673918D01*
X56380365Y-41816464D01*
X56380371Y-41816468D01*
X56380374Y-41816470D01*
X56584497Y-41926936D01*
X56698487Y-41966068D01*
X56804015Y-42002297D01*
X56804017Y-42002297D01*
X56804019Y-42002298D01*
X57032951Y-42040500D01*
X57032952Y-42040500D01*
X57265048Y-42040500D01*
X57265049Y-42040500D01*
X57493981Y-42002298D01*
X57713503Y-41926936D01*
X57917626Y-41816470D01*
X58100784Y-41673913D01*
X58257979Y-41503153D01*
X58384924Y-41308849D01*
X58478157Y-41096300D01*
X58535134Y-40871305D01*
X58554300Y-40640000D01*
X58554300Y-40639993D01*
X58535135Y-40408702D01*
X58535133Y-40408691D01*
X58478157Y-40183699D01*
X58384924Y-39971151D01*
X58257983Y-39776852D01*
X58257980Y-39776849D01*
X58257979Y-39776847D01*
X58100784Y-39606087D01*
X58100779Y-39606083D01*
X58100777Y-39606081D01*
X57917634Y-39463535D01*
X57917628Y-39463531D01*
X57713504Y-39353064D01*
X57713495Y-39353061D01*
X57493984Y-39277702D01*
X57322282Y-39249050D01*
X57265049Y-39239500D01*
X57032951Y-39239500D01*
X56987164Y-39247140D01*
X56804015Y-39277702D01*
X56584504Y-39353061D01*
X56584495Y-39353064D01*
X56380371Y-39463531D01*
X56380365Y-39463535D01*
X56197222Y-39606081D01*
X56197219Y-39606084D01*
X56040016Y-39776852D01*
X55913075Y-39971151D01*
X55819842Y-40183699D01*
X55762866Y-40408691D01*
X55762864Y-40408702D01*
X55743700Y-40639993D01*
X55743700Y-40640006D01*
X38554300Y-40640006D01*
X38554300Y-40640000D01*
X38554300Y-40639993D01*
X38535135Y-40408702D01*
X38535133Y-40408691D01*
X38478157Y-40183699D01*
X38384924Y-39971151D01*
X38257983Y-39776852D01*
X38257980Y-39776849D01*
X38257979Y-39776847D01*
X38100784Y-39606087D01*
X38100779Y-39606083D01*
X38100777Y-39606081D01*
X37917634Y-39463535D01*
X37917628Y-39463531D01*
X37713504Y-39353064D01*
X37713495Y-39353061D01*
X37493984Y-39277702D01*
X37322282Y-39249050D01*
X37265049Y-39239500D01*
X37032951Y-39239500D01*
X36987164Y-39247140D01*
X36804015Y-39277702D01*
X36584504Y-39353061D01*
X36584495Y-39353064D01*
X36380371Y-39463531D01*
X36380365Y-39463535D01*
X36197222Y-39606081D01*
X36197219Y-39606084D01*
X36040016Y-39776852D01*
X35913075Y-39971151D01*
X35819842Y-40183699D01*
X35762866Y-40408691D01*
X35762864Y-40408702D01*
X35743700Y-40639993D01*
X35743700Y-40640006D01*
X26000500Y-40640006D01*
X26000500Y-35752039D01*
X26020185Y-35685000D01*
X26036814Y-35664363D01*
X26141171Y-35560006D01*
X35743700Y-35560006D01*
X35762864Y-35791297D01*
X35762866Y-35791308D01*
X35819842Y-36016300D01*
X35913075Y-36228848D01*
X36040016Y-36423147D01*
X36040019Y-36423151D01*
X36040021Y-36423153D01*
X36197216Y-36593913D01*
X36197219Y-36593915D01*
X36197222Y-36593918D01*
X36380365Y-36736464D01*
X36380371Y-36736468D01*
X36380374Y-36736470D01*
X36584497Y-36846936D01*
X36698487Y-36886068D01*
X36804015Y-36922297D01*
X36804017Y-36922297D01*
X36804019Y-36922298D01*
X37032951Y-36960500D01*
X37032952Y-36960500D01*
X37265048Y-36960500D01*
X37265049Y-36960500D01*
X37493981Y-36922298D01*
X37713503Y-36846936D01*
X37917626Y-36736470D01*
X38100784Y-36593913D01*
X38257979Y-36423153D01*
X38384924Y-36228849D01*
X38478157Y-36016300D01*
X38535134Y-35791305D01*
X38538388Y-35752039D01*
X38554300Y-35560006D01*
X55743700Y-35560006D01*
X55762864Y-35791297D01*
X55762866Y-35791308D01*
X55819842Y-36016300D01*
X55913075Y-36228848D01*
X56040016Y-36423147D01*
X56040019Y-36423151D01*
X56040021Y-36423153D01*
X56197216Y-36593913D01*
X56197219Y-36593915D01*
X56197222Y-36593918D01*
X56380365Y-36736464D01*
X56380371Y-36736468D01*
X56380374Y-36736470D01*
X56584497Y-36846936D01*
X56698487Y-36886068D01*
X56804015Y-36922297D01*
X56804017Y-36922297D01*
X56804019Y-36922298D01*
X57032951Y-36960500D01*
X57032952Y-36960500D01*
X57265048Y-36960500D01*
X57265049Y-36960500D01*
X57493981Y-36922298D01*
X57713503Y-36846936D01*
X57917626Y-36736470D01*
X58100784Y-36593913D01*
X58257979Y-36423153D01*
X58384924Y-36228849D01*
X58478157Y-36016300D01*
X58535134Y-35791305D01*
X58538388Y-35752039D01*
X58554300Y-35560006D01*
X58554300Y-35559993D01*
X58535135Y-35328702D01*
X58535133Y-35328691D01*
X58478157Y-35103699D01*
X58384924Y-34891151D01*
X58257983Y-34696852D01*
X58257980Y-34696849D01*
X58257979Y-34696847D01*
X58100784Y-34526087D01*
X58100779Y-34526083D01*
X58100777Y-34526081D01*
X57917634Y-34383535D01*
X57917628Y-34383531D01*
X57713504Y-34273064D01*
X57713495Y-34273061D01*
X57493984Y-34197702D01*
X57322282Y-34169050D01*
X57265049Y-34159500D01*
X57032951Y-34159500D01*
X56987164Y-34167140D01*
X56804015Y-34197702D01*
X56584504Y-34273061D01*
X56584495Y-34273064D01*
X56380371Y-34383531D01*
X56380365Y-34383535D01*
X56197222Y-34526081D01*
X56197219Y-34526084D01*
X56040016Y-34696852D01*
X55913075Y-34891151D01*
X55819842Y-35103699D01*
X55762866Y-35328691D01*
X55762864Y-35328702D01*
X55743700Y-35559993D01*
X55743700Y-35560006D01*
X38554300Y-35560006D01*
X38554300Y-35559993D01*
X38535135Y-35328702D01*
X38535133Y-35328691D01*
X38478157Y-35103699D01*
X38384924Y-34891151D01*
X38257983Y-34696852D01*
X38257980Y-34696849D01*
X38257979Y-34696847D01*
X38100784Y-34526087D01*
X38100779Y-34526083D01*
X38100777Y-34526081D01*
X37917634Y-34383535D01*
X37917628Y-34383531D01*
X37713504Y-34273064D01*
X37713495Y-34273061D01*
X37493984Y-34197702D01*
X37322282Y-34169050D01*
X37265049Y-34159500D01*
X37032951Y-34159500D01*
X36987164Y-34167140D01*
X36804015Y-34197702D01*
X36584504Y-34273061D01*
X36584495Y-34273064D01*
X36380371Y-34383531D01*
X36380365Y-34383535D01*
X36197222Y-34526081D01*
X36197219Y-34526084D01*
X36040016Y-34696852D01*
X35913075Y-34891151D01*
X35819842Y-35103699D01*
X35762866Y-35328691D01*
X35762864Y-35328702D01*
X35743700Y-35559993D01*
X35743700Y-35560006D01*
X26141171Y-35560006D01*
X31221170Y-30480006D01*
X35743700Y-30480006D01*
X35762864Y-30711297D01*
X35762866Y-30711308D01*
X35819842Y-30936300D01*
X35913075Y-31148848D01*
X36040016Y-31343147D01*
X36040019Y-31343151D01*
X36040021Y-31343153D01*
X36197216Y-31513913D01*
X36197219Y-31513915D01*
X36197222Y-31513918D01*
X36380365Y-31656464D01*
X36380371Y-31656468D01*
X36380374Y-31656470D01*
X36584497Y-31766936D01*
X36698487Y-31806068D01*
X36804015Y-31842297D01*
X36804017Y-31842297D01*
X36804019Y-31842298D01*
X37032951Y-31880500D01*
X37032952Y-31880500D01*
X37265048Y-31880500D01*
X37265049Y-31880500D01*
X37493981Y-31842298D01*
X37713503Y-31766936D01*
X37917626Y-31656470D01*
X38100784Y-31513913D01*
X38257979Y-31343153D01*
X38384924Y-31148849D01*
X38478157Y-30936300D01*
X38535134Y-30711305D01*
X38554300Y-30480006D01*
X55743700Y-30480006D01*
X55762864Y-30711297D01*
X55762866Y-30711308D01*
X55819842Y-30936300D01*
X55913075Y-31148848D01*
X56040016Y-31343147D01*
X56040019Y-31343151D01*
X56040021Y-31343153D01*
X56197216Y-31513913D01*
X56197219Y-31513915D01*
X56197222Y-31513918D01*
X56380365Y-31656464D01*
X56380371Y-31656468D01*
X56380374Y-31656470D01*
X56584497Y-31766936D01*
X56698487Y-31806068D01*
X56804015Y-31842297D01*
X56804017Y-31842297D01*
X56804019Y-31842298D01*
X57032951Y-31880500D01*
X57032952Y-31880500D01*
X57265048Y-31880500D01*
X57265049Y-31880500D01*
X57493981Y-31842298D01*
X57713503Y-31766936D01*
X57917626Y-31656470D01*
X58100784Y-31513913D01*
X58257979Y-31343153D01*
X58384924Y-31148849D01*
X58478157Y-30936300D01*
X58535134Y-30711305D01*
X58554300Y-30480000D01*
X58554300Y-30479993D01*
X58535135Y-30248702D01*
X58535133Y-30248691D01*
X58478157Y-30023699D01*
X58384924Y-29811151D01*
X58257983Y-29616852D01*
X58257980Y-29616849D01*
X58257979Y-29616847D01*
X58100784Y-29446087D01*
X58100779Y-29446083D01*
X58100777Y-29446081D01*
X57917634Y-29303535D01*
X57917628Y-29303531D01*
X57713504Y-29193064D01*
X57713495Y-29193061D01*
X57493984Y-29117702D01*
X57322282Y-29089050D01*
X57265049Y-29079500D01*
X57032951Y-29079500D01*
X56987164Y-29087140D01*
X56804015Y-29117702D01*
X56584504Y-29193061D01*
X56584495Y-29193064D01*
X56380371Y-29303531D01*
X56380365Y-29303535D01*
X56197222Y-29446081D01*
X56197219Y-29446084D01*
X56040016Y-29616852D01*
X55913075Y-29811151D01*
X55819842Y-30023699D01*
X55762866Y-30248691D01*
X55762864Y-30248702D01*
X55743700Y-30479993D01*
X55743700Y-30480006D01*
X38554300Y-30480006D01*
X38554300Y-30480000D01*
X38554300Y-30479993D01*
X38535135Y-30248702D01*
X38535133Y-30248691D01*
X38478157Y-30023699D01*
X38384924Y-29811151D01*
X38257983Y-29616852D01*
X38257980Y-29616849D01*
X38257979Y-29616847D01*
X38100784Y-29446087D01*
X38100779Y-29446083D01*
X38100777Y-29446081D01*
X37917634Y-29303535D01*
X37917628Y-29303531D01*
X37713504Y-29193064D01*
X37713495Y-29193061D01*
X37493984Y-29117702D01*
X37322282Y-29089050D01*
X37265049Y-29079500D01*
X37032951Y-29079500D01*
X36987164Y-29087140D01*
X36804015Y-29117702D01*
X36584504Y-29193061D01*
X36584495Y-29193064D01*
X36380371Y-29303531D01*
X36380365Y-29303535D01*
X36197222Y-29446081D01*
X36197219Y-29446084D01*
X36040016Y-29616852D01*
X35913075Y-29811151D01*
X35819842Y-30023699D01*
X35762866Y-30248691D01*
X35762864Y-30248702D01*
X35743700Y-30479993D01*
X35743700Y-30480006D01*
X31221170Y-30480006D01*
X35699144Y-26002032D01*
X35760465Y-25968549D01*
X35830157Y-25973533D01*
X35886090Y-26015405D01*
X35900378Y-26039903D01*
X35913074Y-26068847D01*
X36040016Y-26263147D01*
X36040019Y-26263151D01*
X36040021Y-26263153D01*
X36197216Y-26433913D01*
X36197219Y-26433915D01*
X36197222Y-26433918D01*
X36380365Y-26576464D01*
X36380371Y-26576468D01*
X36380374Y-26576470D01*
X36584497Y-26686936D01*
X36698487Y-26726068D01*
X36804015Y-26762297D01*
X36804017Y-26762297D01*
X36804019Y-26762298D01*
X37032951Y-26800500D01*
X37032952Y-26800500D01*
X37265048Y-26800500D01*
X37265049Y-26800500D01*
X37493981Y-26762298D01*
X37713503Y-26686936D01*
X37917626Y-26576470D01*
X38100784Y-26433913D01*
X38257979Y-26263153D01*
X38384924Y-26068849D01*
X38478157Y-25856300D01*
X38535134Y-25631305D01*
X38537879Y-25598178D01*
X38554300Y-25400006D01*
X38554300Y-25399993D01*
X38535135Y-25168702D01*
X38535131Y-25168682D01*
X38481004Y-24954941D01*
X38483628Y-24885120D01*
X38523584Y-24827803D01*
X38588185Y-24801186D01*
X38601209Y-24800500D01*
X39111103Y-24800500D01*
X39178142Y-24820185D01*
X39223897Y-24872989D01*
X39233841Y-24942147D01*
X39220461Y-24982954D01*
X39203187Y-25015269D01*
X39145975Y-25203870D01*
X39126659Y-25400000D01*
X39145975Y-25596129D01*
X39203188Y-25784733D01*
X39296086Y-25958532D01*
X39296090Y-25958539D01*
X39421116Y-26110883D01*
X39573460Y-26235909D01*
X39573467Y-26235913D01*
X39747266Y-26328811D01*
X39747269Y-26328811D01*
X39747273Y-26328814D01*
X39935868Y-26386024D01*
X40132000Y-26405341D01*
X40328132Y-26386024D01*
X40516727Y-26328814D01*
X40581547Y-26294166D01*
X40649949Y-26279925D01*
X40698452Y-26294166D01*
X40763273Y-26328814D01*
X40951868Y-26386024D01*
X41148000Y-26405341D01*
X41344132Y-26386024D01*
X41532727Y-26328814D01*
X41706538Y-26235910D01*
X41858883Y-26110883D01*
X41983910Y-25958538D01*
X42050125Y-25834657D01*
X42099086Y-25784814D01*
X42167224Y-25769353D01*
X42217936Y-25783753D01*
X42287267Y-25820811D01*
X42287273Y-25820814D01*
X42475868Y-25878024D01*
X42672000Y-25897341D01*
X42868132Y-25878024D01*
X43056727Y-25820814D01*
X43230538Y-25727910D01*
X43355335Y-25625490D01*
X43419645Y-25598178D01*
X43488512Y-25609969D01*
X43512663Y-25625490D01*
X43519749Y-25631305D01*
X43637460Y-25727909D01*
X43637467Y-25727913D01*
X43811266Y-25820811D01*
X43811269Y-25820811D01*
X43811273Y-25820814D01*
X43999868Y-25878024D01*
X44196000Y-25897341D01*
X44392132Y-25878024D01*
X44580727Y-25820814D01*
X44754538Y-25727910D01*
X44906883Y-25602883D01*
X45031910Y-25450538D01*
X45058920Y-25400006D01*
X55743700Y-25400006D01*
X55762864Y-25631297D01*
X55762866Y-25631308D01*
X55819842Y-25856300D01*
X55913075Y-26068848D01*
X56040016Y-26263147D01*
X56040019Y-26263151D01*
X56040021Y-26263153D01*
X56197216Y-26433913D01*
X56197219Y-26433915D01*
X56197222Y-26433918D01*
X56380365Y-26576464D01*
X56380371Y-26576468D01*
X56380374Y-26576470D01*
X56584497Y-26686936D01*
X56698487Y-26726068D01*
X56804015Y-26762297D01*
X56804017Y-26762297D01*
X56804019Y-26762298D01*
X57032951Y-26800500D01*
X57032952Y-26800500D01*
X57265048Y-26800500D01*
X57265049Y-26800500D01*
X57493981Y-26762298D01*
X57713503Y-26686936D01*
X57917626Y-26576470D01*
X58100784Y-26433913D01*
X58257979Y-26263153D01*
X58384924Y-26068849D01*
X58478157Y-25856300D01*
X58535134Y-25631305D01*
X58537879Y-25598178D01*
X58554300Y-25400006D01*
X58554300Y-25399993D01*
X58535135Y-25168702D01*
X58535133Y-25168691D01*
X58478157Y-24943699D01*
X58384924Y-24731151D01*
X58257983Y-24536852D01*
X58257980Y-24536849D01*
X58257979Y-24536847D01*
X58100784Y-24366087D01*
X58100779Y-24366083D01*
X58100777Y-24366081D01*
X57917634Y-24223535D01*
X57917628Y-24223531D01*
X57713504Y-24113064D01*
X57713495Y-24113061D01*
X57493984Y-24037702D01*
X57322282Y-24009050D01*
X57265049Y-23999500D01*
X57032951Y-23999500D01*
X56987164Y-24007140D01*
X56804015Y-24037702D01*
X56584504Y-24113061D01*
X56584495Y-24113064D01*
X56380371Y-24223531D01*
X56380365Y-24223535D01*
X56197222Y-24366081D01*
X56197219Y-24366084D01*
X56040016Y-24536852D01*
X55913075Y-24731151D01*
X55819842Y-24943699D01*
X55762866Y-25168691D01*
X55762864Y-25168702D01*
X55743700Y-25399993D01*
X55743700Y-25400006D01*
X45058920Y-25400006D01*
X45124814Y-25276727D01*
X45182024Y-25088132D01*
X45201341Y-24892000D01*
X45182024Y-24695868D01*
X45124814Y-24507273D01*
X45124811Y-24507269D01*
X45124811Y-24507266D01*
X45031913Y-24333467D01*
X45031909Y-24333460D01*
X44906883Y-24181116D01*
X44754539Y-24056090D01*
X44754532Y-24056086D01*
X44580733Y-23963188D01*
X44580727Y-23963186D01*
X44392132Y-23905976D01*
X44392129Y-23905975D01*
X44196000Y-23886659D01*
X43999870Y-23905975D01*
X43811266Y-23963188D01*
X43637467Y-24056086D01*
X43637460Y-24056090D01*
X43512665Y-24158508D01*
X43448355Y-24185821D01*
X43379487Y-24174030D01*
X43355335Y-24158508D01*
X43230539Y-24056090D01*
X43230532Y-24056086D01*
X43056733Y-23963188D01*
X43056727Y-23963186D01*
X42868132Y-23905976D01*
X42868129Y-23905975D01*
X42672000Y-23886659D01*
X42475870Y-23905975D01*
X42287266Y-23963188D01*
X42113467Y-24056086D01*
X42113460Y-24056090D01*
X41961116Y-24181116D01*
X41836090Y-24333460D01*
X41836085Y-24333467D01*
X41769874Y-24457341D01*
X41720912Y-24507186D01*
X41652774Y-24522646D01*
X41602063Y-24508246D01*
X41532733Y-24471188D01*
X41532727Y-24471186D01*
X41344132Y-24413976D01*
X41344129Y-24413975D01*
X41303296Y-24409954D01*
X41238509Y-24383793D01*
X41198150Y-24326759D01*
X41195033Y-24256959D01*
X41227767Y-24198872D01*
X47639821Y-17786819D01*
X47701144Y-17753334D01*
X47727502Y-17750500D01*
X49887770Y-17750500D01*
X49954809Y-17770185D01*
X49975451Y-17786819D01*
X51174267Y-18985634D01*
X51186048Y-18999266D01*
X51200390Y-19018530D01*
X51240420Y-19052119D01*
X51244392Y-19055759D01*
X51250223Y-19061590D01*
X51250222Y-19061590D01*
X51275944Y-19081927D01*
X51334786Y-19131302D01*
X51334794Y-19131306D01*
X51340824Y-19135273D01*
X51340790Y-19135323D01*
X51347137Y-19139366D01*
X51347169Y-19139316D01*
X51353318Y-19143108D01*
X51353320Y-19143109D01*
X51353323Y-19143111D01*
X51422930Y-19175569D01*
X51491567Y-19210040D01*
X51491576Y-19210042D01*
X51498355Y-19212510D01*
X51498334Y-19212567D01*
X51505451Y-19215040D01*
X51505470Y-19214984D01*
X51512330Y-19217257D01*
X51587532Y-19232784D01*
X51662279Y-19250500D01*
X51662288Y-19250500D01*
X51669452Y-19251338D01*
X51669445Y-19251397D01*
X51676946Y-19252163D01*
X51676952Y-19252104D01*
X51684140Y-19252733D01*
X51684143Y-19252732D01*
X51684144Y-19252733D01*
X51760898Y-19250500D01*
X52043022Y-19250500D01*
X52110061Y-19270185D01*
X52121687Y-19278647D01*
X52191460Y-19335909D01*
X52191467Y-19335913D01*
X52365266Y-19428811D01*
X52365269Y-19428811D01*
X52365273Y-19428814D01*
X52553868Y-19486024D01*
X52750000Y-19505341D01*
X52946132Y-19486024D01*
X53134727Y-19428814D01*
X53308538Y-19335910D01*
X53460883Y-19210883D01*
X53585910Y-19058538D01*
X53678814Y-18884727D01*
X53736024Y-18696132D01*
X53755341Y-18500000D01*
X53736024Y-18303868D01*
X53686768Y-18141496D01*
X53686145Y-18071631D01*
X53723393Y-18012518D01*
X53769434Y-17986841D01*
X53772125Y-17986024D01*
X53772132Y-17986024D01*
X53960727Y-17928814D01*
X54134538Y-17835910D01*
X54286883Y-17710883D01*
X54411910Y-17558538D01*
X54504814Y-17384727D01*
X54562024Y-17196132D01*
X54581341Y-17000000D01*
X54562024Y-16803868D01*
X54504814Y-16615273D01*
X54504811Y-16615269D01*
X54504811Y-16615266D01*
X54411913Y-16441467D01*
X54411909Y-16441460D01*
X54286883Y-16289116D01*
X54134539Y-16164090D01*
X54134532Y-16164086D01*
X53960733Y-16071188D01*
X53960727Y-16071186D01*
X53772132Y-16013976D01*
X53772129Y-16013975D01*
X53576000Y-15994659D01*
X53379870Y-16013975D01*
X53191266Y-16071188D01*
X53017467Y-16164086D01*
X53017460Y-16164090D01*
X52947687Y-16221353D01*
X52883377Y-16248666D01*
X52869022Y-16249500D01*
X50339345Y-16249500D01*
X50323055Y-16247835D01*
X50323050Y-16247895D01*
X50315860Y-16247265D01*
X50239083Y-16249500D01*
X47428978Y-16249500D01*
X47411008Y-16248191D01*
X47387245Y-16244710D01*
X47342042Y-16248666D01*
X47335204Y-16249264D01*
X47329803Y-16249500D01*
X47321562Y-16249500D01*
X47299852Y-16252037D01*
X47288997Y-16253306D01*
X47273692Y-16254645D01*
X47212472Y-16260001D01*
X47205405Y-16261460D01*
X47205393Y-16261404D01*
X47198036Y-16263035D01*
X47198050Y-16263092D01*
X47191016Y-16264759D01*
X47118848Y-16291025D01*
X47045948Y-16315181D01*
X47039399Y-16318236D01*
X47039374Y-16318183D01*
X47032581Y-16321471D01*
X47032607Y-16321523D01*
X47026153Y-16324764D01*
X46961981Y-16366971D01*
X46896620Y-16407285D01*
X46890956Y-16411765D01*
X46890920Y-16411719D01*
X46885071Y-16416484D01*
X46885108Y-16416528D01*
X46879583Y-16421164D01*
X46879577Y-16421169D01*
X46879577Y-16421170D01*
X46826870Y-16477035D01*
X42537535Y-20766369D01*
X42476212Y-20799854D01*
X42406520Y-20794870D01*
X42350587Y-20752998D01*
X42330079Y-20710779D01*
X42317907Y-20665349D01*
X42317904Y-20665344D01*
X42317903Y-20665337D01*
X42218035Y-20451171D01*
X42212425Y-20443158D01*
X42082494Y-20257597D01*
X41915402Y-20090506D01*
X41915395Y-20090501D01*
X41721834Y-19954967D01*
X41721830Y-19954965D01*
X41721828Y-19954964D01*
X41507663Y-19855097D01*
X41507659Y-19855096D01*
X41507655Y-19855094D01*
X41279413Y-19793938D01*
X41279403Y-19793936D01*
X41044001Y-19773341D01*
X41043999Y-19773341D01*
X40808596Y-19793936D01*
X40808586Y-19793938D01*
X40580344Y-19855094D01*
X40580335Y-19855098D01*
X40366171Y-19954964D01*
X40366169Y-19954965D01*
X40172597Y-20090505D01*
X40005505Y-20257597D01*
X39875575Y-20443158D01*
X39820998Y-20486783D01*
X39751500Y-20493977D01*
X39689145Y-20462454D01*
X39672425Y-20443158D01*
X39542494Y-20257597D01*
X39375402Y-20090506D01*
X39375395Y-20090501D01*
X39181834Y-19954967D01*
X39181830Y-19954965D01*
X39181828Y-19954964D01*
X38967663Y-19855097D01*
X38967659Y-19855096D01*
X38967655Y-19855094D01*
X38739413Y-19793938D01*
X38739403Y-19793936D01*
X38504001Y-19773341D01*
X38503999Y-19773341D01*
X38268596Y-19793936D01*
X38268586Y-19793938D01*
X38040344Y-19855094D01*
X38040335Y-19855098D01*
X37826171Y-19954964D01*
X37826169Y-19954965D01*
X37632597Y-20090505D01*
X37465505Y-20257597D01*
X37335575Y-20443158D01*
X37280998Y-20486783D01*
X37211500Y-20493977D01*
X37149145Y-20462454D01*
X37132425Y-20443158D01*
X37002494Y-20257597D01*
X36835402Y-20090506D01*
X36835395Y-20090501D01*
X36641834Y-19954967D01*
X36641830Y-19954965D01*
X36641828Y-19954964D01*
X36427663Y-19855097D01*
X36427659Y-19855096D01*
X36427655Y-19855094D01*
X36199413Y-19793938D01*
X36199403Y-19793936D01*
X35964001Y-19773341D01*
X35963999Y-19773341D01*
X35728596Y-19793936D01*
X35728586Y-19793938D01*
X35500344Y-19855094D01*
X35500335Y-19855098D01*
X35286171Y-19954964D01*
X35286169Y-19954965D01*
X35092600Y-20090503D01*
X34970673Y-20212430D01*
X34909350Y-20245914D01*
X34839658Y-20240930D01*
X34783725Y-20199058D01*
X34766810Y-20168081D01*
X34717797Y-20036671D01*
X34717793Y-20036664D01*
X34631547Y-19921455D01*
X34631544Y-19921452D01*
X34516335Y-19835206D01*
X34516328Y-19835202D01*
X34381482Y-19784908D01*
X34381483Y-19784908D01*
X34321883Y-19778501D01*
X34321881Y-19778500D01*
X34321873Y-19778500D01*
X34321864Y-19778500D01*
X32526129Y-19778500D01*
X32526123Y-19778501D01*
X32466516Y-19784908D01*
X32331671Y-19835202D01*
X32331664Y-19835206D01*
X32216455Y-19921452D01*
X32216452Y-19921455D01*
X32130206Y-20036664D01*
X32130202Y-20036671D01*
X32079908Y-20171517D01*
X32073501Y-20231116D01*
X32073500Y-20231135D01*
X32073500Y-22026870D01*
X32073501Y-22026876D01*
X32079908Y-22086483D01*
X32130202Y-22221328D01*
X32130206Y-22221335D01*
X32216452Y-22336544D01*
X32216455Y-22336547D01*
X32331664Y-22422793D01*
X32331671Y-22422797D01*
X32466517Y-22473091D01*
X32466516Y-22473091D01*
X32473444Y-22473835D01*
X32526127Y-22479500D01*
X34321872Y-22479499D01*
X34381483Y-22473091D01*
X34516331Y-22422796D01*
X34631546Y-22336546D01*
X34717796Y-22221331D01*
X34766810Y-22089916D01*
X34808681Y-22033984D01*
X34874145Y-22009566D01*
X34942418Y-22024417D01*
X34970673Y-22045569D01*
X35092599Y-22167495D01*
X35189384Y-22235265D01*
X35286165Y-22303032D01*
X35286167Y-22303033D01*
X35286170Y-22303035D01*
X35500337Y-22402903D01*
X35500343Y-22402904D01*
X35500344Y-22402905D01*
X35545779Y-22415079D01*
X35728592Y-22464063D01*
X35905034Y-22479500D01*
X35963999Y-22484659D01*
X35964000Y-22484659D01*
X35964001Y-22484659D01*
X36022966Y-22479500D01*
X36199408Y-22464063D01*
X36427663Y-22402903D01*
X36641830Y-22303035D01*
X36835401Y-22167495D01*
X37002495Y-22000401D01*
X37132425Y-21814842D01*
X37187002Y-21771217D01*
X37256500Y-21764023D01*
X37318855Y-21795546D01*
X37335575Y-21814842D01*
X37465505Y-22000401D01*
X37632599Y-22167495D01*
X37729384Y-22235265D01*
X37826165Y-22303032D01*
X37826167Y-22303033D01*
X37826170Y-22303035D01*
X38040337Y-22402903D01*
X38040343Y-22402904D01*
X38040344Y-22402905D01*
X38085779Y-22415079D01*
X38268592Y-22464063D01*
X38445034Y-22479500D01*
X38503999Y-22484659D01*
X38504000Y-22484659D01*
X38504001Y-22484659D01*
X38562966Y-22479500D01*
X38739408Y-22464063D01*
X38967663Y-22402903D01*
X39181830Y-22303035D01*
X39375401Y-22167495D01*
X39542495Y-22000401D01*
X39672425Y-21814842D01*
X39727002Y-21771217D01*
X39796500Y-21764023D01*
X39858855Y-21795546D01*
X39875575Y-21814842D01*
X40005505Y-22000401D01*
X40172599Y-22167495D01*
X40269384Y-22235265D01*
X40366165Y-22303032D01*
X40366167Y-22303033D01*
X40366170Y-22303035D01*
X40580337Y-22402903D01*
X40580344Y-22402904D01*
X40580349Y-22402907D01*
X40625779Y-22415079D01*
X40685440Y-22451442D01*
X40715971Y-22514289D01*
X40707677Y-22583664D01*
X40681369Y-22622535D01*
X40040724Y-23263181D01*
X39979401Y-23296666D01*
X39953043Y-23299500D01*
X36653519Y-23299500D01*
X36635548Y-23298191D01*
X36611790Y-23294711D01*
X36611784Y-23294710D01*
X36566714Y-23298654D01*
X36559742Y-23299264D01*
X36554341Y-23299500D01*
X36546100Y-23299500D01*
X36524390Y-23302037D01*
X36513535Y-23303306D01*
X36498230Y-23304645D01*
X36437010Y-23310001D01*
X36429943Y-23311460D01*
X36429931Y-23311404D01*
X36422574Y-23313035D01*
X36422588Y-23313092D01*
X36415554Y-23314759D01*
X36343386Y-23341025D01*
X36270486Y-23365181D01*
X36263937Y-23368236D01*
X36263912Y-23368183D01*
X36257119Y-23371471D01*
X36257145Y-23371523D01*
X36250691Y-23374764D01*
X36186519Y-23416971D01*
X36121158Y-23457285D01*
X36115494Y-23461765D01*
X36115458Y-23461719D01*
X36109609Y-23466484D01*
X36109646Y-23466528D01*
X36104121Y-23471164D01*
X36051408Y-23527035D01*
X24764358Y-34814083D01*
X24750729Y-34825862D01*
X24731468Y-34840201D01*
X24697898Y-34880208D01*
X24694253Y-34884187D01*
X24688409Y-34890033D01*
X24668059Y-34915770D01*
X24618695Y-34974600D01*
X24614729Y-34980630D01*
X24614682Y-34980599D01*
X24610630Y-34986958D01*
X24610679Y-34986988D01*
X24606889Y-34993132D01*
X24574424Y-35062752D01*
X24539960Y-35131377D01*
X24537488Y-35138168D01*
X24537432Y-35138147D01*
X24534960Y-35145261D01*
X24535015Y-35145280D01*
X24532742Y-35152138D01*
X24524975Y-35189757D01*
X24517207Y-35227376D01*
X24504001Y-35283095D01*
X24499498Y-35302097D01*
X24498661Y-35309265D01*
X24498601Y-35309258D01*
X24497835Y-35316756D01*
X24497895Y-35316762D01*
X24497265Y-35323951D01*
X24499500Y-35400727D01*
X24499500Y-62764297D01*
X24498191Y-62782266D01*
X24494710Y-62806028D01*
X12200500Y-62806028D01*
X12200500Y-40640006D01*
X15743700Y-40640006D01*
X15762864Y-40871297D01*
X15762866Y-40871308D01*
X15819842Y-41096300D01*
X15913075Y-41308848D01*
X16040016Y-41503147D01*
X16040019Y-41503151D01*
X16040021Y-41503153D01*
X16197216Y-41673913D01*
X16197219Y-41673915D01*
X16197222Y-41673918D01*
X16380365Y-41816464D01*
X16380371Y-41816468D01*
X16380374Y-41816470D01*
X16584497Y-41926936D01*
X16698487Y-41966068D01*
X16804015Y-42002297D01*
X16804017Y-42002297D01*
X16804019Y-42002298D01*
X17032951Y-42040500D01*
X17032952Y-42040500D01*
X17265048Y-42040500D01*
X17265049Y-42040500D01*
X17493981Y-42002298D01*
X17713503Y-41926936D01*
X17917626Y-41816470D01*
X18100784Y-41673913D01*
X18257979Y-41503153D01*
X18384924Y-41308849D01*
X18478157Y-41096300D01*
X18535134Y-40871305D01*
X18554300Y-40640000D01*
X18554300Y-40639993D01*
X18535135Y-40408702D01*
X18535133Y-40408691D01*
X18478157Y-40183699D01*
X18384924Y-39971151D01*
X18257983Y-39776852D01*
X18257980Y-39776849D01*
X18257979Y-39776847D01*
X18100784Y-39606087D01*
X18100779Y-39606083D01*
X18100777Y-39606081D01*
X17917634Y-39463535D01*
X17917628Y-39463531D01*
X17713504Y-39353064D01*
X17713495Y-39353061D01*
X17493984Y-39277702D01*
X17322282Y-39249050D01*
X17265049Y-39239500D01*
X17032951Y-39239500D01*
X16987164Y-39247140D01*
X16804015Y-39277702D01*
X16584504Y-39353061D01*
X16584495Y-39353064D01*
X16380371Y-39463531D01*
X16380365Y-39463535D01*
X16197222Y-39606081D01*
X16197219Y-39606084D01*
X16040016Y-39776852D01*
X15913075Y-39971151D01*
X15819842Y-40183699D01*
X15762866Y-40408691D01*
X15762864Y-40408702D01*
X15743700Y-40639993D01*
X15743700Y-40640006D01*
X12200500Y-40640006D01*
X12200500Y-35560006D01*
X15743700Y-35560006D01*
X15762864Y-35791297D01*
X15762866Y-35791308D01*
X15819842Y-36016300D01*
X15913075Y-36228848D01*
X16040016Y-36423147D01*
X16040019Y-36423151D01*
X16040021Y-36423153D01*
X16197216Y-36593913D01*
X16197219Y-36593915D01*
X16197222Y-36593918D01*
X16380365Y-36736464D01*
X16380371Y-36736468D01*
X16380374Y-36736470D01*
X16584497Y-36846936D01*
X16698487Y-36886068D01*
X16804015Y-36922297D01*
X16804017Y-36922297D01*
X16804019Y-36922298D01*
X17032951Y-36960500D01*
X17032952Y-36960500D01*
X17265048Y-36960500D01*
X17265049Y-36960500D01*
X17493981Y-36922298D01*
X17713503Y-36846936D01*
X17917626Y-36736470D01*
X18100784Y-36593913D01*
X18257979Y-36423153D01*
X18384924Y-36228849D01*
X18478157Y-36016300D01*
X18535134Y-35791305D01*
X18538388Y-35752039D01*
X18554300Y-35560006D01*
X18554300Y-35559993D01*
X18535135Y-35328702D01*
X18535133Y-35328691D01*
X18478157Y-35103699D01*
X18384924Y-34891151D01*
X18257983Y-34696852D01*
X18257980Y-34696849D01*
X18257979Y-34696847D01*
X18100784Y-34526087D01*
X18100779Y-34526083D01*
X18100777Y-34526081D01*
X17917634Y-34383535D01*
X17917628Y-34383531D01*
X17713504Y-34273064D01*
X17713495Y-34273061D01*
X17493984Y-34197702D01*
X17322282Y-34169050D01*
X17265049Y-34159500D01*
X17032951Y-34159500D01*
X16987164Y-34167140D01*
X16804015Y-34197702D01*
X16584504Y-34273061D01*
X16584495Y-34273064D01*
X16380371Y-34383531D01*
X16380365Y-34383535D01*
X16197222Y-34526081D01*
X16197219Y-34526084D01*
X16040016Y-34696852D01*
X15913075Y-34891151D01*
X15819842Y-35103699D01*
X15762866Y-35328691D01*
X15762864Y-35328702D01*
X15743700Y-35559993D01*
X15743700Y-35560006D01*
X12200500Y-35560006D01*
X12200500Y-30480006D01*
X15743700Y-30480006D01*
X15762864Y-30711297D01*
X15762866Y-30711308D01*
X15819842Y-30936300D01*
X15913075Y-31148848D01*
X16040016Y-31343147D01*
X16040019Y-31343151D01*
X16040021Y-31343153D01*
X16197216Y-31513913D01*
X16197219Y-31513915D01*
X16197222Y-31513918D01*
X16380365Y-31656464D01*
X16380371Y-31656468D01*
X16380374Y-31656470D01*
X16584497Y-31766936D01*
X16698487Y-31806068D01*
X16804015Y-31842297D01*
X16804017Y-31842297D01*
X16804019Y-31842298D01*
X17032951Y-31880500D01*
X17032952Y-31880500D01*
X17265048Y-31880500D01*
X17265049Y-31880500D01*
X17493981Y-31842298D01*
X17713503Y-31766936D01*
X17917626Y-31656470D01*
X18100784Y-31513913D01*
X18257979Y-31343153D01*
X18384924Y-31148849D01*
X18478157Y-30936300D01*
X18535134Y-30711305D01*
X18554300Y-30480000D01*
X18554300Y-30479993D01*
X18535135Y-30248702D01*
X18535133Y-30248691D01*
X18478157Y-30023699D01*
X18384924Y-29811151D01*
X18257983Y-29616852D01*
X18257980Y-29616849D01*
X18257979Y-29616847D01*
X18100784Y-29446087D01*
X18100779Y-29446083D01*
X18100777Y-29446081D01*
X17917634Y-29303535D01*
X17917628Y-29303531D01*
X17713504Y-29193064D01*
X17713495Y-29193061D01*
X17493984Y-29117702D01*
X17322282Y-29089050D01*
X17265049Y-29079500D01*
X17032951Y-29079500D01*
X16987164Y-29087140D01*
X16804015Y-29117702D01*
X16584504Y-29193061D01*
X16584495Y-29193064D01*
X16380371Y-29303531D01*
X16380365Y-29303535D01*
X16197222Y-29446081D01*
X16197219Y-29446084D01*
X16040016Y-29616852D01*
X15913075Y-29811151D01*
X15819842Y-30023699D01*
X15762866Y-30248691D01*
X15762864Y-30248702D01*
X15743700Y-30479993D01*
X15743700Y-30480006D01*
X12200500Y-30480006D01*
X12200500Y-25400006D01*
X15743700Y-25400006D01*
X15762864Y-25631297D01*
X15762866Y-25631308D01*
X15819842Y-25856300D01*
X15913075Y-26068848D01*
X16040016Y-26263147D01*
X16040019Y-26263151D01*
X16040021Y-26263153D01*
X16197216Y-26433913D01*
X16197219Y-26433915D01*
X16197222Y-26433918D01*
X16380365Y-26576464D01*
X16380371Y-26576468D01*
X16380374Y-26576470D01*
X16584497Y-26686936D01*
X16698487Y-26726068D01*
X16804015Y-26762297D01*
X16804017Y-26762297D01*
X16804019Y-26762298D01*
X17032951Y-26800500D01*
X17032952Y-26800500D01*
X17265048Y-26800500D01*
X17265049Y-26800500D01*
X17493981Y-26762298D01*
X17713503Y-26686936D01*
X17917626Y-26576470D01*
X18100784Y-26433913D01*
X18257979Y-26263153D01*
X18384924Y-26068849D01*
X18478157Y-25856300D01*
X18535134Y-25631305D01*
X18537879Y-25598178D01*
X18554300Y-25400006D01*
X18554300Y-25399993D01*
X18535135Y-25168702D01*
X18535133Y-25168691D01*
X18478157Y-24943699D01*
X18384924Y-24731151D01*
X18257983Y-24536852D01*
X18257980Y-24536849D01*
X18257979Y-24536847D01*
X18100784Y-24366087D01*
X18100779Y-24366083D01*
X18100777Y-24366081D01*
X17917634Y-24223535D01*
X17917628Y-24223531D01*
X17713504Y-24113064D01*
X17713495Y-24113061D01*
X17493984Y-24037702D01*
X17322282Y-24009050D01*
X17265049Y-23999500D01*
X17032951Y-23999500D01*
X16987164Y-24007140D01*
X16804015Y-24037702D01*
X16584504Y-24113061D01*
X16584495Y-24113064D01*
X16380371Y-24223531D01*
X16380365Y-24223535D01*
X16197222Y-24366081D01*
X16197219Y-24366084D01*
X16040016Y-24536852D01*
X15913075Y-24731151D01*
X15819842Y-24943699D01*
X15762866Y-25168691D01*
X15762864Y-25168702D01*
X15743700Y-25399993D01*
X15743700Y-25400006D01*
X12200500Y-25400006D01*
X12200500Y-12324500D01*
X12220185Y-12257461D01*
X12272989Y-12211706D01*
X12324500Y-12200500D01*
X62675500Y-12200500D01*
X62742539Y-12220185D01*
G37*
%TD.AperFunction*%
%TD*%
M02*
