M48
; DRILL file {KiCad 7.0.8} date Wed Mar 13 16:31:13 2024
; FORMAT={-:-/ absolute / inch / decimal}
; #@! TF.CreationDate,2024-03-13T16:31:13+02:00
; #@! TF.GenerationSoftware,Kicad,Pcbnew,7.0.8
; #@! TF.FileFunction,Plated,1,4,PTH
FMAT,2
INCH
; #@! TA.AperFunction,Plated,PTH,ViaDrill
T1C0.0197
; #@! TA.AperFunction,Plated,PTH,ComponentDrill
T2C0.0276
; #@! TA.AperFunction,Plated,PTH,ComponentDrill
T3C0.0394
; #@! TA.AperFunction,Plated,PTH,ComponentDrill
T4C0.0472
%
G90
G05
T1
X0.5217Y-0.7382
X0.5915Y-1.8455
X0.6004Y-0.7382
X0.6457Y-1.8179
X0.6535Y-2.6919
X0.7254Y-2.6811
X1.063Y-1.1614
X1.0768Y-3.2972
X1.08Y-1.9
X1.08Y-2.42
X1.0837Y-2.9783
X1.0856Y-3.0896
X1.0925Y-1.2106
X1.0955Y-2.9252
X1.1134Y-2.54
X1.125Y-3.3228
X1.14Y-1.88
X1.16Y-2.42
X1.16Y-2.5
X1.1624Y-1.7904
X1.1915Y-2.7382
X1.1988Y-2.7923
X1.2244Y-3.0719
X1.2303Y-1.7608
X1.4961Y-3.0915
X1.501Y-3.1437
X1.5305Y-3.2096
X1.5689Y-3.1713
X1.58Y-1.0
X1.6063Y-3.2333
X1.62Y-1.0
X1.62Y-3.0
X1.64Y-3.04
X1.6752Y-3.248
X1.68Y-0.98
X1.6972Y-2.7748
X1.6996Y-2.8169
X1.7126Y-2.8839
X1.7126Y-3.376
X1.7224Y-3.4252
X1.7392Y-2.7195
X1.74Y-0.98
X1.7498Y-2.5775
X1.7618Y-2.874
X1.7854Y-2.6742
X1.8Y-2.12
X1.8012Y-2.5719
X1.8209Y-3.2776
X1.86Y-2.08
X1.8602Y-1.1614
X1.8701Y-1.0925
X1.8701Y-3.3071
X1.873Y-2.5217
X1.9163Y-2.4961
X1.9833Y-2.4843
X2.0394Y-2.4656
X2.0768Y-0.7283
X2.1093Y-0.6693
T2
X1.2802Y-1.9641
X1.2802Y-2.0342
X1.2802Y-2.1043
X1.2802Y-2.1744
X1.2802Y-2.2444
X1.2802Y-2.3145
X1.2802Y-2.3846
X1.2802Y-2.4547
X1.7015Y-1.9992
X1.7015Y-2.0693
X1.7015Y-2.1393
X1.7015Y-2.2094
X1.7015Y-2.2795
X1.7015Y-2.3496
X1.7015Y-2.4196
X1.7015Y-2.4897
T3
X0.9396Y-2.9345
X0.9396Y-3.0345
X0.9396Y-3.1345
X0.9396Y-3.2345
X1.3159Y-0.8319
X1.4159Y-0.8319
X1.5159Y-0.8319
X1.6159Y-0.8319
T4
X0.6752Y-1.0
X0.6752Y-1.2
X0.6752Y-1.4
X0.6752Y-1.6
X1.4626Y-1.0
X1.4626Y-1.2
X1.4626Y-1.4
X1.4626Y-1.6
X2.25Y-1.0
X2.25Y-1.2
X2.25Y-1.4
X2.25Y-1.6
T0
M30
